<svg width="1280" height="720" viewBox="0 0 1280 720" fill="none" xmlns="http://www.w3.org/2000/svg">
<g clip-path="url(#clip0_321_2)">
<rect width="1280" height="720" fill="black"/>
<path d="M539.884 323.6H667.684L645.284 345.4H573.484V382.4H579.684C584.884 382.4 588.084 378.2 588.484 372H590.084V412.6H588.484C587.684 405.4 584.484 402.2 579.484 402.2H573.484V447.4C573.484 454 577.484 460.2 582.884 461.4V463H539.884V461.4C545.084 459.8 549.284 454.4 549.284 447.4V339.2C549.284 332.2 545.084 326.8 539.884 325.2V323.6ZM624.998 430.6V440.8C624.998 444 626.398 445.6 629.198 445.6C631.598 445.6 633.398 444 633.398 440.8V417.8L627.998 422.2C625.998 423.8 624.998 426.8 624.998 430.6ZM602.598 449.8V426.8C602.598 421.2 604.198 417.4 607.598 414.6L630.398 397.8C632.398 396.2 633.398 394.8 633.398 393.2V391.2C633.398 389.4 632.198 388.2 629.998 388.2H620.398C614.398 388.2 609.598 389.2 606.598 396.4H605.598V383C605.598 374 612.598 369.8 620.398 369.8H640.198C649.998 369.8 655.798 376.8 655.798 386.6V455.4C655.798 459.4 656.998 460.8 660.398 461.4V463H642.798C637.198 463 634.598 461.6 633.398 456.6C631.198 461.6 627.598 463 621.798 463H615.198C607.198 463 602.598 458 602.598 449.8ZM759.465 463H732.465V394C732.465 389.6 731.665 387.2 728.265 387.2C725.065 387.2 723.665 389.6 723.665 394.2V455.6C723.665 458.8 724.665 460.8 728.265 461.4V463H701.265V394C701.265 389.6 700.265 387.2 697.065 387.2C693.865 387.2 692.465 389.6 692.465 394.2V455.6C692.465 459.2 694.065 461 697.065 461.4V463H670.065V388.6C670.065 384.4 668.665 382.6 665.465 382.4V381.4L692.465 366.8V377.4C696.865 372.4 702.465 369.2 709.265 369.2C715.865 369.2 720.865 371.8 723.265 377.6C728.465 372 734.265 369.2 740.665 369.2C751.065 369.2 754.865 375 754.865 383.8V455.6C754.865 459 755.865 460.6 759.465 461.4V463ZM792.112 353.6C792.112 361 786.912 366.6 779.512 366.6C771.712 366.6 766.712 361.2 766.712 353.6C766.712 346.4 771.512 340.6 779.512 340.6C787.112 340.6 792.112 346.6 792.112 353.6ZM795.112 463H768.112V389C768.112 384.6 766.712 382.4 763.512 382.4V381.4L790.512 366.8V456.2C790.512 459.2 792.112 461 795.112 461.4V463ZM832.807 463H805.807V346C805.807 341.6 804.407 339.4 801.207 339.4V338.4L828.207 323.6V456.2C828.207 459.2 829.807 461 832.807 461.4V463ZM865.354 353.6C865.354 361 860.154 366.6 852.754 366.6C844.954 366.6 839.954 361.2 839.954 353.6C839.954 346.4 844.754 340.6 852.754 340.6C860.354 340.6 865.354 346.6 865.354 353.6ZM868.354 463H841.354V389C841.354 384.6 839.954 382.4 836.754 382.4V381.4L863.754 366.8V456.2C863.754 459.2 865.354 461 868.354 461.4V463ZM897.849 430.6V440.8C897.849 444 899.249 445.6 902.049 445.6C904.449 445.6 906.249 444 906.249 440.8V417.8L900.849 422.2C898.849 423.8 897.849 426.8 897.849 430.6ZM875.449 449.8V426.8C875.449 421.2 877.049 417.4 880.449 414.6L903.249 397.8C905.249 396.2 906.249 394.8 906.249 393.2V391.2C906.249 389.4 905.049 388.2 902.849 388.2H893.249C887.249 388.2 882.449 389.2 879.449 396.4H878.449V383C878.449 374 885.449 369.8 893.249 369.8H913.049C922.849 369.8 928.649 376.8 928.649 386.6V455.4C928.649 459.4 929.849 460.8 933.249 461.4V463H915.649C910.049 463 907.449 461.6 906.249 456.6C904.049 461.6 900.449 463 894.649 463H888.049C880.049 463 875.449 458 875.449 449.8Z" fill="white"/>
<g opacity="0.1">
<path d="M1535.97 664.577C1535.97 664.577 1542.32 779.65 1475.26 846.709C1408.2 913.769 1293.13 907.42 1293.13 907.42C1293.13 907.42 1286.78 792.347 1353.84 725.288C1420.9 658.229 1535.97 664.577 1535.97 664.577Z" fill="white"/>
<path d="M959.609 176.79C959.609 176.79 907.571 73.9594 815.966 49.414C724.362 24.8687 627.88 87.9031 627.88 87.9031C627.88 87.9031 679.918 190.733 771.523 215.279C863.128 239.824 959.609 176.79 959.609 176.79Z" fill="white"/>
<path d="M1276.56 357.084C1276.56 357.084 1252.91 244.289 1170.78 196.871C1088.65 149.453 979.141 185.368 979.141 185.368C979.141 185.368 1002.79 298.163 1084.92 345.581C1167.05 392.999 1276.56 357.084 1276.56 357.084Z" fill="white"/>
<path d="M1535.97 615.423C1535.97 615.423 1542.32 500.35 1475.26 433.291C1408.2 366.232 1293.13 372.58 1293.13 372.58C1293.13 372.58 1286.78 487.653 1353.84 554.712C1420.9 621.772 1535.97 615.423 1535.97 615.423Z" fill="white"/>
<path d="M605.659 85.8579C605.659 85.8579 528.779 -5.48363e-06 433.943 -5.48363e-06C339.107 -5.48363e-06 262.228 85.8579 262.228 85.8579C262.228 85.8579 339.107 171.716 433.943 171.716C528.779 171.716 605.659 85.8579 605.659 85.8579Z" fill="white"/>
<path d="M-90.9248 179.652C-90.9248 179.652 -38.8863 76.8212 52.7182 52.2758C144.323 27.7305 240.805 90.7649 240.805 90.7649C240.805 90.7649 188.766 193.595 97.1615 218.141C5.55698 242.686 -90.9248 179.652 -90.9248 179.652Z" fill="white"/>
<path d="M-112.687 578.11C-112.687 578.11 15.4463 435.013 173.506 435.013C331.566 435.013 459.699 578.11 459.699 578.11C459.699 578.11 331.566 721.207 173.506 721.207C15.4463 721.207 -112.687 578.11 -112.687 578.11Z" fill="white"/>
<circle cx="173.507" cy="578.113" r="143.097" fill="#FF0000"/>
<path d="M174.006 435.013C174.006 435.013 235.333 499.08 235.333 578.11C235.333 657.14 174.006 721.207 174.006 721.207C174.006 721.207 112.679 657.14 112.679 578.11C112.679 499.08 174.006 435.013 174.006 435.013Z" fill="#7B1979"/>
</g>
</g>
<defs>
<clipPath id="clip0_321_2">
<rect width="1280" height="720" fill="white"/>
</clipPath>
</defs>
</svg>
