<svg width="1280" height="720" viewBox="0 0 1280 720" fill="none" xmlns="http://www.w3.org/2000/svg">
<rect width="1280" height="720" fill="#34C759"/>
<path d="M131.375 357.562C124.25 357.562 118.021 356.521 112.688 354.438C107.396 352.312 103.229 349.292 100.188 345.375C97.1458 341.417 95.4375 336.667 95.0625 331.125L95 330.125H112.812L112.938 330.812C113.354 333.146 114.396 335.167 116.062 336.875C117.771 338.542 119.979 339.854 122.688 340.812C125.396 341.729 128.458 342.188 131.875 342.188C135.375 342.188 138.375 341.729 140.875 340.812C143.417 339.854 145.375 338.521 146.75 336.812C148.167 335.062 148.875 333.042 148.875 330.75V330.688C148.875 327.646 147.667 325.271 145.25 323.562C142.875 321.812 138.875 320.354 133.25 319.188L123.75 317.312C114.875 315.521 108.188 312.5 103.688 308.25C99.1875 304 96.9375 298.479 96.9375 291.688V291.625C96.9375 286.125 98.4167 281.333 101.375 277.25C104.333 273.125 108.396 269.938 113.562 267.688C118.729 265.396 124.646 264.25 131.312 264.25C138.271 264.25 144.271 265.333 149.312 267.5C154.396 269.667 158.354 272.729 161.188 276.688C164.021 280.646 165.583 285.25 165.875 290.5L165.938 291.688H148.125L148.062 290.938C147.729 288.562 146.833 286.542 145.375 284.875C143.917 283.167 141.979 281.854 139.562 280.938C137.188 280.021 134.438 279.562 131.312 279.562C128.104 279.562 125.333 280.042 123 281C120.667 281.917 118.875 283.188 117.625 284.812C116.417 286.438 115.812 288.333 115.812 290.5V290.562C115.812 293.396 117.021 295.688 119.438 297.438C121.854 299.188 125.646 300.583 130.812 301.625L140.375 303.562C146.667 304.812 151.833 306.542 155.875 308.75C159.917 310.958 162.896 313.75 164.812 317.125C166.771 320.458 167.75 324.479 167.75 329.188V329.25C167.75 335.042 166.292 340.062 163.375 344.312C160.5 348.521 156.333 351.792 150.875 354.125C145.458 356.417 138.958 357.562 131.375 357.562ZM208.5 357.375C201.708 357.375 195.833 355.979 190.875 353.188C185.917 350.396 182.083 346.396 179.375 341.188C176.667 335.979 175.312 329.75 175.312 322.5V322.375C175.312 315.167 176.688 308.979 179.438 303.812C182.188 298.604 186.042 294.604 191 291.812C195.958 289.021 201.771 287.625 208.438 287.625C215.146 287.625 220.979 289.021 225.938 291.812C230.938 294.562 234.812 298.542 237.562 303.75C240.312 308.917 241.688 315.125 241.688 322.375V322.5C241.688 329.792 240.312 336.042 237.562 341.25C234.854 346.458 231.021 350.458 226.062 353.25C221.104 356 215.25 357.375 208.5 357.375ZM208.562 343.062C211.521 343.062 214.083 342.271 216.25 340.688C218.458 339.062 220.146 336.729 221.312 333.688C222.521 330.604 223.125 326.875 223.125 322.5V322.375C223.125 318.042 222.521 314.354 221.312 311.312C220.104 308.271 218.396 305.958 216.188 304.375C213.979 302.75 211.396 301.938 208.438 301.938C205.521 301.938 202.958 302.75 200.75 304.375C198.583 305.958 196.896 308.271 195.688 311.312C194.479 314.354 193.875 318.042 193.875 322.375V322.5C193.875 326.875 194.458 330.604 195.625 333.688C196.833 336.729 198.542 339.062 200.75 340.688C202.958 342.271 205.562 343.062 208.562 343.062ZM251.125 356V289H269.375V300.688H269.75C270.75 296.562 272.562 293.354 275.188 291.062C277.812 288.771 281.083 287.625 285 287.625C286 287.625 286.958 287.688 287.875 287.812C288.792 287.938 289.583 288.104 290.25 288.312V304.375C289.5 304.083 288.542 303.854 287.375 303.688C286.208 303.479 284.958 303.375 283.625 303.375C280.625 303.375 278.062 303.958 275.938 305.125C273.812 306.292 272.188 308 271.062 310.25C269.938 312.5 269.375 315.25 269.375 318.5V356H251.125ZM326.875 357.375C319.458 357.375 313.958 355.812 310.375 352.688C306.792 349.562 305 344.417 305 337.25V302.75H295.688V289H305V272.625H323.438V289H335.688V302.75H323.438V335.25C323.438 338.375 324.125 340.562 325.5 341.812C326.917 343.021 329 343.625 331.75 343.625C332.583 343.625 333.312 343.604 333.938 343.562C334.562 343.479 335.146 343.396 335.688 343.312V356.688C334.688 356.854 333.438 357 331.938 357.125C330.479 357.292 328.792 357.375 326.875 357.375ZM346.125 356V289H364.375V356H346.125ZM355.25 280.375C352.5 280.375 350.188 279.438 348.312 277.562C346.438 275.688 345.5 273.458 345.5 270.875C345.5 268.25 346.438 266.021 348.312 264.188C350.188 262.312 352.5 261.375 355.25 261.375C358 261.375 360.312 262.312 362.188 264.188C364.062 266.021 365 268.25 365 270.875C365 273.458 364.062 275.688 362.188 277.562C360.312 279.438 358 280.375 355.25 280.375ZM376.625 356V289H394.875V300H395.25C397 296.167 399.583 293.146 403 290.938C406.417 288.729 410.646 287.625 415.688 287.625C423.062 287.625 428.75 289.854 432.75 294.312C436.792 298.729 438.812 304.875 438.812 312.75V356H420.562V316.5C420.562 312.125 419.521 308.75 417.438 306.375C415.396 303.958 412.333 302.75 408.25 302.75C405.542 302.75 403.188 303.375 401.188 304.625C399.188 305.833 397.625 307.542 396.5 309.75C395.417 311.958 394.875 314.542 394.875 317.5V356H376.625ZM481.688 379.25C475.562 379.25 470.208 378.396 465.625 376.688C461.083 375.021 457.458 372.75 454.75 369.875C452.083 367 450.458 363.771 449.875 360.188L449.812 359.625H467.562L467.75 360.062C468.5 361.688 470.062 363.125 472.438 364.375C474.812 365.625 477.896 366.25 481.688 366.25C486.396 366.25 489.979 365.125 492.438 362.875C494.896 360.625 496.125 357.625 496.125 353.875V343.625H495.75C494.583 345.958 493 347.979 491 349.688C489 351.396 486.646 352.729 483.938 353.688C481.271 354.604 478.312 355.062 475.062 355.062C469.479 355.062 464.646 353.729 460.562 351.062C456.521 348.396 453.396 344.583 451.188 339.625C449.021 334.625 447.938 328.667 447.938 321.75V321.688C447.938 314.562 449.042 308.458 451.25 303.375C453.5 298.292 456.667 294.396 460.75 291.688C464.833 288.979 469.708 287.625 475.375 287.625C478.542 287.625 481.438 288.146 484.062 289.188C486.688 290.229 488.979 291.708 490.938 293.625C492.938 295.542 494.542 297.812 495.75 300.438H496.125V289H514.375V354.125C514.375 359.083 513.042 363.438 510.375 367.188C507.75 370.979 503.979 373.938 499.062 376.062C494.188 378.188 488.396 379.25 481.688 379.25ZM481.375 341.688C484.375 341.688 486.979 340.896 489.188 339.312C491.396 337.729 493.104 335.479 494.312 332.562C495.562 329.646 496.188 326.188 496.188 322.188V322.125C496.188 318.125 495.562 314.688 494.312 311.812C493.104 308.896 491.375 306.667 489.125 305.125C486.917 303.542 484.333 302.75 481.375 302.75C478.375 302.75 475.75 303.542 473.5 305.125C471.25 306.667 469.521 308.875 468.312 311.75C467.104 314.625 466.5 318.083 466.5 322.125V322.188C466.5 326.188 467.104 329.646 468.312 332.562C469.521 335.479 471.25 337.729 473.5 339.312C475.75 340.896 478.375 341.688 481.375 341.688ZM547.562 356L579.062 265.812H595.688V283.312H589.938L567.375 356H547.562ZM564.5 334.125L569.125 320H611.188L615.812 334.125H564.5ZM612.875 356L590.312 283.312V265.812H601.25L632.688 356H612.875ZM640.812 356V265.812H659.062V356H640.812ZM702.688 379.25C696.562 379.25 691.208 378.396 686.625 376.688C682.083 375.021 678.458 372.75 675.75 369.875C673.083 367 671.458 363.771 670.875 360.188L670.812 359.625H688.562L688.75 360.062C689.5 361.688 691.062 363.125 693.438 364.375C695.812 365.625 698.896 366.25 702.688 366.25C707.396 366.25 710.979 365.125 713.438 362.875C715.896 360.625 717.125 357.625 717.125 353.875V343.625H716.75C715.583 345.958 714 347.979 712 349.688C710 351.396 707.646 352.729 704.938 353.688C702.271 354.604 699.312 355.062 696.062 355.062C690.479 355.062 685.646 353.729 681.562 351.062C677.521 348.396 674.396 344.583 672.188 339.625C670.021 334.625 668.938 328.667 668.938 321.75V321.688C668.938 314.562 670.042 308.458 672.25 303.375C674.5 298.292 677.667 294.396 681.75 291.688C685.833 288.979 690.708 287.625 696.375 287.625C699.542 287.625 702.438 288.146 705.062 289.188C707.688 290.229 709.979 291.708 711.938 293.625C713.938 295.542 715.542 297.812 716.75 300.438H717.125V289H735.375V354.125C735.375 359.083 734.042 363.438 731.375 367.188C728.75 370.979 724.979 373.938 720.062 376.062C715.188 378.188 709.396 379.25 702.688 379.25ZM702.375 341.688C705.375 341.688 707.979 340.896 710.188 339.312C712.396 337.729 714.104 335.479 715.312 332.562C716.562 329.646 717.188 326.188 717.188 322.188V322.125C717.188 318.125 716.562 314.688 715.312 311.812C714.104 308.896 712.375 306.667 710.125 305.125C707.917 303.542 705.333 302.75 702.375 302.75C699.375 302.75 696.75 303.542 694.5 305.125C692.25 306.667 690.521 308.875 689.312 311.75C688.104 314.625 687.5 318.083 687.5 322.125V322.188C687.5 326.188 688.104 329.646 689.312 332.562C690.521 335.479 692.25 337.729 694.5 339.312C696.75 340.896 699.375 341.688 702.375 341.688ZM778.125 357.375C771.333 357.375 765.458 355.979 760.5 353.188C755.542 350.396 751.708 346.396 749 341.188C746.292 335.979 744.938 329.75 744.938 322.5V322.375C744.938 315.167 746.312 308.979 749.062 303.812C751.812 298.604 755.667 294.604 760.625 291.812C765.583 289.021 771.396 287.625 778.062 287.625C784.771 287.625 790.604 289.021 795.562 291.812C800.562 294.562 804.438 298.542 807.188 303.75C809.938 308.917 811.312 315.125 811.312 322.375V322.5C811.312 329.792 809.938 336.042 807.188 341.25C804.479 346.458 800.646 350.458 795.688 353.25C790.729 356 784.875 357.375 778.125 357.375ZM778.188 343.062C781.146 343.062 783.708 342.271 785.875 340.688C788.083 339.062 789.771 336.729 790.938 333.688C792.146 330.604 792.75 326.875 792.75 322.5V322.375C792.75 318.042 792.146 314.354 790.938 311.312C789.729 308.271 788.021 305.958 785.812 304.375C783.604 302.75 781.021 301.938 778.062 301.938C775.146 301.938 772.583 302.75 770.375 304.375C768.208 305.958 766.521 308.271 765.312 311.312C764.104 314.354 763.5 318.042 763.5 322.375V322.5C763.5 326.875 764.083 330.604 765.25 333.688C766.458 336.729 768.167 339.062 770.375 340.688C772.583 342.271 775.188 343.062 778.188 343.062ZM820.75 356V289H839V300.688H839.375C840.375 296.562 842.188 293.354 844.812 291.062C847.438 288.771 850.708 287.625 854.625 287.625C855.625 287.625 856.583 287.688 857.5 287.812C858.417 287.938 859.208 288.104 859.875 288.312V304.375C859.125 304.083 858.167 303.854 857 303.688C855.833 303.479 854.583 303.375 853.25 303.375C850.25 303.375 847.688 303.958 845.562 305.125C843.438 306.292 841.812 308 840.688 310.25C839.562 312.5 839 315.25 839 318.5V356H820.75ZM867.75 356V289H886V356H867.75ZM876.875 280.375C874.125 280.375 871.812 279.438 869.938 277.562C868.062 275.688 867.125 273.458 867.125 270.875C867.125 268.25 868.062 266.021 869.938 264.188C871.812 262.312 874.125 261.375 876.875 261.375C879.625 261.375 881.938 262.312 883.812 264.188C885.688 266.021 886.625 268.25 886.625 270.875C886.625 273.458 885.688 275.688 883.812 277.562C881.938 279.438 879.625 280.375 876.875 280.375ZM924.875 357.375C917.458 357.375 911.958 355.812 908.375 352.688C904.792 349.562 903 344.417 903 337.25V302.75H893.688V289H903V272.625H921.438V289H933.688V302.75H921.438V335.25C921.438 338.375 922.125 340.562 923.5 341.812C924.917 343.021 927 343.625 929.75 343.625C930.583 343.625 931.312 343.604 931.938 343.562C932.562 343.479 933.146 343.396 933.688 343.312V356.688C932.688 356.854 931.438 357 929.938 357.125C928.479 357.292 926.792 357.375 924.875 357.375ZM944.188 356V265.812H962.438V300.562H962.812C964.562 296.396 967.167 293.208 970.625 291C974.125 288.75 978.375 287.625 983.375 287.625C988.25 287.625 992.438 288.708 995.938 290.875C999.438 293 1002.12 296.021 1004 299.938C1005.92 303.854 1006.88 308.521 1006.88 313.938V356H988.625V317.688C988.625 313.021 987.5 309.375 985.25 306.75C983.042 304.083 979.854 302.75 975.688 302.75C973.021 302.75 970.688 303.396 968.688 304.688C966.729 305.938 965.188 307.688 964.062 309.938C962.979 312.146 962.438 314.708 962.438 317.625V356H944.188ZM1018.62 356V289H1036.88V300.25H1037.25C1038.62 296.417 1040.96 293.354 1044.25 291.062C1047.58 288.771 1051.5 287.625 1056 287.625C1059.12 287.625 1061.94 288.167 1064.44 289.25C1066.94 290.333 1069.04 291.896 1070.75 293.938C1072.5 295.979 1073.73 298.479 1074.44 301.438H1074.81C1075.81 298.604 1077.31 296.167 1079.31 294.125C1081.35 292.042 1083.75 290.438 1086.5 289.312C1089.29 288.188 1092.33 287.625 1095.62 287.625C1100 287.625 1103.83 288.562 1107.12 290.438C1110.42 292.312 1112.98 294.938 1114.81 298.312C1116.65 301.688 1117.56 305.646 1117.56 310.188V356H1099.31V314.75C1099.31 312.167 1098.88 309.979 1098 308.188C1097.17 306.396 1095.94 305.042 1094.31 304.125C1092.73 303.208 1090.75 302.75 1088.38 302.75C1086.08 302.75 1084.06 303.271 1082.31 304.312C1080.6 305.354 1079.27 306.812 1078.31 308.688C1077.35 310.562 1076.88 312.75 1076.88 315.25V356H1059.31V314.188C1059.31 311.771 1058.88 309.708 1058 308C1057.12 306.292 1055.88 305 1054.25 304.125C1052.67 303.208 1050.75 302.75 1048.5 302.75C1046.21 302.75 1044.19 303.292 1042.44 304.375C1040.69 305.458 1039.31 306.958 1038.31 308.875C1037.35 310.792 1036.88 313.021 1036.88 315.562V356H1018.62ZM1156.69 357.375C1150.52 357.375 1145.27 356.479 1140.94 354.688C1136.6 352.896 1133.21 350.417 1130.75 347.25C1128.33 344.042 1126.88 340.333 1126.38 336.125L1126.31 335.562H1144.12L1144.25 336.125C1144.83 338.75 1146.15 340.792 1148.19 342.25C1150.23 343.708 1153.06 344.438 1156.69 344.438C1159.02 344.438 1161 344.167 1162.62 343.625C1164.25 343.042 1165.5 342.229 1166.38 341.188C1167.29 340.146 1167.75 338.896 1167.75 337.438V337.375C1167.75 335.583 1167.1 334.146 1165.81 333.062C1164.52 331.979 1162.23 331.062 1158.94 330.312L1147.56 327.938C1143.23 327.021 1139.6 325.708 1136.69 324C1133.81 322.25 1131.65 320.104 1130.19 317.562C1128.73 314.979 1128 312.021 1128 308.688V308.625C1128 304.333 1129.15 300.625 1131.44 297.5C1133.73 294.375 1136.98 291.958 1141.19 290.25C1145.44 288.5 1150.4 287.625 1156.06 287.625C1161.98 287.625 1167 288.583 1171.12 290.5C1175.29 292.375 1178.48 294.917 1180.69 298.125C1182.94 301.333 1184.12 304.896 1184.25 308.812V309.438H1167.44L1167.38 308.938C1167.08 306.521 1165.96 304.521 1164 302.938C1162.08 301.312 1159.44 300.5 1156.06 300.5C1153.98 300.5 1152.17 300.792 1150.62 301.375C1149.08 301.958 1147.9 302.792 1147.06 303.875C1146.23 304.917 1145.81 306.167 1145.81 307.625V307.688C1145.81 308.812 1146.08 309.833 1146.62 310.75C1147.21 311.625 1148.17 312.396 1149.5 313.062C1150.83 313.729 1152.62 314.312 1154.88 314.812L1166.25 317.25C1173.29 318.708 1178.33 320.896 1181.38 323.812C1184.46 326.729 1186 330.646 1186 335.562V335.625C1186 340 1184.75 343.812 1182.25 347.062C1179.75 350.312 1176.29 352.854 1171.88 354.688C1167.5 356.479 1162.44 357.375 1156.69 357.375Z" fill="white"/>
<path d="M346.914 659.562C343.789 659.562 341.062 658.844 338.734 657.406C336.422 655.969 334.633 653.945 333.367 651.336C332.102 648.711 331.469 645.625 331.469 642.078V642.055C331.469 638.508 332.102 635.43 333.367 632.82C334.633 630.211 336.422 628.195 338.734 626.773C341.047 625.336 343.773 624.617 346.914 624.617C349.258 624.617 351.391 625.062 353.312 625.953C355.234 626.844 356.836 628.086 358.117 629.68C359.414 631.273 360.273 633.141 360.695 635.281L360.742 635.516H356.477L356.312 635C355.875 633.625 355.219 632.461 354.344 631.508C353.484 630.539 352.43 629.797 351.18 629.281C349.93 628.766 348.508 628.508 346.914 628.508C344.664 628.508 342.703 629.07 341.031 630.195C339.375 631.305 338.086 632.875 337.164 634.906C336.258 636.922 335.805 639.305 335.805 642.055V642.078C335.805 644.812 336.258 647.203 337.164 649.25C338.086 651.281 339.383 652.859 341.055 653.984C342.727 655.109 344.68 655.672 346.914 655.672C348.492 655.672 349.898 655.414 351.133 654.898C352.383 654.383 353.453 653.625 354.344 652.625C355.234 651.609 355.922 650.359 356.406 648.875L356.477 648.664H360.742L360.695 648.898C360.273 651.055 359.422 652.938 358.141 654.547C356.859 656.141 355.258 657.375 353.336 658.25C351.414 659.125 349.273 659.562 346.914 659.562ZM375.203 659.469C372.953 659.469 370.977 658.953 369.273 657.922C367.586 656.891 366.266 655.43 365.312 653.539C364.375 651.633 363.906 649.391 363.906 646.812V646.766C363.906 644.172 364.375 641.938 365.312 640.062C366.266 638.172 367.586 636.719 369.273 635.703C370.977 634.672 372.945 634.156 375.18 634.156C377.43 634.156 379.398 634.672 381.086 635.703C382.789 636.719 384.109 638.172 385.047 640.062C386 641.938 386.477 644.172 386.477 646.766V646.812C386.477 649.406 386 651.648 385.047 653.539C384.109 655.43 382.797 656.891 381.109 657.922C379.422 658.953 377.453 659.469 375.203 659.469ZM375.227 655.859C376.664 655.859 377.906 655.508 378.953 654.805C380.016 654.086 380.836 653.055 381.414 651.711C382.008 650.352 382.305 648.719 382.305 646.812V646.766C382.305 644.859 382.008 643.234 381.414 641.891C380.836 640.547 380.008 639.523 378.93 638.82C377.867 638.117 376.617 637.766 375.18 637.766C373.773 637.766 372.531 638.125 371.453 638.844C370.391 639.547 369.562 640.57 368.969 641.914C368.375 643.242 368.078 644.859 368.078 646.766V646.812C368.078 648.719 368.375 650.352 368.969 651.711C369.562 653.055 370.391 654.086 371.453 654.805C372.531 655.508 373.789 655.859 375.227 655.859ZM390.602 659V634.625H394.68V638.188H394.773C395.32 636.984 396.18 636.016 397.352 635.281C398.523 634.531 399.891 634.156 401.453 634.156C402.562 634.156 403.562 634.344 404.453 634.719C405.359 635.078 406.141 635.609 406.797 636.312C407.453 637 407.953 637.844 408.297 638.844H408.391C408.844 637.859 409.445 637.023 410.195 636.336C410.961 635.633 411.836 635.094 412.82 634.719C413.82 634.344 414.891 634.156 416.031 634.156C417.641 634.156 419.039 634.492 420.227 635.164C421.414 635.82 422.336 636.75 422.992 637.953C423.648 639.141 423.977 640.547 423.977 642.172V659H419.898V643.109C419.898 641.984 419.695 641.023 419.289 640.227C418.898 639.43 418.328 638.82 417.578 638.398C416.828 637.977 415.914 637.766 414.836 637.766C413.758 637.766 412.805 638.016 411.977 638.516C411.148 639 410.5 639.68 410.031 640.555C409.562 641.414 409.328 642.398 409.328 643.508V659H405.25V642.664C405.25 641.68 405.039 640.82 404.617 640.086C404.211 639.352 403.633 638.781 402.883 638.375C402.148 637.969 401.273 637.766 400.258 637.766C399.18 637.766 398.219 638.031 397.375 638.562C396.547 639.078 395.891 639.781 395.406 640.672C394.922 641.562 394.68 642.578 394.68 643.719V659H390.602ZM429.18 667.203V634.625H433.258V638.75H433.352C433.867 637.797 434.5 636.984 435.25 636.312C436.016 635.625 436.891 635.094 437.875 634.719C438.859 634.344 439.93 634.156 441.086 634.156C443.164 634.156 444.977 634.68 446.523 635.727C448.086 636.758 449.297 638.227 450.156 640.133C451.016 642.023 451.445 644.25 451.445 646.812V646.836C451.445 649.398 451.008 651.625 450.133 653.516C449.273 655.406 448.07 656.875 446.523 657.922C444.992 658.953 443.203 659.469 441.156 659.469C440.016 659.469 438.945 659.289 437.945 658.93C436.945 658.555 436.055 658.031 435.273 657.359C434.508 656.672 433.867 655.859 433.352 654.922H433.258V667.203H429.18ZM440.289 655.859C441.727 655.859 442.969 655.492 444.016 654.758C445.062 654.023 445.867 652.984 446.43 651.641C446.992 650.281 447.273 648.68 447.273 646.836V646.812C447.273 644.938 446.992 643.328 446.43 641.984C445.867 640.625 445.062 639.586 444.016 638.867C442.969 638.133 441.727 637.766 440.289 637.766C438.914 637.766 437.695 638.141 436.633 638.891C435.57 639.641 434.734 640.695 434.125 642.055C433.531 643.398 433.234 644.984 433.234 646.812V646.836C433.234 648.648 433.539 650.234 434.148 651.594C434.758 652.938 435.586 653.984 436.633 654.734C437.695 655.484 438.914 655.859 440.289 655.859ZM463.891 659.469C462.109 659.469 460.586 659.102 459.32 658.367C458.07 657.633 457.109 656.594 456.438 655.25C455.781 653.891 455.453 652.289 455.453 650.445V634.625H459.531V649.719C459.531 651.703 459.992 653.227 460.914 654.289C461.852 655.336 463.258 655.859 465.133 655.859C466.102 655.859 466.969 655.695 467.734 655.367C468.516 655.039 469.188 654.578 469.75 653.984C470.312 653.375 470.742 652.648 471.039 651.805C471.336 650.945 471.484 650 471.484 648.969V634.625H475.562V659H471.484V655.531H471.391C470.953 656.281 470.383 656.953 469.68 657.547C468.992 658.141 468.164 658.609 467.195 658.953C466.227 659.297 465.125 659.469 463.891 659.469ZM488.805 659.469C486.57 659.469 484.898 658.938 483.789 657.875C482.68 656.812 482.125 655.117 482.125 652.789V638H478.562V634.625H482.125V628.039H486.344V634.625H490.984V638H486.344V652.766C486.344 654.062 486.625 654.945 487.188 655.414C487.75 655.867 488.578 656.094 489.672 656.094C489.922 656.094 490.156 656.086 490.375 656.07C490.609 656.039 490.812 656.016 490.984 656V659.305C490.734 659.336 490.406 659.367 490 659.398C489.609 659.445 489.211 659.469 488.805 659.469ZM504.695 659.469C502.367 659.469 500.359 658.953 498.672 657.922C497 656.891 495.711 655.438 494.805 653.562C493.914 651.672 493.469 649.453 493.469 646.906V646.883C493.469 644.367 493.922 642.156 494.828 640.25C495.734 638.328 497.008 636.836 498.648 635.773C500.289 634.695 502.219 634.156 504.438 634.156C506.656 634.156 508.562 634.672 510.156 635.703C511.766 636.719 513 638.148 513.859 639.992C514.719 641.836 515.148 643.977 515.148 646.414V647.914H495.508V644.727H513.133L511.07 647.68V646.109C511.07 644.219 510.781 642.656 510.203 641.422C509.641 640.188 508.859 639.273 507.859 638.68C506.859 638.07 505.711 637.766 504.414 637.766C503.117 637.766 501.953 638.086 500.922 638.727C499.891 639.352 499.078 640.289 498.484 641.539C497.891 642.773 497.594 644.297 497.594 646.109V647.68C497.594 649.398 497.883 650.867 498.461 652.086C499.055 653.305 499.891 654.242 500.969 654.898C502.047 655.539 503.32 655.859 504.789 655.859C505.82 655.859 506.742 655.703 507.555 655.391C508.367 655.078 509.047 654.648 509.594 654.102C510.141 653.555 510.531 652.93 510.766 652.227L510.836 652.016H514.844L514.797 652.25C514.594 653.25 514.203 654.188 513.625 655.062C513.062 655.938 512.336 656.711 511.445 657.383C510.555 658.039 509.539 658.555 508.398 658.93C507.258 659.289 506.023 659.469 504.695 659.469ZM519.273 659V634.625H523.352V638.75H523.445C523.852 637.344 524.555 636.227 525.555 635.398C526.555 634.57 527.742 634.156 529.117 634.156C529.477 634.156 529.797 634.18 530.078 634.227C530.375 634.258 530.602 634.289 530.758 634.32V638.281C530.602 638.219 530.32 638.164 529.914 638.117C529.523 638.07 529.078 638.047 528.578 638.047C527.531 638.047 526.609 638.281 525.812 638.75C525.031 639.219 524.422 639.898 523.984 640.789C523.562 641.664 523.352 642.719 523.352 643.953V659H519.273ZM555.625 659.562C553.188 659.562 551.039 659.188 549.18 658.438C547.336 657.672 545.867 656.586 544.773 655.18C543.695 653.773 543.086 652.109 542.945 650.188L542.922 649.859H547.141L547.188 650.188C547.359 651.312 547.82 652.289 548.57 653.117C549.32 653.93 550.312 654.562 551.547 655.016C552.797 655.453 554.234 655.672 555.859 655.672C557.484 655.672 558.891 655.445 560.078 654.992C561.266 654.523 562.18 653.859 562.82 653C563.477 652.141 563.805 651.133 563.805 649.977V649.953C563.805 648.469 563.289 647.281 562.258 646.391C561.227 645.5 559.547 644.797 557.219 644.281L553.469 643.461C550.172 642.727 547.727 641.602 546.133 640.086C544.555 638.555 543.766 636.555 543.766 634.086V634.062C543.781 632.203 544.297 630.57 545.312 629.164C546.328 627.742 547.727 626.633 549.508 625.836C551.305 625.023 553.359 624.617 555.672 624.617C557.875 624.617 559.844 625.016 561.578 625.812C563.312 626.594 564.695 627.688 565.727 629.094C566.773 630.5 567.359 632.125 567.484 633.969L567.508 634.32H563.289L563.242 633.992C563.07 632.836 562.648 631.852 561.977 631.039C561.305 630.227 560.422 629.602 559.328 629.164C558.25 628.727 556.992 628.508 555.555 628.508C554.055 628.508 552.742 628.734 551.617 629.188C550.492 629.641 549.617 630.273 548.992 631.086C548.383 631.898 548.078 632.852 548.078 633.945V633.969C548.078 635.344 548.602 636.477 549.648 637.367C550.695 638.258 552.32 638.945 554.523 639.43L558.273 640.25C560.586 640.75 562.461 641.414 563.898 642.242C565.352 643.07 566.414 644.102 567.086 645.336C567.773 646.555 568.117 648.023 568.117 649.742V649.766C568.117 651.766 567.609 653.5 566.594 654.969C565.594 656.438 564.156 657.57 562.281 658.367C560.422 659.164 558.203 659.562 555.625 659.562ZM582.531 659.469C580.234 659.469 578.234 658.953 576.531 657.922C574.844 656.875 573.539 655.406 572.617 653.516C571.695 651.609 571.234 649.367 571.234 646.789V646.766C571.234 644.203 571.703 641.977 572.641 640.086C573.578 638.195 574.891 636.734 576.578 635.703C578.266 634.672 580.234 634.156 582.484 634.156C584.516 634.156 586.258 634.555 587.711 635.352C589.164 636.133 590.305 637.148 591.133 638.398C591.977 639.648 592.484 640.969 592.656 642.359L592.68 642.547H588.695L588.648 642.359C588.352 641.141 587.695 640.07 586.68 639.148C585.68 638.227 584.281 637.766 582.484 637.766C581.078 637.766 579.844 638.141 578.781 638.891C577.719 639.625 576.891 640.672 576.297 642.031C575.703 643.375 575.406 644.969 575.406 646.812V646.836C575.406 648.727 575.703 650.344 576.297 651.688C576.906 653.031 577.742 654.062 578.805 654.781C579.883 655.5 581.125 655.859 582.531 655.859C584.203 655.859 585.555 655.438 586.586 654.594C587.633 653.734 588.328 652.625 588.672 651.266L588.719 651.078H592.727L592.703 651.242C592.484 652.789 591.914 654.188 590.992 655.438C590.086 656.672 588.906 657.656 587.453 658.391C586.016 659.109 584.375 659.469 582.531 659.469ZM596.734 659V634.625H600.812V659H596.734ZM598.773 630.5C598.07 630.5 597.469 630.25 596.969 629.75C596.469 629.25 596.219 628.648 596.219 627.945C596.219 627.227 596.469 626.625 596.969 626.141C597.469 625.641 598.07 625.391 598.773 625.391C599.492 625.391 600.094 625.641 600.578 626.141C601.078 626.625 601.328 627.227 601.328 627.945C601.328 628.648 601.078 629.25 600.578 629.75C600.094 630.25 599.492 630.5 598.773 630.5ZM616.398 659.469C614.07 659.469 612.062 658.953 610.375 657.922C608.703 656.891 607.414 655.438 606.508 653.562C605.617 651.672 605.172 649.453 605.172 646.906V646.883C605.172 644.367 605.625 642.156 606.531 640.25C607.438 638.328 608.711 636.836 610.352 635.773C611.992 634.695 613.922 634.156 616.141 634.156C618.359 634.156 620.266 634.672 621.859 635.703C623.469 636.719 624.703 638.148 625.562 639.992C626.422 641.836 626.852 643.977 626.852 646.414V647.914H607.211V644.727H624.836L622.773 647.68V646.109C622.773 644.219 622.484 642.656 621.906 641.422C621.344 640.188 620.562 639.273 619.562 638.68C618.562 638.07 617.414 637.766 616.117 637.766C614.82 637.766 613.656 638.086 612.625 638.727C611.594 639.352 610.781 640.289 610.188 641.539C609.594 642.773 609.297 644.297 609.297 646.109V647.68C609.297 649.398 609.586 650.867 610.164 652.086C610.758 653.305 611.594 654.242 612.672 654.898C613.75 655.539 615.023 655.859 616.492 655.859C617.523 655.859 618.445 655.703 619.258 655.391C620.07 655.078 620.75 654.648 621.297 654.102C621.844 653.555 622.234 652.93 622.469 652.227L622.539 652.016H626.547L626.5 652.25C626.297 653.25 625.906 654.188 625.328 655.062C624.766 655.938 624.039 656.711 623.148 657.383C622.258 658.039 621.242 658.555 620.102 658.93C618.961 659.289 617.727 659.469 616.398 659.469ZM630.977 659V634.625H635.055V638.094H635.148C635.805 636.953 636.758 636.016 638.008 635.281C639.258 634.531 640.805 634.156 642.648 634.156C645.32 634.156 647.391 634.969 648.859 636.594C650.344 638.203 651.086 640.398 651.086 643.18V659H647.008V643.906C647.008 641.922 646.539 640.406 645.602 639.359C644.68 638.297 643.281 637.766 641.406 637.766C640.125 637.766 639.008 638.055 638.055 638.633C637.102 639.195 636.359 639.992 635.828 641.023C635.312 642.055 635.055 643.266 635.055 644.656V659H630.977ZM666.391 659.469C664.094 659.469 662.094 658.953 660.391 657.922C658.703 656.875 657.398 655.406 656.477 653.516C655.555 651.609 655.094 649.367 655.094 646.789V646.766C655.094 644.203 655.562 641.977 656.5 640.086C657.438 638.195 658.75 636.734 660.438 635.703C662.125 634.672 664.094 634.156 666.344 634.156C668.375 634.156 670.117 634.555 671.57 635.352C673.023 636.133 674.164 637.148 674.992 638.398C675.836 639.648 676.344 640.969 676.516 642.359L676.539 642.547H672.555L672.508 642.359C672.211 641.141 671.555 640.07 670.539 639.148C669.539 638.227 668.141 637.766 666.344 637.766C664.938 637.766 663.703 638.141 662.641 638.891C661.578 639.625 660.75 640.672 660.156 642.031C659.562 643.375 659.266 644.969 659.266 646.812V646.836C659.266 648.727 659.562 650.344 660.156 651.688C660.766 653.031 661.602 654.062 662.664 654.781C663.742 655.5 664.984 655.859 666.391 655.859C668.062 655.859 669.414 655.438 670.445 654.594C671.492 653.734 672.188 652.625 672.531 651.266L672.578 651.078H676.586L676.562 651.242C676.344 652.789 675.773 654.188 674.852 655.438C673.945 656.672 672.766 657.656 671.312 658.391C669.875 659.109 668.234 659.469 666.391 659.469ZM690.367 659.469C688.039 659.469 686.031 658.953 684.344 657.922C682.672 656.891 681.383 655.438 680.477 653.562C679.586 651.672 679.141 649.453 679.141 646.906V646.883C679.141 644.367 679.594 642.156 680.5 640.25C681.406 638.328 682.68 636.836 684.32 635.773C685.961 634.695 687.891 634.156 690.109 634.156C692.328 634.156 694.234 634.672 695.828 635.703C697.438 636.719 698.672 638.148 699.531 639.992C700.391 641.836 700.82 643.977 700.82 646.414V647.914H681.18V644.727H698.805L696.742 647.68V646.109C696.742 644.219 696.453 642.656 695.875 641.422C695.312 640.188 694.531 639.273 693.531 638.68C692.531 638.07 691.383 637.766 690.086 637.766C688.789 637.766 687.625 638.086 686.594 638.727C685.562 639.352 684.75 640.289 684.156 641.539C683.562 642.773 683.266 644.297 683.266 646.109V647.68C683.266 649.398 683.555 650.867 684.133 652.086C684.727 653.305 685.562 654.242 686.641 654.898C687.719 655.539 688.992 655.859 690.461 655.859C691.492 655.859 692.414 655.703 693.227 655.391C694.039 655.078 694.719 654.648 695.266 654.102C695.812 653.555 696.203 652.93 696.438 652.227L696.508 652.016H700.516L700.469 652.25C700.266 653.25 699.875 654.188 699.297 655.062C698.734 655.938 698.008 656.711 697.117 657.383C696.227 658.039 695.211 658.555 694.07 658.93C692.93 659.289 691.695 659.469 690.367 659.469ZM715.422 667.203V625.18H719.219V667.203H715.422ZM732.93 659L745.516 625.18H748.633V630.242H747.555L737.359 659H732.93ZM738.695 649.32L740.102 645.734H755.102L756.508 649.32H738.695ZM757.82 659L747.648 630.242V625.18H749.688L762.25 659H757.82ZM765.719 659V625.18H769.797V659H765.719ZM785.617 667.672C783.617 667.672 781.867 667.383 780.367 666.805C778.883 666.242 777.68 665.469 776.758 664.484C775.852 663.516 775.266 662.43 775 661.227L774.953 661.016H779.055L779.148 661.227C779.539 662.102 780.289 662.789 781.398 663.289C782.523 663.805 783.914 664.062 785.57 664.062C787.711 664.062 789.367 663.508 790.539 662.398C791.711 661.305 792.297 659.812 792.297 657.922V654.805H792.203C791.719 655.711 791.094 656.492 790.328 657.148C789.562 657.805 788.68 658.32 787.68 658.695C786.695 659.055 785.617 659.234 784.445 659.234C782.398 659.234 780.594 658.719 779.031 657.688C777.484 656.641 776.273 655.18 775.398 653.305C774.539 651.414 774.109 649.203 774.109 646.672V646.648C774.109 644.117 774.547 641.922 775.422 640.062C776.312 638.188 777.539 636.734 779.102 635.703C780.664 634.672 782.477 634.156 784.539 634.156C785.695 634.156 786.758 634.352 787.727 634.742C788.695 635.133 789.555 635.672 790.305 636.359C791.07 637.047 791.703 637.844 792.203 638.75H792.297V634.625H796.375V658.32C796.375 660.211 795.938 661.852 795.062 663.242C794.188 664.648 792.945 665.734 791.336 666.5C789.727 667.281 787.82 667.672 785.617 667.672ZM785.336 655.625C786.727 655.625 787.938 655.258 788.969 654.523C790.016 653.773 790.828 652.727 791.406 651.383C792 650.039 792.297 648.469 792.297 646.672V646.648C792.297 644.852 792 643.289 791.406 641.961C790.828 640.633 790.016 639.602 788.969 638.867C787.922 638.133 786.711 637.766 785.336 637.766C783.898 637.766 782.648 638.133 781.586 638.867C780.523 639.586 779.703 640.609 779.125 641.938C778.562 643.266 778.281 644.836 778.281 646.648V646.672C778.281 648.516 778.562 650.109 779.125 651.453C779.703 652.781 780.523 653.812 781.586 654.547C782.648 655.266 783.898 655.625 785.336 655.625ZM811.75 659.469C809.5 659.469 807.523 658.953 805.82 657.922C804.133 656.891 802.812 655.43 801.859 653.539C800.922 651.633 800.453 649.391 800.453 646.812V646.766C800.453 644.172 800.922 641.938 801.859 640.062C802.812 638.172 804.133 636.719 805.82 635.703C807.523 634.672 809.492 634.156 811.727 634.156C813.977 634.156 815.945 634.672 817.633 635.703C819.336 636.719 820.656 638.172 821.594 640.062C822.547 641.938 823.023 644.172 823.023 646.766V646.812C823.023 649.406 822.547 651.648 821.594 653.539C820.656 655.43 819.344 656.891 817.656 657.922C815.969 658.953 814 659.469 811.75 659.469ZM811.773 655.859C813.211 655.859 814.453 655.508 815.5 654.805C816.562 654.086 817.383 653.055 817.961 651.711C818.555 650.352 818.852 648.719 818.852 646.812V646.766C818.852 644.859 818.555 643.234 817.961 641.891C817.383 640.547 816.555 639.523 815.477 638.82C814.414 638.117 813.164 637.766 811.727 637.766C810.32 637.766 809.078 638.125 808 638.844C806.938 639.547 806.109 640.57 805.516 641.914C804.922 643.242 804.625 644.859 804.625 646.766V646.812C804.625 648.719 804.922 650.352 805.516 651.711C806.109 653.055 806.938 654.086 808 654.805C809.078 655.508 810.336 655.859 811.773 655.859ZM827.148 659V634.625H831.227V638.75H831.32C831.727 637.344 832.43 636.227 833.43 635.398C834.43 634.57 835.617 634.156 836.992 634.156C837.352 634.156 837.672 634.18 837.953 634.227C838.25 634.258 838.477 634.289 838.633 634.32V638.281C838.477 638.219 838.195 638.164 837.789 638.117C837.398 638.07 836.953 638.047 836.453 638.047C835.406 638.047 834.484 638.281 833.688 638.75C832.906 639.219 832.297 639.898 831.859 640.789C831.438 641.664 831.227 642.719 831.227 643.953V659H827.148ZM842.219 659V634.625H846.297V659H842.219ZM844.258 630.5C843.555 630.5 842.953 630.25 842.453 629.75C841.953 629.25 841.703 628.648 841.703 627.945C841.703 627.227 841.953 626.625 842.453 626.141C842.953 625.641 843.555 625.391 844.258 625.391C844.977 625.391 845.578 625.641 846.062 626.141C846.562 626.625 846.812 627.227 846.812 627.945C846.812 628.648 846.562 629.25 846.062 629.75C845.578 630.25 844.977 630.5 844.258 630.5ZM859.773 659.469C857.539 659.469 855.867 658.938 854.758 657.875C853.648 656.812 853.094 655.117 853.094 652.789V638H849.531V634.625H853.094V628.039H857.312V634.625H861.953V638H857.312V652.766C857.312 654.062 857.594 654.945 858.156 655.414C858.719 655.867 859.547 656.094 860.641 656.094C860.891 656.094 861.125 656.086 861.344 656.07C861.578 656.039 861.781 656.016 861.953 656V659.305C861.703 659.336 861.375 659.367 860.969 659.398C860.578 659.445 860.18 659.469 859.773 659.469ZM866.547 659V625.18H870.625V638.516H870.719C871.375 637.141 872.352 636.07 873.648 635.305C874.945 634.539 876.5 634.156 878.312 634.156C880.047 634.156 881.562 634.578 882.859 635.422C884.172 636.25 885.195 637.406 885.93 638.891C886.664 640.375 887.031 642.102 887.031 644.07V659H882.953V644.773C882.953 642.57 882.422 640.852 881.359 639.617C880.297 638.383 878.812 637.766 876.906 637.766C875.656 637.766 874.555 638.062 873.602 638.656C872.664 639.25 871.93 640.07 871.398 641.117C870.883 642.164 870.625 643.383 870.625 644.773V659H866.547ZM892.211 659V634.625H896.289V638.188H896.383C896.93 636.984 897.789 636.016 898.961 635.281C900.133 634.531 901.5 634.156 903.062 634.156C904.172 634.156 905.172 634.344 906.062 634.719C906.969 635.078 907.75 635.609 908.406 636.312C909.062 637 909.562 637.844 909.906 638.844H910C910.453 637.859 911.055 637.023 911.805 636.336C912.57 635.633 913.445 635.094 914.43 634.719C915.43 634.344 916.5 634.156 917.641 634.156C919.25 634.156 920.648 634.492 921.836 635.164C923.023 635.82 923.945 636.75 924.602 637.953C925.258 639.141 925.586 640.547 925.586 642.172V659H921.508V643.109C921.508 641.984 921.305 641.023 920.898 640.227C920.508 639.43 919.938 638.82 919.188 638.398C918.438 637.977 917.523 637.766 916.445 637.766C915.367 637.766 914.414 638.016 913.586 638.516C912.758 639 912.109 639.68 911.641 640.555C911.172 641.414 910.938 642.398 910.938 643.508V659H906.859V642.664C906.859 641.68 906.648 640.82 906.227 640.086C905.82 639.352 905.242 638.781 904.492 638.375C903.758 637.969 902.883 637.766 901.867 637.766C900.789 637.766 899.828 638.031 898.984 638.562C898.156 639.078 897.5 639.781 897.016 640.672C896.531 641.562 896.289 642.578 896.289 643.719V659H892.211ZM939.438 659.469C937.531 659.469 935.883 659.164 934.492 658.555C933.102 657.945 932 657.094 931.188 656C930.391 654.906 929.906 653.633 929.734 652.18L929.711 651.969H933.789L933.836 652.203C934.086 653.422 934.672 654.375 935.594 655.062C936.516 655.734 937.805 656.07 939.461 656.07C940.57 656.07 941.516 655.93 942.297 655.648C943.078 655.352 943.68 654.938 944.102 654.406C944.523 653.859 944.734 653.219 944.734 652.484V652.461C944.734 651.586 944.469 650.883 943.938 650.352C943.406 649.82 942.445 649.383 941.055 649.039L937.188 648.102C935.656 647.727 934.383 647.242 933.367 646.648C932.367 646.039 931.617 645.297 931.117 644.422C930.617 643.547 930.367 642.523 930.367 641.352V641.328C930.367 639.922 930.742 638.68 931.492 637.602C932.258 636.523 933.312 635.68 934.656 635.07C936.016 634.461 937.57 634.156 939.32 634.156C941.102 634.156 942.648 634.477 943.961 635.117C945.289 635.742 946.328 636.602 947.078 637.695C947.844 638.773 948.273 639.992 948.367 641.352L948.391 641.656H944.5L944.477 641.492C944.32 640.305 943.797 639.352 942.906 638.633C942.031 637.914 940.836 637.555 939.32 637.555C938.336 637.555 937.484 637.703 936.766 638C936.047 638.297 935.492 638.719 935.102 639.266C934.727 639.797 934.539 640.422 934.539 641.141V641.164C934.539 641.711 934.664 642.211 934.914 642.664C935.18 643.102 935.594 643.484 936.156 643.812C936.719 644.141 937.445 644.414 938.336 644.633L942.203 645.57C944.672 646.164 946.406 646.984 947.406 648.031C948.406 649.062 948.906 650.445 948.906 652.18V652.203C948.906 653.625 948.492 654.883 947.664 655.977C946.852 657.07 945.727 657.93 944.289 658.555C942.867 659.164 941.25 659.469 939.438 659.469Z" fill="white"/>
</svg>
