<svg width="1280" height="720" viewBox="0 0 1280 720" fill="none" xmlns="http://www.w3.org/2000/svg">
<rect width="1280" height="720" fill="#34C759"/>
<path d="M139.328 287L162.953 219.359H175.422V232.484H171.109L154.188 287H139.328ZM152.031 270.594L155.5 260H187.047L190.516 270.594H152.031ZM188.312 287L171.391 232.484V219.359H179.594L203.172 287H188.312ZM208.938 287V236.75H222.625V245H222.906C224.219 242.125 226.156 239.859 228.719 238.203C231.281 236.547 234.453 235.719 238.234 235.719C243.766 235.719 248.031 237.391 251.031 240.734C254.062 244.047 255.578 248.656 255.578 254.562V287H241.891V257.375C241.891 254.094 241.109 251.562 239.547 249.781C238.016 247.969 235.719 247.062 232.656 247.062C230.625 247.062 228.859 247.531 227.359 248.469C225.859 249.375 224.688 250.656 223.844 252.312C223.031 253.969 222.625 255.906 222.625 258.125V287H208.938ZM279.203 287.797C275.859 287.797 272.922 287.156 270.391 285.875C267.859 284.562 265.875 282.766 264.438 280.484C263.031 278.172 262.328 275.547 262.328 272.609V272.516C262.328 269.453 263.094 266.844 264.625 264.688C266.156 262.5 268.375 260.781 271.281 259.531C274.188 258.281 277.719 257.516 281.875 257.234L301.469 256.016V264.547L283.938 265.672C281.312 265.828 279.312 266.453 277.938 267.547C276.562 268.609 275.875 270.031 275.875 271.812V271.906C275.875 273.75 276.578 275.203 277.984 276.266C279.391 277.297 281.281 277.812 283.656 277.812C285.688 277.812 287.5 277.422 289.094 276.641C290.719 275.828 291.984 274.734 292.891 273.359C293.828 271.953 294.297 270.375 294.297 268.625V253.391C294.297 251.172 293.594 249.422 292.188 248.141C290.781 246.828 288.734 246.172 286.047 246.172C283.484 246.172 281.453 246.703 279.953 247.766C278.453 248.828 277.531 250.172 277.188 251.797L277.094 252.219H264.578L264.625 251.656C264.875 248.562 265.891 245.812 267.672 243.406C269.484 241 271.984 239.125 275.172 237.781C278.391 236.406 282.203 235.719 286.609 235.719C290.953 235.719 294.719 236.422 297.906 237.828C301.094 239.203 303.562 241.156 305.312 243.688C307.094 246.219 307.984 249.172 307.984 252.547V287H294.297V279.5H294.016C293.078 281.219 291.859 282.703 290.359 283.953C288.891 285.172 287.219 286.125 285.344 286.812C283.469 287.469 281.422 287.797 279.203 287.797ZM317.172 287V219.359H330.859V287H317.172ZM347.969 303.547C346.625 303.547 345.328 303.484 344.078 303.359C342.828 303.234 341.797 303.094 340.984 302.938V292.766C341.484 292.859 342.125 292.953 342.906 293.047C343.688 293.172 344.578 293.234 345.578 293.234C347.641 293.234 349.266 292.891 350.453 292.203C351.641 291.516 352.531 290.328 353.125 288.641L353.734 287L335.969 236.75H351.016L362.359 278.75L360.531 276.031H363.109L361.281 278.75L372.625 236.75H387.062L369.812 287.891C368.5 291.828 366.844 294.938 364.844 297.219C362.875 299.5 360.5 301.125 357.719 302.094C354.938 303.062 351.688 303.547 347.969 303.547ZM412.234 288.031C407.609 288.031 403.672 287.359 400.422 286.016C397.172 284.672 394.625 282.812 392.781 280.438C390.969 278.031 389.875 275.25 389.5 272.094L389.453 271.672H402.812L402.906 272.094C403.344 274.062 404.328 275.594 405.859 276.688C407.391 277.781 409.516 278.328 412.234 278.328C413.984 278.328 415.469 278.125 416.688 277.719C417.906 277.281 418.844 276.672 419.5 275.891C420.188 275.109 420.531 274.172 420.531 273.078V273.031C420.531 271.688 420.047 270.609 419.078 269.797C418.109 268.984 416.391 268.297 413.922 267.734L405.391 265.953C402.141 265.266 399.422 264.281 397.234 263C395.078 261.688 393.453 260.078 392.359 258.172C391.266 256.234 390.719 254.016 390.719 251.516V251.469C390.719 248.25 391.578 245.469 393.297 243.125C395.016 240.781 397.453 238.969 400.609 237.688C403.797 236.375 407.516 235.719 411.766 235.719C416.203 235.719 419.969 236.438 423.062 237.875C426.188 239.281 428.578 241.188 430.234 243.594C431.922 246 432.812 248.672 432.906 251.609V252.078H420.297L420.25 251.703C420.031 249.891 419.188 248.391 417.719 247.203C416.281 245.984 414.297 245.375 411.766 245.375C410.203 245.375 408.844 245.594 407.688 246.031C406.531 246.469 405.641 247.094 405.016 247.906C404.391 248.688 404.078 249.625 404.078 250.719V250.766C404.078 251.609 404.281 252.375 404.688 253.062C405.125 253.719 405.844 254.297 406.844 254.797C407.844 255.297 409.188 255.734 410.875 256.109L419.406 257.938C424.688 259.031 428.469 260.672 430.75 262.859C433.062 265.047 434.219 267.984 434.219 271.672V271.719C434.219 275 433.281 277.859 431.406 280.297C429.531 282.734 426.938 284.641 423.625 286.016C420.344 287.359 416.547 288.031 412.234 288.031ZM441.25 287V236.75H454.938V287H441.25ZM448.094 230.281C446.031 230.281 444.297 229.578 442.891 228.172C441.484 226.766 440.781 225.094 440.781 223.156C440.781 221.188 441.484 219.516 442.891 218.141C444.297 216.734 446.031 216.031 448.094 216.031C450.156 216.031 451.891 216.734 453.297 218.141C454.703 219.516 455.406 221.188 455.406 223.156C455.406 225.094 454.703 226.766 453.297 228.172C451.891 229.578 450.156 230.281 448.094 230.281ZM484.797 288.031C480.172 288.031 476.234 287.359 472.984 286.016C469.734 284.672 467.188 282.812 465.344 280.438C463.531 278.031 462.438 275.25 462.062 272.094L462.016 271.672H475.375L475.469 272.094C475.906 274.062 476.891 275.594 478.422 276.688C479.953 277.781 482.078 278.328 484.797 278.328C486.547 278.328 488.031 278.125 489.25 277.719C490.469 277.281 491.406 276.672 492.062 275.891C492.75 275.109 493.094 274.172 493.094 273.078V273.031C493.094 271.688 492.609 270.609 491.641 269.797C490.672 268.984 488.953 268.297 486.484 267.734L477.953 265.953C474.703 265.266 471.984 264.281 469.797 263C467.641 261.688 466.016 260.078 464.922 258.172C463.828 256.234 463.281 254.016 463.281 251.516V251.469C463.281 248.25 464.141 245.469 465.859 243.125C467.578 240.781 470.016 238.969 473.172 237.688C476.359 236.375 480.078 235.719 484.328 235.719C488.766 235.719 492.531 236.438 495.625 237.875C498.75 239.281 501.141 241.188 502.797 243.594C504.484 246 505.375 248.672 505.469 251.609V252.078H492.859L492.812 251.703C492.594 249.891 491.75 248.391 490.281 247.203C488.844 245.984 486.859 245.375 484.328 245.375C482.766 245.375 481.406 245.594 480.25 246.031C479.094 246.469 478.203 247.094 477.578 247.906C476.953 248.688 476.641 249.625 476.641 250.719V250.766C476.641 251.609 476.844 252.375 477.25 253.062C477.688 253.719 478.406 254.297 479.406 254.797C480.406 255.297 481.75 255.734 483.438 256.109L491.969 257.938C497.25 259.031 501.031 260.672 503.312 262.859C505.625 265.047 506.781 267.984 506.781 271.672V271.719C506.781 275 505.844 277.859 503.969 280.297C502.094 282.734 499.5 284.641 496.188 286.016C492.906 287.359 489.109 288.031 484.797 288.031ZM555.625 288.031C550.531 288.031 546.125 286.984 542.406 284.891C538.688 282.797 535.812 279.797 533.781 275.891C531.75 271.984 530.734 267.312 530.734 261.875V261.781C530.734 256.375 531.766 251.734 533.828 247.859C535.891 243.953 538.781 240.953 542.5 238.859C546.219 236.766 550.578 235.719 555.578 235.719C560.609 235.719 564.984 236.766 568.703 238.859C572.453 240.922 575.359 243.906 577.422 247.812C579.484 251.688 580.516 256.344 580.516 261.781V261.875C580.516 267.344 579.484 272.031 577.422 275.938C575.391 279.844 572.516 282.844 568.797 284.938C565.078 287 560.688 288.031 555.625 288.031ZM555.672 277.297C557.891 277.297 559.812 276.703 561.438 275.516C563.094 274.297 564.359 272.547 565.234 270.266C566.141 267.953 566.594 265.156 566.594 261.875V261.781C566.594 258.531 566.141 255.766 565.234 253.484C564.328 251.203 563.047 249.469 561.391 248.281C559.734 247.062 557.797 246.453 555.578 246.453C553.391 246.453 551.469 247.062 549.812 248.281C548.188 249.469 546.922 251.203 546.016 253.484C545.109 255.766 544.656 258.531 544.656 261.781V261.875C544.656 265.156 545.094 267.953 545.969 270.266C546.875 272.547 548.156 274.297 549.812 275.516C551.469 276.703 553.422 277.297 555.672 277.297ZM591.25 287V247.062H584.406V236.75H591.25V232.719C591.25 229.438 591.797 226.734 592.891 224.609C594.016 222.484 595.781 220.906 598.188 219.875C600.625 218.844 603.828 218.328 607.797 218.328C609.047 218.328 610.312 218.391 611.594 218.516C612.875 218.609 613.906 218.734 614.688 218.891V227.938C614.219 227.844 613.672 227.781 613.047 227.75C612.422 227.719 611.797 227.703 611.172 227.703C608.922 227.703 607.266 228.172 606.203 229.109C605.141 230.047 604.609 231.422 604.609 233.234V236.75H614.594V247.062H604.938V287H591.25ZM637.703 287L661.328 219.359H673.797V232.484H669.484L652.562 287H637.703ZM650.406 270.594L653.875 260H685.422L688.891 270.594H650.406ZM686.688 287L669.766 232.484V219.359H677.969L701.547 287H686.688ZM707.641 287V219.359H721.328V287H707.641ZM754.047 304.438C749.453 304.438 745.438 303.797 742 302.516C738.594 301.266 735.875 299.562 733.844 297.406C731.844 295.25 730.625 292.828 730.188 290.141L730.141 289.719H743.453L743.594 290.047C744.156 291.266 745.328 292.344 747.109 293.281C748.891 294.219 751.203 294.688 754.047 294.688C757.578 294.688 760.266 293.844 762.109 292.156C763.953 290.469 764.875 288.219 764.875 285.406V277.719H764.594C763.719 279.469 762.531 280.984 761.031 282.266C759.531 283.547 757.766 284.547 755.734 285.266C753.734 285.953 751.516 286.297 749.078 286.297C744.891 286.297 741.266 285.297 738.203 283.297C735.172 281.297 732.828 278.438 731.172 274.719C729.547 270.969 728.734 266.5 728.734 261.312V261.266C728.734 255.922 729.562 251.344 731.219 247.531C732.906 243.719 735.281 240.797 738.344 238.766C741.406 236.734 745.062 235.719 749.312 235.719C751.688 235.719 753.859 236.109 755.828 236.891C757.797 237.672 759.516 238.781 760.984 240.219C762.484 241.656 763.688 243.359 764.594 245.328H764.875V236.75H778.562V285.594C778.562 289.312 777.562 292.578 775.562 295.391C773.594 298.234 770.766 300.453 767.078 302.047C763.422 303.641 759.078 304.438 754.047 304.438ZM753.812 276.266C756.062 276.266 758.016 275.672 759.672 274.484C761.328 273.297 762.609 271.609 763.516 269.422C764.453 267.234 764.922 264.641 764.922 261.641V261.594C764.922 258.594 764.453 256.016 763.516 253.859C762.609 251.672 761.312 250 759.625 248.844C757.969 247.656 756.031 247.062 753.812 247.062C751.562 247.062 749.594 247.656 747.906 248.844C746.219 250 744.922 251.656 744.016 253.812C743.109 255.969 742.656 258.562 742.656 261.594V261.641C742.656 264.641 743.109 267.234 744.016 269.422C744.922 271.609 746.219 273.297 747.906 274.484C749.594 275.672 751.562 276.266 753.812 276.266ZM810.625 288.031C805.531 288.031 801.125 286.984 797.406 284.891C793.688 282.797 790.812 279.797 788.781 275.891C786.75 271.984 785.734 267.312 785.734 261.875V261.781C785.734 256.375 786.766 251.734 788.828 247.859C790.891 243.953 793.781 240.953 797.5 238.859C801.219 236.766 805.578 235.719 810.578 235.719C815.609 235.719 819.984 236.766 823.703 238.859C827.453 240.922 830.359 243.906 832.422 247.812C834.484 251.688 835.516 256.344 835.516 261.781V261.875C835.516 267.344 834.484 272.031 832.422 275.938C830.391 279.844 827.516 282.844 823.797 284.938C820.078 287 815.688 288.031 810.625 288.031ZM810.672 277.297C812.891 277.297 814.812 276.703 816.438 275.516C818.094 274.297 819.359 272.547 820.234 270.266C821.141 267.953 821.594 265.156 821.594 261.875V261.781C821.594 258.531 821.141 255.766 820.234 253.484C819.328 251.203 818.047 249.469 816.391 248.281C814.734 247.062 812.797 246.453 810.578 246.453C808.391 246.453 806.469 247.062 804.812 248.281C803.188 249.469 801.922 251.203 801.016 253.484C800.109 255.766 799.656 258.531 799.656 261.781V261.875C799.656 265.156 800.094 267.953 800.969 270.266C801.875 272.547 803.156 274.297 804.812 275.516C806.469 276.703 808.422 277.297 810.672 277.297ZM842.594 287V236.75H856.281V245.516H856.562C857.312 242.422 858.672 240.016 860.641 238.297C862.609 236.578 865.062 235.719 868 235.719C868.75 235.719 869.469 235.766 870.156 235.859C870.844 235.953 871.438 236.078 871.938 236.234V248.281C871.375 248.062 870.656 247.891 869.781 247.766C868.906 247.609 867.969 247.531 866.969 247.531C864.719 247.531 862.797 247.969 861.203 248.844C859.609 249.719 858.391 251 857.547 252.688C856.703 254.375 856.281 256.438 856.281 258.875V287H842.594ZM877.844 287V236.75H891.531V287H877.844ZM884.688 230.281C882.625 230.281 880.891 229.578 879.484 228.172C878.078 226.766 877.375 225.094 877.375 223.156C877.375 221.188 878.078 219.516 879.484 218.141C880.891 216.734 882.625 216.031 884.688 216.031C886.75 216.031 888.484 216.734 889.891 218.141C891.297 219.516 892 221.188 892 223.156C892 225.094 891.297 226.766 889.891 228.172C888.484 229.578 886.75 230.281 884.688 230.281ZM920.688 288.031C915.125 288.031 911 286.859 908.312 284.516C905.625 282.172 904.281 278.312 904.281 272.938V247.062H897.297V236.75H904.281V224.469H918.109V236.75H927.297V247.062H918.109V271.438C918.109 273.781 918.625 275.422 919.656 276.359C920.719 277.266 922.281 277.719 924.344 277.719C924.969 277.719 925.516 277.703 925.984 277.672C926.453 277.609 926.891 277.547 927.297 277.484V287.516C926.547 287.641 925.609 287.75 924.484 287.844C923.391 287.969 922.125 288.031 920.688 288.031ZM935.172 287V219.359H948.859V245.422H949.141C950.453 242.297 952.406 239.906 955 238.25C957.625 236.562 960.812 235.719 964.562 235.719C968.219 235.719 971.359 236.531 973.984 238.156C976.609 239.75 978.625 242.016 980.031 244.953C981.469 247.891 982.188 251.391 982.188 255.453V287H968.5V258.266C968.5 254.766 967.656 252.031 965.969 250.062C964.312 248.062 961.922 247.062 958.797 247.062C956.797 247.062 955.047 247.547 953.547 248.516C952.078 249.453 950.922 250.766 950.078 252.453C949.266 254.109 948.859 256.031 948.859 258.219V287H935.172ZM991 287V236.75H1004.69V245.188H1004.97C1006 242.312 1007.75 240.016 1010.22 238.297C1012.72 236.578 1015.66 235.719 1019.03 235.719C1021.38 235.719 1023.48 236.125 1025.36 236.938C1027.23 237.75 1028.81 238.922 1030.09 240.453C1031.41 241.984 1032.33 243.859 1032.86 246.078H1033.14C1033.89 243.953 1035.02 242.125 1036.52 240.594C1038.05 239.031 1039.84 237.828 1041.91 236.984C1044 236.141 1046.28 235.719 1048.75 235.719C1052.03 235.719 1054.91 236.422 1057.38 237.828C1059.84 239.234 1061.77 241.203 1063.14 243.734C1064.52 246.266 1065.2 249.234 1065.2 252.641V287H1051.52V256.062C1051.52 254.125 1051.19 252.484 1050.53 251.141C1049.91 249.797 1048.98 248.781 1047.77 248.094C1046.58 247.406 1045.09 247.062 1043.31 247.062C1041.59 247.062 1040.08 247.453 1038.77 248.234C1037.48 249.016 1036.48 250.109 1035.77 251.516C1035.05 252.922 1034.69 254.562 1034.69 256.438V287H1021.52V255.641C1021.52 253.828 1021.19 252.281 1020.53 251C1019.88 249.719 1018.94 248.75 1017.72 248.094C1016.53 247.406 1015.09 247.062 1013.41 247.062C1011.69 247.062 1010.17 247.469 1008.86 248.281C1007.55 249.094 1006.52 250.219 1005.77 251.656C1005.05 253.094 1004.69 254.766 1004.69 256.672V287H991ZM1094.55 288.031C1089.92 288.031 1085.98 287.359 1082.73 286.016C1079.48 284.672 1076.94 282.812 1075.09 280.438C1073.28 278.031 1072.19 275.25 1071.81 272.094L1071.77 271.672H1085.12L1085.22 272.094C1085.66 274.062 1086.64 275.594 1088.17 276.688C1089.7 277.781 1091.83 278.328 1094.55 278.328C1096.3 278.328 1097.78 278.125 1099 277.719C1100.22 277.281 1101.16 276.672 1101.81 275.891C1102.5 275.109 1102.84 274.172 1102.84 273.078V273.031C1102.84 271.688 1102.36 270.609 1101.39 269.797C1100.42 268.984 1098.7 268.297 1096.23 267.734L1087.7 265.953C1084.45 265.266 1081.73 264.281 1079.55 263C1077.39 261.688 1075.77 260.078 1074.67 258.172C1073.58 256.234 1073.03 254.016 1073.03 251.516V251.469C1073.03 248.25 1073.89 245.469 1075.61 243.125C1077.33 240.781 1079.77 238.969 1082.92 237.688C1086.11 236.375 1089.83 235.719 1094.08 235.719C1098.52 235.719 1102.28 236.438 1105.38 237.875C1108.5 239.281 1110.89 241.188 1112.55 243.594C1114.23 246 1115.12 248.672 1115.22 251.609V252.078H1102.61L1102.56 251.703C1102.34 249.891 1101.5 248.391 1100.03 247.203C1098.59 245.984 1096.61 245.375 1094.08 245.375C1092.52 245.375 1091.16 245.594 1090 246.031C1088.84 246.469 1087.95 247.094 1087.33 247.906C1086.7 248.688 1086.39 249.625 1086.39 250.719V250.766C1086.39 251.609 1086.59 252.375 1087 253.062C1087.44 253.719 1088.16 254.297 1089.16 254.797C1090.16 255.297 1091.5 255.734 1093.19 256.109L1101.72 257.938C1107 259.031 1110.78 260.672 1113.06 262.859C1115.38 265.047 1116.53 267.984 1116.53 271.672V271.719C1116.53 275 1115.59 277.859 1113.72 280.297C1111.84 282.734 1109.25 284.641 1105.94 286.016C1102.66 287.359 1098.86 288.031 1094.55 288.031ZM1130.41 287.797C1128.28 287.797 1126.48 287.062 1125.02 285.594C1123.55 284.125 1122.81 282.328 1122.81 280.203C1122.81 278.078 1123.55 276.281 1125.02 274.812C1126.48 273.344 1128.28 272.609 1130.41 272.609C1132.53 272.609 1134.33 273.344 1135.8 274.812C1137.27 276.281 1138 278.078 1138 280.203C1138 282.328 1137.27 284.125 1135.8 285.594C1134.33 287.062 1132.53 287.797 1130.41 287.797ZM1130.41 254.422C1128.28 254.422 1126.48 253.688 1125.02 252.219C1123.55 250.75 1122.81 248.953 1122.81 246.828C1122.81 244.703 1123.55 242.906 1125.02 241.438C1126.48 239.969 1128.28 239.234 1130.41 239.234C1132.53 239.234 1134.33 239.969 1135.8 241.438C1137.27 242.906 1138 244.703 1138 246.828C1138 248.953 1137.27 250.75 1135.8 252.219C1134.33 253.688 1132.53 254.422 1130.41 254.422ZM165.906 402L189.531 334.359H202V347.484H197.688L180.766 402H165.906ZM178.609 385.594L182.078 375H213.625L217.094 385.594H178.609ZM214.891 402L197.969 347.484V334.359H206.172L229.75 402H214.891ZM255.719 403.031C251.094 403.031 247.156 402.359 243.906 401.016C240.656 399.672 238.109 397.812 236.266 395.438C234.453 393.031 233.359 390.25 232.984 387.094L232.938 386.672H246.297L246.391 387.094C246.828 389.062 247.812 390.594 249.344 391.688C250.875 392.781 253 393.328 255.719 393.328C257.469 393.328 258.953 393.125 260.172 392.719C261.391 392.281 262.328 391.672 262.984 390.891C263.672 390.109 264.016 389.172 264.016 388.078V388.031C264.016 386.688 263.531 385.609 262.562 384.797C261.594 383.984 259.875 383.297 257.406 382.734L248.875 380.953C245.625 380.266 242.906 379.281 240.719 378C238.562 376.688 236.938 375.078 235.844 373.172C234.75 371.234 234.203 369.016 234.203 366.516V366.469C234.203 363.25 235.062 360.469 236.781 358.125C238.5 355.781 240.938 353.969 244.094 352.688C247.281 351.375 251 350.719 255.25 350.719C259.688 350.719 263.453 351.438 266.547 352.875C269.672 354.281 272.062 356.188 273.719 358.594C275.406 361 276.297 363.672 276.391 366.609V367.078H263.781L263.734 366.703C263.516 364.891 262.672 363.391 261.203 362.203C259.766 360.984 257.781 360.375 255.25 360.375C253.688 360.375 252.328 360.594 251.172 361.031C250.016 361.469 249.125 362.094 248.5 362.906C247.875 363.688 247.562 364.625 247.562 365.719V365.766C247.562 366.609 247.766 367.375 248.172 368.062C248.609 368.719 249.328 369.297 250.328 369.797C251.328 370.297 252.672 370.734 254.359 371.109L262.891 372.938C268.172 374.031 271.953 375.672 274.234 377.859C276.547 380.047 277.703 382.984 277.703 386.672V386.719C277.703 390 276.766 392.859 274.891 395.297C273.016 397.734 270.422 399.641 267.109 401.016C263.828 402.359 260.031 403.031 255.719 403.031ZM292.047 418.547C290.703 418.547 289.406 418.484 288.156 418.359C286.906 418.234 285.875 418.094 285.062 417.938V407.766C285.562 407.859 286.203 407.953 286.984 408.047C287.766 408.172 288.656 408.234 289.656 408.234C291.719 408.234 293.344 407.891 294.531 407.203C295.719 406.516 296.609 405.328 297.203 403.641L297.812 402L280.047 351.75H295.094L306.438 393.75L304.609 391.031H307.188L305.359 393.75L316.703 351.75H331.141L313.891 402.891C312.578 406.828 310.922 409.938 308.922 412.219C306.953 414.5 304.578 416.125 301.797 417.094C299.016 418.062 295.766 418.547 292.047 418.547ZM335.922 402V351.75H349.609V360.188H349.891C350.922 357.312 352.672 355.016 355.141 353.297C357.641 351.578 360.578 350.719 363.953 350.719C366.297 350.719 368.406 351.125 370.281 351.938C372.156 352.75 373.734 353.922 375.016 355.453C376.328 356.984 377.25 358.859 377.781 361.078H378.062C378.812 358.953 379.938 357.125 381.438 355.594C382.969 354.031 384.766 352.828 386.828 351.984C388.922 351.141 391.203 350.719 393.672 350.719C396.953 350.719 399.828 351.422 402.297 352.828C404.766 354.234 406.688 356.203 408.062 358.734C409.438 361.266 410.125 364.234 410.125 367.641V402H396.438V371.062C396.438 369.125 396.109 367.484 395.453 366.141C394.828 364.797 393.906 363.781 392.688 363.094C391.5 362.406 390.016 362.062 388.234 362.062C386.516 362.062 385 362.453 383.688 363.234C382.406 364.016 381.406 365.109 380.688 366.516C379.969 367.922 379.609 369.562 379.609 371.438V402H366.438V370.641C366.438 368.828 366.109 367.281 365.453 366C364.797 364.719 363.859 363.75 362.641 363.094C361.453 362.406 360.016 362.062 358.328 362.062C356.609 362.062 355.094 362.469 353.781 363.281C352.469 364.094 351.438 365.219 350.688 366.656C349.969 368.094 349.609 369.766 349.609 371.672V402H335.922ZM418.797 418.406V351.75H432.484V360.516H432.812C433.719 358.484 434.906 356.734 436.375 355.266C437.875 353.797 439.609 352.672 441.578 351.891C443.578 351.109 445.766 350.719 448.141 350.719C452.391 350.719 456.047 351.766 459.109 353.859C462.172 355.922 464.531 358.906 466.188 362.812C467.844 366.719 468.672 371.391 468.672 376.828V376.875C468.672 382.312 467.844 386.984 466.188 390.891C464.562 394.797 462.234 397.797 459.203 399.891C456.172 401.984 452.547 403.031 448.328 403.031C445.953 403.031 443.75 402.641 441.719 401.859C439.688 401.078 437.922 399.984 436.422 398.578C434.922 397.141 433.703 395.422 432.766 393.422H432.484V418.406H418.797ZM443.641 391.688C445.922 391.688 447.891 391.094 449.547 389.906C451.203 388.688 452.484 386.969 453.391 384.75C454.297 382.531 454.75 379.906 454.75 376.875V376.828C454.75 373.766 454.297 371.125 453.391 368.906C452.484 366.688 451.188 365 449.5 363.844C447.844 362.656 445.891 362.062 443.641 362.062C441.422 362.062 439.469 362.672 437.781 363.891C436.094 365.078 434.781 366.781 433.844 369C432.906 371.188 432.438 373.812 432.438 376.875V376.922C432.438 379.922 432.906 382.531 433.844 384.75C434.812 386.969 436.125 388.688 437.781 389.906C439.469 391.094 441.422 391.688 443.641 391.688ZM495.766 403.031C490.203 403.031 486.078 401.859 483.391 399.516C480.703 397.172 479.359 393.312 479.359 387.938V362.062H472.375V351.75H479.359V339.469H493.188V351.75H502.375V362.062H493.188V386.438C493.188 388.781 493.703 390.422 494.734 391.359C495.797 392.266 497.359 392.719 499.422 392.719C500.047 392.719 500.594 392.703 501.062 392.672C501.531 392.609 501.969 392.547 502.375 392.484V402.516C501.625 402.641 500.688 402.75 499.562 402.844C498.469 402.969 497.203 403.031 495.766 403.031ZM532.328 403.031C527.234 403.031 522.828 401.984 519.109 399.891C515.391 397.797 512.516 394.797 510.484 390.891C508.453 386.984 507.438 382.312 507.438 376.875V376.781C507.438 371.375 508.469 366.734 510.531 362.859C512.594 358.953 515.484 355.953 519.203 353.859C522.922 351.766 527.281 350.719 532.281 350.719C537.312 350.719 541.688 351.766 545.406 353.859C549.156 355.922 552.062 358.906 554.125 362.812C556.188 366.688 557.219 371.344 557.219 376.781V376.875C557.219 382.344 556.188 387.031 554.125 390.938C552.094 394.844 549.219 397.844 545.5 399.938C541.781 402 537.391 403.031 532.328 403.031ZM532.375 392.297C534.594 392.297 536.516 391.703 538.141 390.516C539.797 389.297 541.062 387.547 541.938 385.266C542.844 382.953 543.297 380.156 543.297 376.875V376.781C543.297 373.531 542.844 370.766 541.938 368.484C541.031 366.203 539.75 364.469 538.094 363.281C536.438 362.062 534.5 361.453 532.281 361.453C530.094 361.453 528.172 362.062 526.516 363.281C524.891 364.469 523.625 366.203 522.719 368.484C521.812 370.766 521.359 373.531 521.359 376.781V376.875C521.359 380.156 521.797 382.953 522.672 385.266C523.578 387.547 524.859 389.297 526.516 390.516C528.172 391.703 530.125 392.297 532.375 392.297ZM584.266 403.031C578.703 403.031 574.578 401.859 571.891 399.516C569.203 397.172 567.859 393.312 567.859 387.938V362.062H560.875V351.75H567.859V339.469H581.688V351.75H590.875V362.062H581.688V386.438C581.688 388.781 582.203 390.422 583.234 391.359C584.297 392.266 585.859 392.719 587.922 392.719C588.547 392.719 589.094 392.703 589.562 392.672C590.031 392.609 590.469 392.547 590.875 392.484V402.516C590.125 402.641 589.188 402.75 588.062 402.844C586.969 402.969 585.703 403.031 584.266 403.031ZM598.703 402V351.75H612.391V402H598.703ZM605.547 345.281C603.484 345.281 601.75 344.578 600.344 343.172C598.938 341.766 598.234 340.094 598.234 338.156C598.234 336.188 598.938 334.516 600.344 333.141C601.75 331.734 603.484 331.031 605.547 331.031C607.609 331.031 609.344 331.734 610.75 333.141C612.156 334.516 612.859 336.188 612.859 338.156C612.859 340.094 612.156 341.766 610.75 343.172C609.344 344.578 607.609 345.281 605.547 345.281ZM644.547 403.031C639.453 403.031 635.047 401.969 631.328 399.844C627.609 397.719 624.75 394.703 622.75 390.797C620.75 386.859 619.75 382.203 619.75 376.828V376.781C619.75 371.406 620.75 366.781 622.75 362.906C624.781 359 627.641 356 631.328 353.906C635.047 351.781 639.406 350.719 644.406 350.719C648.969 350.719 652.922 351.578 656.266 353.297C659.609 354.984 662.219 357.281 664.094 360.188C666 363.094 667.047 366.359 667.234 369.984V370.312H654.531L654.438 369.891C654.031 367.484 653 365.484 651.344 363.891C649.688 362.266 647.438 361.453 644.594 361.453C642.375 361.453 640.438 362.078 638.781 363.328C637.156 364.547 635.891 366.312 634.984 368.625C634.109 370.906 633.672 373.641 633.672 376.828V376.875C633.672 380.156 634.109 382.953 634.984 385.266C635.891 387.547 637.156 389.297 638.781 390.516C640.438 391.703 642.391 392.297 644.641 392.297C647.391 392.297 649.594 391.531 651.25 390C652.938 388.438 654.016 386.391 654.484 383.859L654.531 383.438H667.281V383.719C667.062 387.375 666 390.656 664.094 393.562C662.188 396.469 659.562 398.781 656.219 400.5C652.906 402.188 649.016 403.031 644.547 403.031ZM694.094 402V334.359H706.469L743.266 387.281L731.406 378.328H737.312V334.359H751.422V402H739.141L702.297 348.75L714.156 357.703H708.203V402H694.094ZM784.609 403.031C779.516 403.031 775.109 401.984 771.391 399.891C767.672 397.797 764.797 394.797 762.766 390.891C760.734 386.984 759.719 382.312 759.719 376.875V376.781C759.719 371.375 760.75 366.734 762.812 362.859C764.875 358.953 767.766 355.953 771.484 353.859C775.203 351.766 779.562 350.719 784.562 350.719C789.594 350.719 793.969 351.766 797.688 353.859C801.438 355.922 804.344 358.906 806.406 362.812C808.469 366.688 809.5 371.344 809.5 376.781V376.875C809.5 382.344 808.469 387.031 806.406 390.938C804.375 394.844 801.5 397.844 797.781 399.938C794.062 402 789.672 403.031 784.609 403.031ZM784.656 392.297C786.875 392.297 788.797 391.703 790.422 390.516C792.078 389.297 793.344 387.547 794.219 385.266C795.125 382.953 795.578 380.156 795.578 376.875V376.781C795.578 373.531 795.125 370.766 794.219 368.484C793.312 366.203 792.031 364.469 790.375 363.281C788.719 362.062 786.781 361.453 784.562 361.453C782.375 361.453 780.453 362.062 778.797 363.281C777.172 364.469 775.906 366.203 775 368.484C774.094 370.766 773.641 373.531 773.641 376.781V376.875C773.641 380.156 774.078 382.953 774.953 385.266C775.859 387.547 777.141 389.297 778.797 390.516C780.453 391.703 782.406 392.297 784.656 392.297ZM836.547 403.031C830.984 403.031 826.859 401.859 824.172 399.516C821.484 397.172 820.141 393.312 820.141 387.938V362.062H813.156V351.75H820.141V339.469H833.969V351.75H843.156V362.062H833.969V386.438C833.969 388.781 834.484 390.422 835.516 391.359C836.578 392.266 838.141 392.719 840.203 392.719C840.828 392.719 841.375 392.703 841.844 392.672C842.312 392.609 842.75 392.547 843.156 392.484V402.516C842.406 402.641 841.469 402.75 840.344 402.844C839.25 402.969 837.984 403.031 836.547 403.031ZM865.188 402.797C861.844 402.797 858.906 402.156 856.375 400.875C853.844 399.562 851.859 397.766 850.422 395.484C849.016 393.172 848.312 390.547 848.312 387.609V387.516C848.312 384.453 849.078 381.844 850.609 379.688C852.141 377.5 854.359 375.781 857.266 374.531C860.172 373.281 863.703 372.516 867.859 372.234L887.453 371.016V379.547L869.922 380.672C867.297 380.828 865.297 381.453 863.922 382.547C862.547 383.609 861.859 385.031 861.859 386.812V386.906C861.859 388.75 862.562 390.203 863.969 391.266C865.375 392.297 867.266 392.812 869.641 392.812C871.672 392.812 873.484 392.422 875.078 391.641C876.703 390.828 877.969 389.734 878.875 388.359C879.812 386.953 880.281 385.375 880.281 383.625V368.391C880.281 366.172 879.578 364.422 878.172 363.141C876.766 361.828 874.719 361.172 872.031 361.172C869.469 361.172 867.438 361.703 865.938 362.766C864.438 363.828 863.516 365.172 863.172 366.797L863.078 367.219H850.562L850.609 366.656C850.859 363.562 851.875 360.812 853.656 358.406C855.469 356 857.969 354.125 861.156 352.781C864.375 351.406 868.188 350.719 872.594 350.719C876.938 350.719 880.703 351.422 883.891 352.828C887.078 354.203 889.547 356.156 891.297 358.688C893.078 361.219 893.969 364.172 893.969 367.547V402H880.281V394.5H880C879.062 396.219 877.844 397.703 876.344 398.953C874.875 400.172 873.203 401.125 871.328 401.812C869.453 402.469 867.406 402.797 865.188 402.797ZM922.797 403.031C917.234 403.031 913.109 401.859 910.422 399.516C907.734 397.172 906.391 393.312 906.391 387.938V362.062H899.406V351.75H906.391V339.469H920.219V351.75H929.406V362.062H920.219V386.438C920.219 388.781 920.734 390.422 921.766 391.359C922.828 392.266 924.391 392.719 926.453 392.719C927.078 392.719 927.625 392.703 928.094 392.672C928.562 392.609 929 392.547 929.406 392.484V402.516C928.656 402.641 927.719 402.75 926.594 402.844C925.5 402.969 924.234 403.031 922.797 403.031ZM937.234 402V351.75H950.922V402H937.234ZM944.078 345.281C942.016 345.281 940.281 344.578 938.875 343.172C937.469 341.766 936.766 340.094 936.766 338.156C936.766 336.188 937.469 334.516 938.875 333.141C940.281 331.734 942.016 331.031 944.078 331.031C946.141 331.031 947.875 331.734 949.281 333.141C950.688 334.516 951.391 336.188 951.391 338.156C951.391 340.094 950.688 341.766 949.281 343.172C947.875 344.578 946.141 345.281 944.078 345.281ZM983.172 403.031C978.078 403.031 973.672 401.984 969.953 399.891C966.234 397.797 963.359 394.797 961.328 390.891C959.297 386.984 958.281 382.312 958.281 376.875V376.781C958.281 371.375 959.312 366.734 961.375 362.859C963.438 358.953 966.328 355.953 970.047 353.859C973.766 351.766 978.125 350.719 983.125 350.719C988.156 350.719 992.531 351.766 996.25 353.859C1000 355.922 1002.91 358.906 1004.97 362.812C1007.03 366.688 1008.06 371.344 1008.06 376.781V376.875C1008.06 382.344 1007.03 387.031 1004.97 390.938C1002.94 394.844 1000.06 397.844 996.344 399.938C992.625 402 988.234 403.031 983.172 403.031ZM983.219 392.297C985.438 392.297 987.359 391.703 988.984 390.516C990.641 389.297 991.906 387.547 992.781 385.266C993.688 382.953 994.141 380.156 994.141 376.875V376.781C994.141 373.531 993.688 370.766 992.781 368.484C991.875 366.203 990.594 364.469 988.938 363.281C987.281 362.062 985.344 361.453 983.125 361.453C980.938 361.453 979.016 362.062 977.359 363.281C975.734 364.469 974.469 366.203 973.562 368.484C972.656 370.766 972.203 373.531 972.203 376.781V376.875C972.203 380.156 972.641 382.953 973.516 385.266C974.422 387.547 975.703 389.297 977.359 390.516C979.016 391.703 980.969 392.297 983.219 392.297ZM1015.14 402V351.75H1028.83V360H1029.11C1030.42 357.125 1032.36 354.859 1034.92 353.203C1037.48 351.547 1040.66 350.719 1044.44 350.719C1049.97 350.719 1054.23 352.391 1057.23 355.734C1060.27 359.047 1061.78 363.656 1061.78 369.562V402H1048.09V372.375C1048.09 369.094 1047.31 366.562 1045.75 364.781C1044.22 362.969 1041.92 362.062 1038.86 362.062C1036.83 362.062 1035.06 362.531 1033.56 363.469C1032.06 364.375 1030.89 365.656 1030.05 367.312C1029.23 368.969 1028.83 370.906 1028.83 373.125V402H1015.14ZM1091.12 403.031C1086.5 403.031 1082.56 402.359 1079.31 401.016C1076.06 399.672 1073.52 397.812 1071.67 395.438C1069.86 393.031 1068.77 390.25 1068.39 387.094L1068.34 386.672H1081.7L1081.8 387.094C1082.23 389.062 1083.22 390.594 1084.75 391.688C1086.28 392.781 1088.41 393.328 1091.12 393.328C1092.88 393.328 1094.36 393.125 1095.58 392.719C1096.8 392.281 1097.73 391.672 1098.39 390.891C1099.08 390.109 1099.42 389.172 1099.42 388.078V388.031C1099.42 386.688 1098.94 385.609 1097.97 384.797C1097 383.984 1095.28 383.297 1092.81 382.734L1084.28 380.953C1081.03 380.266 1078.31 379.281 1076.12 378C1073.97 376.688 1072.34 375.078 1071.25 373.172C1070.16 371.234 1069.61 369.016 1069.61 366.516V366.469C1069.61 363.25 1070.47 360.469 1072.19 358.125C1073.91 355.781 1076.34 353.969 1079.5 352.688C1082.69 351.375 1086.41 350.719 1090.66 350.719C1095.09 350.719 1098.86 351.438 1101.95 352.875C1105.08 354.281 1107.47 356.188 1109.12 358.594C1110.81 361 1111.7 363.672 1111.8 366.609V367.078H1099.19L1099.14 366.703C1098.92 364.891 1098.08 363.391 1096.61 362.203C1095.17 360.984 1093.19 360.375 1090.66 360.375C1089.09 360.375 1087.73 360.594 1086.58 361.031C1085.42 361.469 1084.53 362.094 1083.91 362.906C1083.28 363.688 1082.97 364.625 1082.97 365.719V365.766C1082.97 366.609 1083.17 367.375 1083.58 368.062C1084.02 368.719 1084.73 369.297 1085.73 369.797C1086.73 370.297 1088.08 370.734 1089.77 371.109L1098.3 372.938C1103.58 374.031 1107.36 375.672 1109.64 377.859C1111.95 380.047 1113.11 382.984 1113.11 386.672V386.719C1113.11 390 1112.17 392.859 1110.3 395.297C1108.42 397.734 1105.83 399.641 1102.52 401.016C1099.23 402.359 1095.44 403.031 1091.12 403.031Z" fill="white"/>
<path d="M346.914 659.562C343.789 659.562 341.062 658.844 338.734 657.406C336.422 655.969 334.633 653.945 333.367 651.336C332.102 648.711 331.469 645.625 331.469 642.078V642.055C331.469 638.508 332.102 635.43 333.367 632.82C334.633 630.211 336.422 628.195 338.734 626.773C341.047 625.336 343.773 624.617 346.914 624.617C349.258 624.617 351.391 625.062 353.312 625.953C355.234 626.844 356.836 628.086 358.117 629.68C359.414 631.273 360.273 633.141 360.695 635.281L360.742 635.516H356.477L356.312 635C355.875 633.625 355.219 632.461 354.344 631.508C353.484 630.539 352.43 629.797 351.18 629.281C349.93 628.766 348.508 628.508 346.914 628.508C344.664 628.508 342.703 629.07 341.031 630.195C339.375 631.305 338.086 632.875 337.164 634.906C336.258 636.922 335.805 639.305 335.805 642.055V642.078C335.805 644.812 336.258 647.203 337.164 649.25C338.086 651.281 339.383 652.859 341.055 653.984C342.727 655.109 344.68 655.672 346.914 655.672C348.492 655.672 349.898 655.414 351.133 654.898C352.383 654.383 353.453 653.625 354.344 652.625C355.234 651.609 355.922 650.359 356.406 648.875L356.477 648.664H360.742L360.695 648.898C360.273 651.055 359.422 652.938 358.141 654.547C356.859 656.141 355.258 657.375 353.336 658.25C351.414 659.125 349.273 659.562 346.914 659.562ZM375.203 659.469C372.953 659.469 370.977 658.953 369.273 657.922C367.586 656.891 366.266 655.43 365.312 653.539C364.375 651.633 363.906 649.391 363.906 646.812V646.766C363.906 644.172 364.375 641.938 365.312 640.062C366.266 638.172 367.586 636.719 369.273 635.703C370.977 634.672 372.945 634.156 375.18 634.156C377.43 634.156 379.398 634.672 381.086 635.703C382.789 636.719 384.109 638.172 385.047 640.062C386 641.938 386.477 644.172 386.477 646.766V646.812C386.477 649.406 386 651.648 385.047 653.539C384.109 655.43 382.797 656.891 381.109 657.922C379.422 658.953 377.453 659.469 375.203 659.469ZM375.227 655.859C376.664 655.859 377.906 655.508 378.953 654.805C380.016 654.086 380.836 653.055 381.414 651.711C382.008 650.352 382.305 648.719 382.305 646.812V646.766C382.305 644.859 382.008 643.234 381.414 641.891C380.836 640.547 380.008 639.523 378.93 638.82C377.867 638.117 376.617 637.766 375.18 637.766C373.773 637.766 372.531 638.125 371.453 638.844C370.391 639.547 369.562 640.57 368.969 641.914C368.375 643.242 368.078 644.859 368.078 646.766V646.812C368.078 648.719 368.375 650.352 368.969 651.711C369.562 653.055 370.391 654.086 371.453 654.805C372.531 655.508 373.789 655.859 375.227 655.859ZM390.602 659V634.625H394.68V638.188H394.773C395.32 636.984 396.18 636.016 397.352 635.281C398.523 634.531 399.891 634.156 401.453 634.156C402.562 634.156 403.562 634.344 404.453 634.719C405.359 635.078 406.141 635.609 406.797 636.312C407.453 637 407.953 637.844 408.297 638.844H408.391C408.844 637.859 409.445 637.023 410.195 636.336C410.961 635.633 411.836 635.094 412.82 634.719C413.82 634.344 414.891 634.156 416.031 634.156C417.641 634.156 419.039 634.492 420.227 635.164C421.414 635.82 422.336 636.75 422.992 637.953C423.648 639.141 423.977 640.547 423.977 642.172V659H419.898V643.109C419.898 641.984 419.695 641.023 419.289 640.227C418.898 639.43 418.328 638.82 417.578 638.398C416.828 637.977 415.914 637.766 414.836 637.766C413.758 637.766 412.805 638.016 411.977 638.516C411.148 639 410.5 639.68 410.031 640.555C409.562 641.414 409.328 642.398 409.328 643.508V659H405.25V642.664C405.25 641.68 405.039 640.82 404.617 640.086C404.211 639.352 403.633 638.781 402.883 638.375C402.148 637.969 401.273 637.766 400.258 637.766C399.18 637.766 398.219 638.031 397.375 638.562C396.547 639.078 395.891 639.781 395.406 640.672C394.922 641.562 394.68 642.578 394.68 643.719V659H390.602ZM429.18 667.203V634.625H433.258V638.75H433.352C433.867 637.797 434.5 636.984 435.25 636.312C436.016 635.625 436.891 635.094 437.875 634.719C438.859 634.344 439.93 634.156 441.086 634.156C443.164 634.156 444.977 634.68 446.523 635.727C448.086 636.758 449.297 638.227 450.156 640.133C451.016 642.023 451.445 644.25 451.445 646.812V646.836C451.445 649.398 451.008 651.625 450.133 653.516C449.273 655.406 448.07 656.875 446.523 657.922C444.992 658.953 443.203 659.469 441.156 659.469C440.016 659.469 438.945 659.289 437.945 658.93C436.945 658.555 436.055 658.031 435.273 657.359C434.508 656.672 433.867 655.859 433.352 654.922H433.258V667.203H429.18ZM440.289 655.859C441.727 655.859 442.969 655.492 444.016 654.758C445.062 654.023 445.867 652.984 446.43 651.641C446.992 650.281 447.273 648.68 447.273 646.836V646.812C447.273 644.938 446.992 643.328 446.43 641.984C445.867 640.625 445.062 639.586 444.016 638.867C442.969 638.133 441.727 637.766 440.289 637.766C438.914 637.766 437.695 638.141 436.633 638.891C435.57 639.641 434.734 640.695 434.125 642.055C433.531 643.398 433.234 644.984 433.234 646.812V646.836C433.234 648.648 433.539 650.234 434.148 651.594C434.758 652.938 435.586 653.984 436.633 654.734C437.695 655.484 438.914 655.859 440.289 655.859ZM463.891 659.469C462.109 659.469 460.586 659.102 459.32 658.367C458.07 657.633 457.109 656.594 456.438 655.25C455.781 653.891 455.453 652.289 455.453 650.445V634.625H459.531V649.719C459.531 651.703 459.992 653.227 460.914 654.289C461.852 655.336 463.258 655.859 465.133 655.859C466.102 655.859 466.969 655.695 467.734 655.367C468.516 655.039 469.188 654.578 469.75 653.984C470.312 653.375 470.742 652.648 471.039 651.805C471.336 650.945 471.484 650 471.484 648.969V634.625H475.562V659H471.484V655.531H471.391C470.953 656.281 470.383 656.953 469.68 657.547C468.992 658.141 468.164 658.609 467.195 658.953C466.227 659.297 465.125 659.469 463.891 659.469ZM488.805 659.469C486.57 659.469 484.898 658.938 483.789 657.875C482.68 656.812 482.125 655.117 482.125 652.789V638H478.562V634.625H482.125V628.039H486.344V634.625H490.984V638H486.344V652.766C486.344 654.062 486.625 654.945 487.188 655.414C487.75 655.867 488.578 656.094 489.672 656.094C489.922 656.094 490.156 656.086 490.375 656.07C490.609 656.039 490.812 656.016 490.984 656V659.305C490.734 659.336 490.406 659.367 490 659.398C489.609 659.445 489.211 659.469 488.805 659.469ZM504.695 659.469C502.367 659.469 500.359 658.953 498.672 657.922C497 656.891 495.711 655.438 494.805 653.562C493.914 651.672 493.469 649.453 493.469 646.906V646.883C493.469 644.367 493.922 642.156 494.828 640.25C495.734 638.328 497.008 636.836 498.648 635.773C500.289 634.695 502.219 634.156 504.438 634.156C506.656 634.156 508.562 634.672 510.156 635.703C511.766 636.719 513 638.148 513.859 639.992C514.719 641.836 515.148 643.977 515.148 646.414V647.914H495.508V644.727H513.133L511.07 647.68V646.109C511.07 644.219 510.781 642.656 510.203 641.422C509.641 640.188 508.859 639.273 507.859 638.68C506.859 638.07 505.711 637.766 504.414 637.766C503.117 637.766 501.953 638.086 500.922 638.727C499.891 639.352 499.078 640.289 498.484 641.539C497.891 642.773 497.594 644.297 497.594 646.109V647.68C497.594 649.398 497.883 650.867 498.461 652.086C499.055 653.305 499.891 654.242 500.969 654.898C502.047 655.539 503.32 655.859 504.789 655.859C505.82 655.859 506.742 655.703 507.555 655.391C508.367 655.078 509.047 654.648 509.594 654.102C510.141 653.555 510.531 652.93 510.766 652.227L510.836 652.016H514.844L514.797 652.25C514.594 653.25 514.203 654.188 513.625 655.062C513.062 655.938 512.336 656.711 511.445 657.383C510.555 658.039 509.539 658.555 508.398 658.93C507.258 659.289 506.023 659.469 504.695 659.469ZM519.273 659V634.625H523.352V638.75H523.445C523.852 637.344 524.555 636.227 525.555 635.398C526.555 634.57 527.742 634.156 529.117 634.156C529.477 634.156 529.797 634.18 530.078 634.227C530.375 634.258 530.602 634.289 530.758 634.32V638.281C530.602 638.219 530.32 638.164 529.914 638.117C529.523 638.07 529.078 638.047 528.578 638.047C527.531 638.047 526.609 638.281 525.812 638.75C525.031 639.219 524.422 639.898 523.984 640.789C523.562 641.664 523.352 642.719 523.352 643.953V659H519.273ZM555.625 659.562C553.188 659.562 551.039 659.188 549.18 658.438C547.336 657.672 545.867 656.586 544.773 655.18C543.695 653.773 543.086 652.109 542.945 650.188L542.922 649.859H547.141L547.188 650.188C547.359 651.312 547.82 652.289 548.57 653.117C549.32 653.93 550.312 654.562 551.547 655.016C552.797 655.453 554.234 655.672 555.859 655.672C557.484 655.672 558.891 655.445 560.078 654.992C561.266 654.523 562.18 653.859 562.82 653C563.477 652.141 563.805 651.133 563.805 649.977V649.953C563.805 648.469 563.289 647.281 562.258 646.391C561.227 645.5 559.547 644.797 557.219 644.281L553.469 643.461C550.172 642.727 547.727 641.602 546.133 640.086C544.555 638.555 543.766 636.555 543.766 634.086V634.062C543.781 632.203 544.297 630.57 545.312 629.164C546.328 627.742 547.727 626.633 549.508 625.836C551.305 625.023 553.359 624.617 555.672 624.617C557.875 624.617 559.844 625.016 561.578 625.812C563.312 626.594 564.695 627.688 565.727 629.094C566.773 630.5 567.359 632.125 567.484 633.969L567.508 634.32H563.289L563.242 633.992C563.07 632.836 562.648 631.852 561.977 631.039C561.305 630.227 560.422 629.602 559.328 629.164C558.25 628.727 556.992 628.508 555.555 628.508C554.055 628.508 552.742 628.734 551.617 629.188C550.492 629.641 549.617 630.273 548.992 631.086C548.383 631.898 548.078 632.852 548.078 633.945V633.969C548.078 635.344 548.602 636.477 549.648 637.367C550.695 638.258 552.32 638.945 554.523 639.43L558.273 640.25C560.586 640.75 562.461 641.414 563.898 642.242C565.352 643.07 566.414 644.102 567.086 645.336C567.773 646.555 568.117 648.023 568.117 649.742V649.766C568.117 651.766 567.609 653.5 566.594 654.969C565.594 656.438 564.156 657.57 562.281 658.367C560.422 659.164 558.203 659.562 555.625 659.562ZM582.531 659.469C580.234 659.469 578.234 658.953 576.531 657.922C574.844 656.875 573.539 655.406 572.617 653.516C571.695 651.609 571.234 649.367 571.234 646.789V646.766C571.234 644.203 571.703 641.977 572.641 640.086C573.578 638.195 574.891 636.734 576.578 635.703C578.266 634.672 580.234 634.156 582.484 634.156C584.516 634.156 586.258 634.555 587.711 635.352C589.164 636.133 590.305 637.148 591.133 638.398C591.977 639.648 592.484 640.969 592.656 642.359L592.68 642.547H588.695L588.648 642.359C588.352 641.141 587.695 640.07 586.68 639.148C585.68 638.227 584.281 637.766 582.484 637.766C581.078 637.766 579.844 638.141 578.781 638.891C577.719 639.625 576.891 640.672 576.297 642.031C575.703 643.375 575.406 644.969 575.406 646.812V646.836C575.406 648.727 575.703 650.344 576.297 651.688C576.906 653.031 577.742 654.062 578.805 654.781C579.883 655.5 581.125 655.859 582.531 655.859C584.203 655.859 585.555 655.438 586.586 654.594C587.633 653.734 588.328 652.625 588.672 651.266L588.719 651.078H592.727L592.703 651.242C592.484 652.789 591.914 654.188 590.992 655.438C590.086 656.672 588.906 657.656 587.453 658.391C586.016 659.109 584.375 659.469 582.531 659.469ZM596.734 659V634.625H600.812V659H596.734ZM598.773 630.5C598.07 630.5 597.469 630.25 596.969 629.75C596.469 629.25 596.219 628.648 596.219 627.945C596.219 627.227 596.469 626.625 596.969 626.141C597.469 625.641 598.07 625.391 598.773 625.391C599.492 625.391 600.094 625.641 600.578 626.141C601.078 626.625 601.328 627.227 601.328 627.945C601.328 628.648 601.078 629.25 600.578 629.75C600.094 630.25 599.492 630.5 598.773 630.5ZM616.398 659.469C614.07 659.469 612.062 658.953 610.375 657.922C608.703 656.891 607.414 655.438 606.508 653.562C605.617 651.672 605.172 649.453 605.172 646.906V646.883C605.172 644.367 605.625 642.156 606.531 640.25C607.438 638.328 608.711 636.836 610.352 635.773C611.992 634.695 613.922 634.156 616.141 634.156C618.359 634.156 620.266 634.672 621.859 635.703C623.469 636.719 624.703 638.148 625.562 639.992C626.422 641.836 626.852 643.977 626.852 646.414V647.914H607.211V644.727H624.836L622.773 647.68V646.109C622.773 644.219 622.484 642.656 621.906 641.422C621.344 640.188 620.562 639.273 619.562 638.68C618.562 638.07 617.414 637.766 616.117 637.766C614.82 637.766 613.656 638.086 612.625 638.727C611.594 639.352 610.781 640.289 610.188 641.539C609.594 642.773 609.297 644.297 609.297 646.109V647.68C609.297 649.398 609.586 650.867 610.164 652.086C610.758 653.305 611.594 654.242 612.672 654.898C613.75 655.539 615.023 655.859 616.492 655.859C617.523 655.859 618.445 655.703 619.258 655.391C620.07 655.078 620.75 654.648 621.297 654.102C621.844 653.555 622.234 652.93 622.469 652.227L622.539 652.016H626.547L626.5 652.25C626.297 653.25 625.906 654.188 625.328 655.062C624.766 655.938 624.039 656.711 623.148 657.383C622.258 658.039 621.242 658.555 620.102 658.93C618.961 659.289 617.727 659.469 616.398 659.469ZM630.977 659V634.625H635.055V638.094H635.148C635.805 636.953 636.758 636.016 638.008 635.281C639.258 634.531 640.805 634.156 642.648 634.156C645.32 634.156 647.391 634.969 648.859 636.594C650.344 638.203 651.086 640.398 651.086 643.18V659H647.008V643.906C647.008 641.922 646.539 640.406 645.602 639.359C644.68 638.297 643.281 637.766 641.406 637.766C640.125 637.766 639.008 638.055 638.055 638.633C637.102 639.195 636.359 639.992 635.828 641.023C635.312 642.055 635.055 643.266 635.055 644.656V659H630.977ZM666.391 659.469C664.094 659.469 662.094 658.953 660.391 657.922C658.703 656.875 657.398 655.406 656.477 653.516C655.555 651.609 655.094 649.367 655.094 646.789V646.766C655.094 644.203 655.562 641.977 656.5 640.086C657.438 638.195 658.75 636.734 660.438 635.703C662.125 634.672 664.094 634.156 666.344 634.156C668.375 634.156 670.117 634.555 671.57 635.352C673.023 636.133 674.164 637.148 674.992 638.398C675.836 639.648 676.344 640.969 676.516 642.359L676.539 642.547H672.555L672.508 642.359C672.211 641.141 671.555 640.07 670.539 639.148C669.539 638.227 668.141 637.766 666.344 637.766C664.938 637.766 663.703 638.141 662.641 638.891C661.578 639.625 660.75 640.672 660.156 642.031C659.562 643.375 659.266 644.969 659.266 646.812V646.836C659.266 648.727 659.562 650.344 660.156 651.688C660.766 653.031 661.602 654.062 662.664 654.781C663.742 655.5 664.984 655.859 666.391 655.859C668.062 655.859 669.414 655.438 670.445 654.594C671.492 653.734 672.188 652.625 672.531 651.266L672.578 651.078H676.586L676.562 651.242C676.344 652.789 675.773 654.188 674.852 655.438C673.945 656.672 672.766 657.656 671.312 658.391C669.875 659.109 668.234 659.469 666.391 659.469ZM690.367 659.469C688.039 659.469 686.031 658.953 684.344 657.922C682.672 656.891 681.383 655.438 680.477 653.562C679.586 651.672 679.141 649.453 679.141 646.906V646.883C679.141 644.367 679.594 642.156 680.5 640.25C681.406 638.328 682.68 636.836 684.32 635.773C685.961 634.695 687.891 634.156 690.109 634.156C692.328 634.156 694.234 634.672 695.828 635.703C697.438 636.719 698.672 638.148 699.531 639.992C700.391 641.836 700.82 643.977 700.82 646.414V647.914H681.18V644.727H698.805L696.742 647.68V646.109C696.742 644.219 696.453 642.656 695.875 641.422C695.312 640.188 694.531 639.273 693.531 638.68C692.531 638.07 691.383 637.766 690.086 637.766C688.789 637.766 687.625 638.086 686.594 638.727C685.562 639.352 684.75 640.289 684.156 641.539C683.562 642.773 683.266 644.297 683.266 646.109V647.68C683.266 649.398 683.555 650.867 684.133 652.086C684.727 653.305 685.562 654.242 686.641 654.898C687.719 655.539 688.992 655.859 690.461 655.859C691.492 655.859 692.414 655.703 693.227 655.391C694.039 655.078 694.719 654.648 695.266 654.102C695.812 653.555 696.203 652.93 696.438 652.227L696.508 652.016H700.516L700.469 652.25C700.266 653.25 699.875 654.188 699.297 655.062C698.734 655.938 698.008 656.711 697.117 657.383C696.227 658.039 695.211 658.555 694.07 658.93C692.93 659.289 691.695 659.469 690.367 659.469ZM715.422 667.203V625.18H719.219V667.203H715.422ZM732.93 659L745.516 625.18H748.633V630.242H747.555L737.359 659H732.93ZM738.695 649.32L740.102 645.734H755.102L756.508 649.32H738.695ZM757.82 659L747.648 630.242V625.18H749.688L762.25 659H757.82ZM765.719 659V625.18H769.797V659H765.719ZM785.617 667.672C783.617 667.672 781.867 667.383 780.367 666.805C778.883 666.242 777.68 665.469 776.758 664.484C775.852 663.516 775.266 662.43 775 661.227L774.953 661.016H779.055L779.148 661.227C779.539 662.102 780.289 662.789 781.398 663.289C782.523 663.805 783.914 664.062 785.57 664.062C787.711 664.062 789.367 663.508 790.539 662.398C791.711 661.305 792.297 659.812 792.297 657.922V654.805H792.203C791.719 655.711 791.094 656.492 790.328 657.148C789.562 657.805 788.68 658.32 787.68 658.695C786.695 659.055 785.617 659.234 784.445 659.234C782.398 659.234 780.594 658.719 779.031 657.688C777.484 656.641 776.273 655.18 775.398 653.305C774.539 651.414 774.109 649.203 774.109 646.672V646.648C774.109 644.117 774.547 641.922 775.422 640.062C776.312 638.188 777.539 636.734 779.102 635.703C780.664 634.672 782.477 634.156 784.539 634.156C785.695 634.156 786.758 634.352 787.727 634.742C788.695 635.133 789.555 635.672 790.305 636.359C791.07 637.047 791.703 637.844 792.203 638.75H792.297V634.625H796.375V658.32C796.375 660.211 795.938 661.852 795.062 663.242C794.188 664.648 792.945 665.734 791.336 666.5C789.727 667.281 787.82 667.672 785.617 667.672ZM785.336 655.625C786.727 655.625 787.938 655.258 788.969 654.523C790.016 653.773 790.828 652.727 791.406 651.383C792 650.039 792.297 648.469 792.297 646.672V646.648C792.297 644.852 792 643.289 791.406 641.961C790.828 640.633 790.016 639.602 788.969 638.867C787.922 638.133 786.711 637.766 785.336 637.766C783.898 637.766 782.648 638.133 781.586 638.867C780.523 639.586 779.703 640.609 779.125 641.938C778.562 643.266 778.281 644.836 778.281 646.648V646.672C778.281 648.516 778.562 650.109 779.125 651.453C779.703 652.781 780.523 653.812 781.586 654.547C782.648 655.266 783.898 655.625 785.336 655.625ZM811.75 659.469C809.5 659.469 807.523 658.953 805.82 657.922C804.133 656.891 802.812 655.43 801.859 653.539C800.922 651.633 800.453 649.391 800.453 646.812V646.766C800.453 644.172 800.922 641.938 801.859 640.062C802.812 638.172 804.133 636.719 805.82 635.703C807.523 634.672 809.492 634.156 811.727 634.156C813.977 634.156 815.945 634.672 817.633 635.703C819.336 636.719 820.656 638.172 821.594 640.062C822.547 641.938 823.023 644.172 823.023 646.766V646.812C823.023 649.406 822.547 651.648 821.594 653.539C820.656 655.43 819.344 656.891 817.656 657.922C815.969 658.953 814 659.469 811.75 659.469ZM811.773 655.859C813.211 655.859 814.453 655.508 815.5 654.805C816.562 654.086 817.383 653.055 817.961 651.711C818.555 650.352 818.852 648.719 818.852 646.812V646.766C818.852 644.859 818.555 643.234 817.961 641.891C817.383 640.547 816.555 639.523 815.477 638.82C814.414 638.117 813.164 637.766 811.727 637.766C810.32 637.766 809.078 638.125 808 638.844C806.938 639.547 806.109 640.57 805.516 641.914C804.922 643.242 804.625 644.859 804.625 646.766V646.812C804.625 648.719 804.922 650.352 805.516 651.711C806.109 653.055 806.938 654.086 808 654.805C809.078 655.508 810.336 655.859 811.773 655.859ZM827.148 659V634.625H831.227V638.75H831.32C831.727 637.344 832.43 636.227 833.43 635.398C834.43 634.57 835.617 634.156 836.992 634.156C837.352 634.156 837.672 634.18 837.953 634.227C838.25 634.258 838.477 634.289 838.633 634.32V638.281C838.477 638.219 838.195 638.164 837.789 638.117C837.398 638.07 836.953 638.047 836.453 638.047C835.406 638.047 834.484 638.281 833.688 638.75C832.906 639.219 832.297 639.898 831.859 640.789C831.438 641.664 831.227 642.719 831.227 643.953V659H827.148ZM842.219 659V634.625H846.297V659H842.219ZM844.258 630.5C843.555 630.5 842.953 630.25 842.453 629.75C841.953 629.25 841.703 628.648 841.703 627.945C841.703 627.227 841.953 626.625 842.453 626.141C842.953 625.641 843.555 625.391 844.258 625.391C844.977 625.391 845.578 625.641 846.062 626.141C846.562 626.625 846.812 627.227 846.812 627.945C846.812 628.648 846.562 629.25 846.062 629.75C845.578 630.25 844.977 630.5 844.258 630.5ZM859.773 659.469C857.539 659.469 855.867 658.938 854.758 657.875C853.648 656.812 853.094 655.117 853.094 652.789V638H849.531V634.625H853.094V628.039H857.312V634.625H861.953V638H857.312V652.766C857.312 654.062 857.594 654.945 858.156 655.414C858.719 655.867 859.547 656.094 860.641 656.094C860.891 656.094 861.125 656.086 861.344 656.07C861.578 656.039 861.781 656.016 861.953 656V659.305C861.703 659.336 861.375 659.367 860.969 659.398C860.578 659.445 860.18 659.469 859.773 659.469ZM866.547 659V625.18H870.625V638.516H870.719C871.375 637.141 872.352 636.07 873.648 635.305C874.945 634.539 876.5 634.156 878.312 634.156C880.047 634.156 881.562 634.578 882.859 635.422C884.172 636.25 885.195 637.406 885.93 638.891C886.664 640.375 887.031 642.102 887.031 644.07V659H882.953V644.773C882.953 642.57 882.422 640.852 881.359 639.617C880.297 638.383 878.812 637.766 876.906 637.766C875.656 637.766 874.555 638.062 873.602 638.656C872.664 639.25 871.93 640.07 871.398 641.117C870.883 642.164 870.625 643.383 870.625 644.773V659H866.547ZM892.211 659V634.625H896.289V638.188H896.383C896.93 636.984 897.789 636.016 898.961 635.281C900.133 634.531 901.5 634.156 903.062 634.156C904.172 634.156 905.172 634.344 906.062 634.719C906.969 635.078 907.75 635.609 908.406 636.312C909.062 637 909.562 637.844 909.906 638.844H910C910.453 637.859 911.055 637.023 911.805 636.336C912.57 635.633 913.445 635.094 914.43 634.719C915.43 634.344 916.5 634.156 917.641 634.156C919.25 634.156 920.648 634.492 921.836 635.164C923.023 635.82 923.945 636.75 924.602 637.953C925.258 639.141 925.586 640.547 925.586 642.172V659H921.508V643.109C921.508 641.984 921.305 641.023 920.898 640.227C920.508 639.43 919.938 638.82 919.188 638.398C918.438 637.977 917.523 637.766 916.445 637.766C915.367 637.766 914.414 638.016 913.586 638.516C912.758 639 912.109 639.68 911.641 640.555C911.172 641.414 910.938 642.398 910.938 643.508V659H906.859V642.664C906.859 641.68 906.648 640.82 906.227 640.086C905.82 639.352 905.242 638.781 904.492 638.375C903.758 637.969 902.883 637.766 901.867 637.766C900.789 637.766 899.828 638.031 898.984 638.562C898.156 639.078 897.5 639.781 897.016 640.672C896.531 641.562 896.289 642.578 896.289 643.719V659H892.211ZM939.438 659.469C937.531 659.469 935.883 659.164 934.492 658.555C933.102 657.945 932 657.094 931.188 656C930.391 654.906 929.906 653.633 929.734 652.18L929.711 651.969H933.789L933.836 652.203C934.086 653.422 934.672 654.375 935.594 655.062C936.516 655.734 937.805 656.07 939.461 656.07C940.57 656.07 941.516 655.93 942.297 655.648C943.078 655.352 943.68 654.938 944.102 654.406C944.523 653.859 944.734 653.219 944.734 652.484V652.461C944.734 651.586 944.469 650.883 943.938 650.352C943.406 649.82 942.445 649.383 941.055 649.039L937.188 648.102C935.656 647.727 934.383 647.242 933.367 646.648C932.367 646.039 931.617 645.297 931.117 644.422C930.617 643.547 930.367 642.523 930.367 641.352V641.328C930.367 639.922 930.742 638.68 931.492 637.602C932.258 636.523 933.312 635.68 934.656 635.07C936.016 634.461 937.57 634.156 939.32 634.156C941.102 634.156 942.648 634.477 943.961 635.117C945.289 635.742 946.328 636.602 947.078 637.695C947.844 638.773 948.273 639.992 948.367 641.352L948.391 641.656H944.5L944.477 641.492C944.32 640.305 943.797 639.352 942.906 638.633C942.031 637.914 940.836 637.555 939.32 637.555C938.336 637.555 937.484 637.703 936.766 638C936.047 638.297 935.492 638.719 935.102 639.266C934.727 639.797 934.539 640.422 934.539 641.141V641.164C934.539 641.711 934.664 642.211 934.914 642.664C935.18 643.102 935.594 643.484 936.156 643.812C936.719 644.141 937.445 644.414 938.336 644.633L942.203 645.57C944.672 646.164 946.406 646.984 947.406 648.031C948.406 649.062 948.906 650.445 948.906 652.18V652.203C948.906 653.625 948.492 654.883 947.664 655.977C946.852 657.07 945.727 657.93 944.289 658.555C942.867 659.164 941.25 659.469 939.438 659.469Z" fill="white"/>
</svg>
