<svg width="1280" height="720" viewBox="0 0 1280 720" fill="none" xmlns="http://www.w3.org/2000/svg">
<rect width="1280" height="720" fill="#FF8D28"/>
<path d="M168.875 327.562V312.812H191C196.417 312.812 200.625 311.438 203.625 308.688C206.667 305.896 208.188 301.938 208.188 296.812V296.688C208.188 291.562 206.667 287.625 203.625 284.875C200.625 282.125 196.417 280.75 191 280.75H168.875V265.812H195.625C201.958 265.812 207.5 267.104 212.25 269.688C217 272.229 220.688 275.812 223.312 280.438C225.979 285.062 227.312 290.458 227.312 296.625V296.75C227.312 302.958 225.979 308.375 223.312 313C220.688 317.625 217 321.208 212.25 323.75C207.5 326.292 201.958 327.562 195.625 327.562H168.875ZM159.375 356V265.812H178.25V356H159.375ZM259.75 357.375C254.833 357.375 250.646 356.375 247.188 354.375C243.771 352.333 241.146 349.438 239.312 345.688C237.521 341.938 236.625 337.458 236.625 332.25V289H254.875V328.438C254.875 332.812 255.896 336.208 257.938 338.625C260.021 341.042 263.104 342.25 267.188 342.25C269.229 342.25 271.062 341.896 272.688 341.188C274.354 340.479 275.771 339.479 276.938 338.188C278.104 336.854 279 335.292 279.625 333.5C280.25 331.667 280.562 329.667 280.562 327.5V289H298.812V356H280.562V344.938H280.188C279.021 347.479 277.479 349.688 275.562 351.562C273.688 353.438 271.417 354.875 268.75 355.875C266.125 356.875 263.125 357.375 259.75 357.375ZM310.688 356V289H328.938V300.25H329.312C330.688 296.417 333.021 293.354 336.312 291.062C339.646 288.771 343.562 287.625 348.062 287.625C351.188 287.625 354 288.167 356.5 289.25C359 290.333 361.104 291.896 362.812 293.938C364.562 295.979 365.792 298.479 366.5 301.438H366.875C367.875 298.604 369.375 296.167 371.375 294.125C373.417 292.042 375.812 290.438 378.562 289.312C381.354 288.188 384.396 287.625 387.688 287.625C392.062 287.625 395.896 288.562 399.188 290.438C402.479 292.312 405.042 294.938 406.875 298.312C408.708 301.688 409.625 305.646 409.625 310.188V356H391.375V314.75C391.375 312.167 390.938 309.979 390.062 308.188C389.229 306.396 388 305.042 386.375 304.125C384.792 303.208 382.812 302.75 380.438 302.75C378.146 302.75 376.125 303.271 374.375 304.312C372.667 305.354 371.333 306.812 370.375 308.688C369.417 310.562 368.938 312.75 368.938 315.25V356H351.375V314.188C351.375 311.771 350.938 309.708 350.062 308C349.188 306.292 347.938 305 346.312 304.125C344.729 303.208 342.812 302.75 340.562 302.75C338.271 302.75 336.25 303.292 334.5 304.375C332.75 305.458 331.375 306.958 330.375 308.875C329.417 310.792 328.938 313.021 328.938 315.562V356H310.688ZM421.188 377.875V289H439.438V300.688H439.875C441.083 297.979 442.667 295.646 444.625 293.688C446.625 291.729 448.938 290.229 451.562 289.188C454.229 288.146 457.146 287.625 460.312 287.625C465.979 287.625 470.854 289.021 474.938 291.812C479.021 294.562 482.167 298.542 484.375 303.75C486.583 308.958 487.688 315.188 487.688 322.438V322.5C487.688 329.75 486.583 335.979 484.375 341.188C482.208 346.396 479.104 350.396 475.062 353.188C471.021 355.979 466.188 357.375 460.562 357.375C457.396 357.375 454.458 356.854 451.75 355.812C449.042 354.771 446.688 353.312 444.688 351.438C442.688 349.521 441.062 347.229 439.812 344.562H439.438V377.875H421.188ZM454.312 342.25C457.354 342.25 459.979 341.458 462.188 339.875C464.396 338.25 466.104 335.958 467.312 333C468.521 330.042 469.125 326.542 469.125 322.5V322.438C469.125 318.354 468.521 314.833 467.312 311.875C466.104 308.917 464.375 306.667 462.125 305.125C459.917 303.542 457.312 302.75 454.312 302.75C451.354 302.75 448.75 303.562 446.5 305.188C444.25 306.771 442.5 309.042 441.25 312C440 314.917 439.375 318.417 439.375 322.5V322.562C439.375 326.562 440 330.042 441.25 333C442.542 335.958 444.292 338.25 446.5 339.875C448.75 341.458 451.354 342.25 454.312 342.25ZM497.562 356V289H515.812V356H497.562ZM506.688 280.375C503.938 280.375 501.625 279.438 499.75 277.562C497.875 275.688 496.938 273.458 496.938 270.875C496.938 268.25 497.875 266.021 499.75 264.188C501.625 262.312 503.938 261.375 506.688 261.375C509.438 261.375 511.75 262.312 513.625 264.188C515.5 266.021 516.438 268.25 516.438 270.875C516.438 273.458 515.5 275.688 513.625 277.562C511.75 279.438 509.438 280.375 506.688 280.375ZM528.062 356V289H546.312V300H546.688C548.438 296.167 551.021 293.146 554.438 290.938C557.854 288.729 562.083 287.625 567.125 287.625C574.5 287.625 580.188 289.854 584.188 294.312C588.229 298.729 590.25 304.875 590.25 312.75V356H572V316.5C572 312.125 570.958 308.75 568.875 306.375C566.833 303.958 563.771 302.75 559.688 302.75C556.979 302.75 554.625 303.375 552.625 304.625C550.625 305.833 549.062 307.542 547.938 309.75C546.854 311.958 546.312 314.542 546.312 317.5V356H528.062ZM633.125 379.25C627 379.25 621.646 378.396 617.062 376.688C612.521 375.021 608.896 372.75 606.188 369.875C603.521 367 601.896 363.771 601.312 360.188L601.25 359.625H619L619.188 360.062C619.938 361.688 621.5 363.125 623.875 364.375C626.25 365.625 629.333 366.25 633.125 366.25C637.833 366.25 641.417 365.125 643.875 362.875C646.333 360.625 647.562 357.625 647.562 353.875V343.625H647.188C646.021 345.958 644.438 347.979 642.438 349.688C640.438 351.396 638.083 352.729 635.375 353.688C632.708 354.604 629.75 355.062 626.5 355.062C620.917 355.062 616.083 353.729 612 351.062C607.958 348.396 604.833 344.583 602.625 339.625C600.458 334.625 599.375 328.667 599.375 321.75V321.688C599.375 314.562 600.479 308.458 602.688 303.375C604.938 298.292 608.104 294.396 612.188 291.688C616.271 288.979 621.146 287.625 626.812 287.625C629.979 287.625 632.875 288.146 635.5 289.188C638.125 290.229 640.417 291.708 642.375 293.625C644.375 295.542 645.979 297.812 647.188 300.438H647.562V289H665.812V354.125C665.812 359.083 664.479 363.438 661.812 367.188C659.188 370.979 655.417 373.938 650.5 376.062C645.625 378.188 639.833 379.25 633.125 379.25ZM632.812 341.688C635.812 341.688 638.417 340.896 640.625 339.312C642.833 337.729 644.542 335.479 645.75 332.562C647 329.646 647.625 326.188 647.625 322.188V322.125C647.625 318.125 647 314.688 645.75 311.812C644.542 308.896 642.812 306.667 640.562 305.125C638.354 303.542 635.771 302.75 632.812 302.75C629.812 302.75 627.188 303.542 624.938 305.125C622.688 306.667 620.958 308.875 619.75 311.75C618.542 314.625 617.938 318.083 617.938 322.125V322.188C617.938 326.188 618.542 329.646 619.75 332.562C620.958 335.479 622.688 337.729 624.938 339.312C627.188 340.896 629.812 341.688 632.812 341.688ZM704.75 356V265.812H723.625V340.438H763.062V356H704.75ZM802.312 357.375C795.479 357.375 789.604 355.979 784.688 353.188C779.771 350.354 775.979 346.333 773.312 341.125C770.688 335.917 769.375 329.75 769.375 322.625V322.562C769.375 315.438 770.688 309.271 773.312 304.062C775.979 298.812 779.708 294.771 784.5 291.938C789.333 289.062 795.021 287.625 801.562 287.625C808.104 287.625 813.75 289.021 818.5 291.812C823.292 294.562 826.979 298.458 829.562 303.5C832.188 308.542 833.5 314.438 833.5 321.188V326.812H778.312V315.312H824.875L816.188 326.062V319.062C816.188 315.146 815.583 311.875 814.375 309.25C813.167 306.583 811.479 304.583 809.312 303.25C807.188 301.917 804.708 301.25 801.875 301.25C799.042 301.25 796.521 301.938 794.312 303.312C792.146 304.688 790.438 306.708 789.188 309.375C787.979 312 787.375 315.229 787.375 319.062V326.125C787.375 329.833 787.979 333 789.188 335.625C790.438 338.25 792.208 340.271 794.5 341.688C796.792 343.062 799.521 343.75 802.688 343.75C805.188 343.75 807.354 343.354 809.188 342.562C811.021 341.771 812.521 340.771 813.688 339.562C814.854 338.354 815.646 337.125 816.062 335.875L816.188 335.5H832.938L832.75 336.188C832.25 338.646 831.271 341.125 829.812 343.625C828.354 346.125 826.375 348.417 823.875 350.5C821.417 352.583 818.396 354.25 814.812 355.5C811.271 356.75 807.104 357.375 802.312 357.375ZM842.938 356V289H861.188V300.25H861.562C862.938 296.417 865.271 293.354 868.562 291.062C871.896 288.771 875.812 287.625 880.312 287.625C883.438 287.625 886.25 288.167 888.75 289.25C891.25 290.333 893.354 291.896 895.062 293.938C896.812 295.979 898.042 298.479 898.75 301.438H899.125C900.125 298.604 901.625 296.167 903.625 294.125C905.667 292.042 908.062 290.438 910.812 289.312C913.604 288.188 916.646 287.625 919.938 287.625C924.312 287.625 928.146 288.562 931.438 290.438C934.729 292.312 937.292 294.938 939.125 298.312C940.958 301.688 941.875 305.646 941.875 310.188V356H923.625V314.75C923.625 312.167 923.188 309.979 922.312 308.188C921.479 306.396 920.25 305.042 918.625 304.125C917.042 303.208 915.062 302.75 912.688 302.75C910.396 302.75 908.375 303.271 906.625 304.312C904.917 305.354 903.583 306.812 902.625 308.688C901.667 310.562 901.188 312.75 901.188 315.25V356H883.625V314.188C883.625 311.771 883.188 309.708 882.312 308C881.438 306.292 880.188 305 878.562 304.125C876.979 303.208 875.062 302.75 872.812 302.75C870.521 302.75 868.5 303.292 866.75 304.375C865 305.458 863.625 306.958 862.625 308.875C861.667 310.792 861.188 313.021 861.188 315.562V356H842.938ZM953.438 356V289H971.688V300.25H972.062C973.438 296.417 975.771 293.354 979.062 291.062C982.396 288.771 986.312 287.625 990.812 287.625C993.938 287.625 996.75 288.167 999.25 289.25C1001.75 290.333 1003.85 291.896 1005.56 293.938C1007.31 295.979 1008.54 298.479 1009.25 301.438H1009.62C1010.62 298.604 1012.12 296.167 1014.12 294.125C1016.17 292.042 1018.56 290.438 1021.31 289.312C1024.1 288.188 1027.15 287.625 1030.44 287.625C1034.81 287.625 1038.65 288.562 1041.94 290.438C1045.23 292.312 1047.79 294.938 1049.62 298.312C1051.46 301.688 1052.38 305.646 1052.38 310.188V356H1034.12V314.75C1034.12 312.167 1033.69 309.979 1032.81 308.188C1031.98 306.396 1030.75 305.042 1029.12 304.125C1027.54 303.208 1025.56 302.75 1023.19 302.75C1020.9 302.75 1018.88 303.271 1017.12 304.312C1015.42 305.354 1014.08 306.812 1013.12 308.688C1012.17 310.562 1011.69 312.75 1011.69 315.25V356H994.125V314.188C994.125 311.771 993.688 309.708 992.812 308C991.938 306.292 990.688 305 989.062 304.125C987.479 303.208 985.562 302.75 983.312 302.75C981.021 302.75 979 303.292 977.25 304.375C975.5 305.458 974.125 306.958 973.125 308.875C972.167 310.792 971.688 313.021 971.688 315.562V356H953.438ZM1083.88 357.062C1079.42 357.062 1075.5 356.208 1072.12 354.5C1068.75 352.75 1066.1 350.354 1064.19 347.312C1062.31 344.229 1061.38 340.729 1061.38 336.812V336.688C1061.38 332.604 1062.4 329.125 1064.44 326.25C1066.48 323.333 1069.44 321.042 1073.31 319.375C1077.19 317.708 1081.9 316.688 1087.44 316.312L1113.56 314.688V326.062L1090.19 327.562C1086.69 327.771 1084.02 328.604 1082.19 330.062C1080.35 331.479 1079.44 333.375 1079.44 335.75V335.875C1079.44 338.333 1080.38 340.271 1082.25 341.688C1084.12 343.062 1086.65 343.75 1089.81 343.75C1092.52 343.75 1094.94 343.229 1097.06 342.188C1099.23 341.104 1100.92 339.646 1102.12 337.812C1103.38 335.938 1104 333.833 1104 331.5V311.188C1104 308.229 1103.06 305.896 1101.19 304.188C1099.31 302.438 1096.58 301.562 1093 301.562C1089.58 301.562 1086.88 302.271 1084.88 303.688C1082.88 305.104 1081.65 306.896 1081.19 309.062L1081.06 309.625H1064.38L1064.44 308.875C1064.77 304.75 1066.12 301.083 1068.5 297.875C1070.92 294.667 1074.25 292.167 1078.5 290.375C1082.79 288.542 1087.88 287.625 1093.75 287.625C1099.54 287.625 1104.56 288.562 1108.81 290.438C1113.06 292.271 1116.35 294.875 1118.69 298.25C1121.06 301.625 1122.25 305.562 1122.25 310.062V356H1104V346H1103.62C1102.38 348.292 1100.75 350.271 1098.75 351.938C1096.79 353.562 1094.56 354.833 1092.06 355.75C1089.56 356.625 1086.83 357.062 1083.88 357.062Z" fill="white"/>
<path d="M270.648 658.562C267.523 658.562 264.797 657.844 262.469 656.406C260.156 654.969 258.367 652.945 257.102 650.336C255.836 647.711 255.203 644.625 255.203 641.078V641.055C255.203 637.508 255.836 634.43 257.102 631.82C258.367 629.211 260.156 627.195 262.469 625.773C264.781 624.336 267.508 623.617 270.648 623.617C272.992 623.617 275.125 624.062 277.047 624.953C278.969 625.844 280.57 627.086 281.852 628.68C283.148 630.273 284.008 632.141 284.43 634.281L284.477 634.516H280.211L280.047 634C279.609 632.625 278.953 631.461 278.078 630.508C277.219 629.539 276.164 628.797 274.914 628.281C273.664 627.766 272.242 627.508 270.648 627.508C268.398 627.508 266.438 628.07 264.766 629.195C263.109 630.305 261.82 631.875 260.898 633.906C259.992 635.922 259.539 638.305 259.539 641.055V641.078C259.539 643.812 259.992 646.203 260.898 648.25C261.82 650.281 263.117 651.859 264.789 652.984C266.461 654.109 268.414 654.672 270.648 654.672C272.227 654.672 273.633 654.414 274.867 653.898C276.117 653.383 277.188 652.625 278.078 651.625C278.969 650.609 279.656 649.359 280.141 647.875L280.211 647.664H284.477L284.43 647.898C284.008 650.055 283.156 651.938 281.875 653.547C280.594 655.141 278.992 656.375 277.07 657.25C275.148 658.125 273.008 658.562 270.648 658.562ZM298.938 658.469C296.688 658.469 294.711 657.953 293.008 656.922C291.32 655.891 290 654.43 289.047 652.539C288.109 650.633 287.641 648.391 287.641 645.812V645.766C287.641 643.172 288.109 640.938 289.047 639.062C290 637.172 291.32 635.719 293.008 634.703C294.711 633.672 296.68 633.156 298.914 633.156C301.164 633.156 303.133 633.672 304.82 634.703C306.523 635.719 307.844 637.172 308.781 639.062C309.734 640.938 310.211 643.172 310.211 645.766V645.812C310.211 648.406 309.734 650.648 308.781 652.539C307.844 654.43 306.531 655.891 304.844 656.922C303.156 657.953 301.188 658.469 298.938 658.469ZM298.961 654.859C300.398 654.859 301.641 654.508 302.688 653.805C303.75 653.086 304.57 652.055 305.148 650.711C305.742 649.352 306.039 647.719 306.039 645.812V645.766C306.039 643.859 305.742 642.234 305.148 640.891C304.57 639.547 303.742 638.523 302.664 637.82C301.602 637.117 300.352 636.766 298.914 636.766C297.508 636.766 296.266 637.125 295.188 637.844C294.125 638.547 293.297 639.57 292.703 640.914C292.109 642.242 291.812 643.859 291.812 645.766V645.812C291.812 647.719 292.109 649.352 292.703 650.711C293.297 652.055 294.125 653.086 295.188 653.805C296.266 654.508 297.523 654.859 298.961 654.859ZM314.336 658V633.625H318.414V637.188H318.508C319.055 635.984 319.914 635.016 321.086 634.281C322.258 633.531 323.625 633.156 325.188 633.156C326.297 633.156 327.297 633.344 328.188 633.719C329.094 634.078 329.875 634.609 330.531 635.312C331.188 636 331.688 636.844 332.031 637.844H332.125C332.578 636.859 333.18 636.023 333.93 635.336C334.695 634.633 335.57 634.094 336.555 633.719C337.555 633.344 338.625 633.156 339.766 633.156C341.375 633.156 342.773 633.492 343.961 634.164C345.148 634.82 346.07 635.75 346.727 636.953C347.383 638.141 347.711 639.547 347.711 641.172V658H343.633V642.109C343.633 640.984 343.43 640.023 343.023 639.227C342.633 638.43 342.062 637.82 341.312 637.398C340.562 636.977 339.648 636.766 338.57 636.766C337.492 636.766 336.539 637.016 335.711 637.516C334.883 638 334.234 638.68 333.766 639.555C333.297 640.414 333.062 641.398 333.062 642.508V658H328.984V641.664C328.984 640.68 328.773 639.82 328.352 639.086C327.945 638.352 327.367 637.781 326.617 637.375C325.883 636.969 325.008 636.766 323.992 636.766C322.914 636.766 321.953 637.031 321.109 637.562C320.281 638.078 319.625 638.781 319.141 639.672C318.656 640.562 318.414 641.578 318.414 642.719V658H314.336ZM352.914 666.203V633.625H356.992V637.75H357.086C357.602 636.797 358.234 635.984 358.984 635.312C359.75 634.625 360.625 634.094 361.609 633.719C362.594 633.344 363.664 633.156 364.82 633.156C366.898 633.156 368.711 633.68 370.258 634.727C371.82 635.758 373.031 637.227 373.891 639.133C374.75 641.023 375.18 643.25 375.18 645.812V645.836C375.18 648.398 374.742 650.625 373.867 652.516C373.008 654.406 371.805 655.875 370.258 656.922C368.727 657.953 366.938 658.469 364.891 658.469C363.75 658.469 362.68 658.289 361.68 657.93C360.68 657.555 359.789 657.031 359.008 656.359C358.242 655.672 357.602 654.859 357.086 653.922H356.992V666.203H352.914ZM364.023 654.859C365.461 654.859 366.703 654.492 367.75 653.758C368.797 653.023 369.602 651.984 370.164 650.641C370.727 649.281 371.008 647.68 371.008 645.836V645.812C371.008 643.938 370.727 642.328 370.164 640.984C369.602 639.625 368.797 638.586 367.75 637.867C366.703 637.133 365.461 636.766 364.023 636.766C362.648 636.766 361.43 637.141 360.367 637.891C359.305 638.641 358.469 639.695 357.859 641.055C357.266 642.398 356.969 643.984 356.969 645.812V645.836C356.969 647.648 357.273 649.234 357.883 650.594C358.492 651.938 359.32 652.984 360.367 653.734C361.43 654.484 362.648 654.859 364.023 654.859ZM387.625 658.469C385.844 658.469 384.32 658.102 383.055 657.367C381.805 656.633 380.844 655.594 380.172 654.25C379.516 652.891 379.188 651.289 379.188 649.445V633.625H383.266V648.719C383.266 650.703 383.727 652.227 384.648 653.289C385.586 654.336 386.992 654.859 388.867 654.859C389.836 654.859 390.703 654.695 391.469 654.367C392.25 654.039 392.922 653.578 393.484 652.984C394.047 652.375 394.477 651.648 394.773 650.805C395.07 649.945 395.219 649 395.219 647.969V633.625H399.297V658H395.219V654.531H395.125C394.688 655.281 394.117 655.953 393.414 656.547C392.727 657.141 391.898 657.609 390.93 657.953C389.961 658.297 388.859 658.469 387.625 658.469ZM412.539 658.469C410.305 658.469 408.633 657.938 407.523 656.875C406.414 655.812 405.859 654.117 405.859 651.789V637H402.297V633.625H405.859V627.039H410.078V633.625H414.719V637H410.078V651.766C410.078 653.062 410.359 653.945 410.922 654.414C411.484 654.867 412.312 655.094 413.406 655.094C413.656 655.094 413.891 655.086 414.109 655.07C414.344 655.039 414.547 655.016 414.719 655V658.305C414.469 658.336 414.141 658.367 413.734 658.398C413.344 658.445 412.945 658.469 412.539 658.469ZM428.43 658.469C426.102 658.469 424.094 657.953 422.406 656.922C420.734 655.891 419.445 654.438 418.539 652.562C417.648 650.672 417.203 648.453 417.203 645.906V645.883C417.203 643.367 417.656 641.156 418.562 639.25C419.469 637.328 420.742 635.836 422.383 634.773C424.023 633.695 425.953 633.156 428.172 633.156C430.391 633.156 432.297 633.672 433.891 634.703C435.5 635.719 436.734 637.148 437.594 638.992C438.453 640.836 438.883 642.977 438.883 645.414V646.914H419.242V643.727H436.867L434.805 646.68V645.109C434.805 643.219 434.516 641.656 433.938 640.422C433.375 639.188 432.594 638.273 431.594 637.68C430.594 637.07 429.445 636.766 428.148 636.766C426.852 636.766 425.688 637.086 424.656 637.727C423.625 638.352 422.812 639.289 422.219 640.539C421.625 641.773 421.328 643.297 421.328 645.109V646.68C421.328 648.398 421.617 649.867 422.195 651.086C422.789 652.305 423.625 653.242 424.703 653.898C425.781 654.539 427.055 654.859 428.523 654.859C429.555 654.859 430.477 654.703 431.289 654.391C432.102 654.078 432.781 653.648 433.328 653.102C433.875 652.555 434.266 651.93 434.5 651.227L434.57 651.016H438.578L438.531 651.25C438.328 652.25 437.938 653.188 437.359 654.062C436.797 654.938 436.07 655.711 435.18 656.383C434.289 657.039 433.273 657.555 432.133 657.93C430.992 658.289 429.758 658.469 428.43 658.469ZM443.008 658V633.625H447.086V637.75H447.18C447.586 636.344 448.289 635.227 449.289 634.398C450.289 633.57 451.477 633.156 452.852 633.156C453.211 633.156 453.531 633.18 453.812 633.227C454.109 633.258 454.336 633.289 454.492 633.32V637.281C454.336 637.219 454.055 637.164 453.648 637.117C453.258 637.07 452.812 637.047 452.312 637.047C451.266 637.047 450.344 637.281 449.547 637.75C448.766 638.219 448.156 638.898 447.719 639.789C447.297 640.664 447.086 641.719 447.086 642.953V658H443.008ZM479.359 658.562C476.922 658.562 474.773 658.188 472.914 657.438C471.07 656.672 469.602 655.586 468.508 654.18C467.43 652.773 466.82 651.109 466.68 649.188L466.656 648.859H470.875L470.922 649.188C471.094 650.312 471.555 651.289 472.305 652.117C473.055 652.93 474.047 653.562 475.281 654.016C476.531 654.453 477.969 654.672 479.594 654.672C481.219 654.672 482.625 654.445 483.812 653.992C485 653.523 485.914 652.859 486.555 652C487.211 651.141 487.539 650.133 487.539 648.977V648.953C487.539 647.469 487.023 646.281 485.992 645.391C484.961 644.5 483.281 643.797 480.953 643.281L477.203 642.461C473.906 641.727 471.461 640.602 469.867 639.086C468.289 637.555 467.5 635.555 467.5 633.086V633.062C467.516 631.203 468.031 629.57 469.047 628.164C470.062 626.742 471.461 625.633 473.242 624.836C475.039 624.023 477.094 623.617 479.406 623.617C481.609 623.617 483.578 624.016 485.312 624.812C487.047 625.594 488.43 626.688 489.461 628.094C490.508 629.5 491.094 631.125 491.219 632.969L491.242 633.32H487.023L486.977 632.992C486.805 631.836 486.383 630.852 485.711 630.039C485.039 629.227 484.156 628.602 483.062 628.164C481.984 627.727 480.727 627.508 479.289 627.508C477.789 627.508 476.477 627.734 475.352 628.188C474.227 628.641 473.352 629.273 472.727 630.086C472.117 630.898 471.812 631.852 471.812 632.945V632.969C471.812 634.344 472.336 635.477 473.383 636.367C474.43 637.258 476.055 637.945 478.258 638.43L482.008 639.25C484.32 639.75 486.195 640.414 487.633 641.242C489.086 642.07 490.148 643.102 490.82 644.336C491.508 645.555 491.852 647.023 491.852 648.742V648.766C491.852 650.766 491.344 652.5 490.328 653.969C489.328 655.438 487.891 656.57 486.016 657.367C484.156 658.164 481.938 658.562 479.359 658.562ZM506.266 658.469C503.969 658.469 501.969 657.953 500.266 656.922C498.578 655.875 497.273 654.406 496.352 652.516C495.43 650.609 494.969 648.367 494.969 645.789V645.766C494.969 643.203 495.438 640.977 496.375 639.086C497.312 637.195 498.625 635.734 500.312 634.703C502 633.672 503.969 633.156 506.219 633.156C508.25 633.156 509.992 633.555 511.445 634.352C512.898 635.133 514.039 636.148 514.867 637.398C515.711 638.648 516.219 639.969 516.391 641.359L516.414 641.547H512.43L512.383 641.359C512.086 640.141 511.43 639.07 510.414 638.148C509.414 637.227 508.016 636.766 506.219 636.766C504.812 636.766 503.578 637.141 502.516 637.891C501.453 638.625 500.625 639.672 500.031 641.031C499.438 642.375 499.141 643.969 499.141 645.812V645.836C499.141 647.727 499.438 649.344 500.031 650.688C500.641 652.031 501.477 653.062 502.539 653.781C503.617 654.5 504.859 654.859 506.266 654.859C507.938 654.859 509.289 654.438 510.32 653.594C511.367 652.734 512.062 651.625 512.406 650.266L512.453 650.078H516.461L516.438 650.242C516.219 651.789 515.648 653.188 514.727 654.438C513.82 655.672 512.641 656.656 511.188 657.391C509.75 658.109 508.109 658.469 506.266 658.469ZM520.469 658V633.625H524.547V658H520.469ZM522.508 629.5C521.805 629.5 521.203 629.25 520.703 628.75C520.203 628.25 519.953 627.648 519.953 626.945C519.953 626.227 520.203 625.625 520.703 625.141C521.203 624.641 521.805 624.391 522.508 624.391C523.227 624.391 523.828 624.641 524.312 625.141C524.812 625.625 525.062 626.227 525.062 626.945C525.062 627.648 524.812 628.25 524.312 628.75C523.828 629.25 523.227 629.5 522.508 629.5ZM540.133 658.469C537.805 658.469 535.797 657.953 534.109 656.922C532.438 655.891 531.148 654.438 530.242 652.562C529.352 650.672 528.906 648.453 528.906 645.906V645.883C528.906 643.367 529.359 641.156 530.266 639.25C531.172 637.328 532.445 635.836 534.086 634.773C535.727 633.695 537.656 633.156 539.875 633.156C542.094 633.156 544 633.672 545.594 634.703C547.203 635.719 548.438 637.148 549.297 638.992C550.156 640.836 550.586 642.977 550.586 645.414V646.914H530.945V643.727H548.57L546.508 646.68V645.109C546.508 643.219 546.219 641.656 545.641 640.422C545.078 639.188 544.297 638.273 543.297 637.68C542.297 637.07 541.148 636.766 539.852 636.766C538.555 636.766 537.391 637.086 536.359 637.727C535.328 638.352 534.516 639.289 533.922 640.539C533.328 641.773 533.031 643.297 533.031 645.109V646.68C533.031 648.398 533.32 649.867 533.898 651.086C534.492 652.305 535.328 653.242 536.406 653.898C537.484 654.539 538.758 654.859 540.227 654.859C541.258 654.859 542.18 654.703 542.992 654.391C543.805 654.078 544.484 653.648 545.031 653.102C545.578 652.555 545.969 651.93 546.203 651.227L546.273 651.016H550.281L550.234 651.25C550.031 652.25 549.641 653.188 549.062 654.062C548.5 654.938 547.773 655.711 546.883 656.383C545.992 657.039 544.977 657.555 543.836 657.93C542.695 658.289 541.461 658.469 540.133 658.469ZM554.711 658V633.625H558.789V637.094H558.883C559.539 635.953 560.492 635.016 561.742 634.281C562.992 633.531 564.539 633.156 566.383 633.156C569.055 633.156 571.125 633.969 572.594 635.594C574.078 637.203 574.82 639.398 574.82 642.18V658H570.742V642.906C570.742 640.922 570.273 639.406 569.336 638.359C568.414 637.297 567.016 636.766 565.141 636.766C563.859 636.766 562.742 637.055 561.789 637.633C560.836 638.195 560.094 638.992 559.562 640.023C559.047 641.055 558.789 642.266 558.789 643.656V658H554.711ZM590.125 658.469C587.828 658.469 585.828 657.953 584.125 656.922C582.438 655.875 581.133 654.406 580.211 652.516C579.289 650.609 578.828 648.367 578.828 645.789V645.766C578.828 643.203 579.297 640.977 580.234 639.086C581.172 637.195 582.484 635.734 584.172 634.703C585.859 633.672 587.828 633.156 590.078 633.156C592.109 633.156 593.852 633.555 595.305 634.352C596.758 635.133 597.898 636.148 598.727 637.398C599.57 638.648 600.078 639.969 600.25 641.359L600.273 641.547H596.289L596.242 641.359C595.945 640.141 595.289 639.07 594.273 638.148C593.273 637.227 591.875 636.766 590.078 636.766C588.672 636.766 587.438 637.141 586.375 637.891C585.312 638.625 584.484 639.672 583.891 641.031C583.297 642.375 583 643.969 583 645.812V645.836C583 647.727 583.297 649.344 583.891 650.688C584.5 652.031 585.336 653.062 586.398 653.781C587.477 654.5 588.719 654.859 590.125 654.859C591.797 654.859 593.148 654.438 594.18 653.594C595.227 652.734 595.922 651.625 596.266 650.266L596.312 650.078H600.32L600.297 650.242C600.078 651.789 599.508 653.188 598.586 654.438C597.68 655.672 596.5 656.656 595.047 657.391C593.609 658.109 591.969 658.469 590.125 658.469ZM614.102 658.469C611.773 658.469 609.766 657.953 608.078 656.922C606.406 655.891 605.117 654.438 604.211 652.562C603.32 650.672 602.875 648.453 602.875 645.906V645.883C602.875 643.367 603.328 641.156 604.234 639.25C605.141 637.328 606.414 635.836 608.055 634.773C609.695 633.695 611.625 633.156 613.844 633.156C616.062 633.156 617.969 633.672 619.562 634.703C621.172 635.719 622.406 637.148 623.266 638.992C624.125 640.836 624.555 642.977 624.555 645.414V646.914H604.914V643.727H622.539L620.477 646.68V645.109C620.477 643.219 620.188 641.656 619.609 640.422C619.047 639.188 618.266 638.273 617.266 637.68C616.266 637.07 615.117 636.766 613.82 636.766C612.523 636.766 611.359 637.086 610.328 637.727C609.297 638.352 608.484 639.289 607.891 640.539C607.297 641.773 607 643.297 607 645.109V646.68C607 648.398 607.289 649.867 607.867 651.086C608.461 652.305 609.297 653.242 610.375 653.898C611.453 654.539 612.727 654.859 614.195 654.859C615.227 654.859 616.148 654.703 616.961 654.391C617.773 654.078 618.453 653.648 619 653.102C619.547 652.555 619.938 651.93 620.172 651.227L620.242 651.016H624.25L624.203 651.25C624 652.25 623.609 653.188 623.031 654.062C622.469 654.938 621.742 655.711 620.852 656.383C619.961 657.039 618.945 657.555 617.805 657.93C616.664 658.289 615.43 658.469 614.102 658.469ZM639.156 666.203V624.18H642.953V666.203H639.156ZM659.359 658V624.18H679.891V627.977H663.578V639.602H678.555V643.352H663.578V658H659.359ZM693.25 658.469C691 658.469 689.023 657.953 687.32 656.922C685.633 655.891 684.312 654.43 683.359 652.539C682.422 650.633 681.953 648.391 681.953 645.812V645.766C681.953 643.172 682.422 640.938 683.359 639.062C684.312 637.172 685.633 635.719 687.32 634.703C689.023 633.672 690.992 633.156 693.227 633.156C695.477 633.156 697.445 633.672 699.133 634.703C700.836 635.719 702.156 637.172 703.094 639.062C704.047 640.938 704.523 643.172 704.523 645.766V645.812C704.523 648.406 704.047 650.648 703.094 652.539C702.156 654.43 700.844 655.891 699.156 656.922C697.469 657.953 695.5 658.469 693.25 658.469ZM693.273 654.859C694.711 654.859 695.953 654.508 697 653.805C698.062 653.086 698.883 652.055 699.461 650.711C700.055 649.352 700.352 647.719 700.352 645.812V645.766C700.352 643.859 700.055 642.234 699.461 640.891C698.883 639.547 698.055 638.523 696.977 637.82C695.914 637.117 694.664 636.766 693.227 636.766C691.82 636.766 690.578 637.125 689.5 637.844C688.438 638.547 687.609 639.57 687.016 640.914C686.422 642.242 686.125 643.859 686.125 645.766V645.812C686.125 647.719 686.422 649.352 687.016 650.711C687.609 652.055 688.438 653.086 689.5 653.805C690.578 654.508 691.836 654.859 693.273 654.859ZM708.648 658V633.625H712.727V637.75H712.82C713.227 636.344 713.93 635.227 714.93 634.398C715.93 633.57 717.117 633.156 718.492 633.156C718.852 633.156 719.172 633.18 719.453 633.227C719.75 633.258 719.977 633.289 720.133 633.32V637.281C719.977 637.219 719.695 637.164 719.289 637.117C718.898 637.07 718.453 637.047 717.953 637.047C716.906 637.047 715.984 637.281 715.188 637.75C714.406 638.219 713.797 638.898 713.359 639.789C712.938 640.664 712.727 641.719 712.727 642.953V658H708.648ZM723.461 658V633.625H727.539V637.188H727.633C728.18 635.984 729.039 635.016 730.211 634.281C731.383 633.531 732.75 633.156 734.312 633.156C735.422 633.156 736.422 633.344 737.312 633.719C738.219 634.078 739 634.609 739.656 635.312C740.312 636 740.812 636.844 741.156 637.844H741.25C741.703 636.859 742.305 636.023 743.055 635.336C743.82 634.633 744.695 634.094 745.68 633.719C746.68 633.344 747.75 633.156 748.891 633.156C750.5 633.156 751.898 633.492 753.086 634.164C754.273 634.82 755.195 635.75 755.852 636.953C756.508 638.141 756.836 639.547 756.836 641.172V658H752.758V642.109C752.758 640.984 752.555 640.023 752.148 639.227C751.758 638.43 751.188 637.82 750.438 637.398C749.688 636.977 748.773 636.766 747.695 636.766C746.617 636.766 745.664 637.016 744.836 637.516C744.008 638 743.359 638.68 742.891 639.555C742.422 640.414 742.188 641.398 742.188 642.508V658H738.109V641.664C738.109 640.68 737.898 639.82 737.477 639.086C737.07 638.352 736.492 637.781 735.742 637.375C735.008 636.969 734.133 636.766 733.117 636.766C732.039 636.766 731.078 637.031 730.234 637.562C729.406 638.078 728.75 638.781 728.266 639.672C727.781 640.562 727.539 641.578 727.539 642.719V658H723.461ZM769.164 658.469C767.555 658.469 766.141 658.164 764.922 657.555C763.703 656.945 762.75 656.086 762.062 654.977C761.391 653.867 761.055 652.578 761.055 651.109V651.062C761.055 649.672 761.398 648.469 762.086 647.453C762.789 646.438 763.797 645.633 765.109 645.039C766.438 644.445 768.031 644.094 769.891 643.984L778.914 643.469V646.633L770.359 647.148C768.734 647.242 767.469 647.633 766.562 648.32C765.672 649.008 765.227 649.922 765.227 651.062V651.109C765.227 652.281 765.664 653.211 766.539 653.898C767.43 654.586 768.609 654.93 770.078 654.93C771.359 654.93 772.508 654.664 773.523 654.133C774.555 653.586 775.367 652.844 775.961 651.906C776.57 650.969 776.875 649.914 776.875 648.742V641.547C776.875 640.062 776.406 638.898 775.469 638.055C774.547 637.195 773.234 636.766 771.531 636.766C769.969 636.766 768.703 637.109 767.734 637.797C766.781 638.469 766.188 639.352 765.953 640.445L765.906 640.656H761.969L761.992 640.398C762.117 639.055 762.57 637.836 763.352 636.742C764.148 635.648 765.242 634.781 766.633 634.141C768.023 633.484 769.672 633.156 771.578 633.156C773.5 633.156 775.156 633.484 776.547 634.141C777.953 634.797 779.039 635.727 779.805 636.93C780.57 638.117 780.953 639.523 780.953 641.148V658H776.875V654.039H776.781C776.312 654.93 775.688 655.711 774.906 656.383C774.125 657.039 773.242 657.555 772.258 657.93C771.289 658.289 770.258 658.469 769.164 658.469ZM786.344 658V624.18H790.422V658H786.344ZM806.406 658V624.18H810.625V654.203H826.938V658H806.406ZM838.07 658.469C836.461 658.469 835.047 658.164 833.828 657.555C832.609 656.945 831.656 656.086 830.969 654.977C830.297 653.867 829.961 652.578 829.961 651.109V651.062C829.961 649.672 830.305 648.469 830.992 647.453C831.695 646.438 832.703 645.633 834.016 645.039C835.344 644.445 836.938 644.094 838.797 643.984L847.82 643.469V646.633L839.266 647.148C837.641 647.242 836.375 647.633 835.469 648.32C834.578 649.008 834.133 649.922 834.133 651.062V651.109C834.133 652.281 834.57 653.211 835.445 653.898C836.336 654.586 837.516 654.93 838.984 654.93C840.266 654.93 841.414 654.664 842.43 654.133C843.461 653.586 844.273 652.844 844.867 651.906C845.477 650.969 845.781 649.914 845.781 648.742V641.547C845.781 640.062 845.312 638.898 844.375 638.055C843.453 637.195 842.141 636.766 840.438 636.766C838.875 636.766 837.609 637.109 836.641 637.797C835.688 638.469 835.094 639.352 834.859 640.445L834.812 640.656H830.875L830.898 640.398C831.023 639.055 831.477 637.836 832.258 636.742C833.055 635.648 834.148 634.781 835.539 634.141C836.93 633.484 838.578 633.156 840.484 633.156C842.406 633.156 844.062 633.484 845.453 634.141C846.859 634.797 847.945 635.727 848.711 636.93C849.477 638.117 849.859 639.523 849.859 641.148V658H845.781V654.039H845.688C845.219 654.93 844.594 655.711 843.812 656.383C843.031 657.039 842.148 657.555 841.164 657.93C840.195 658.289 839.164 658.469 838.07 658.469ZM855.039 658V633.625H859.117V637.094H859.211C859.867 635.953 860.82 635.016 862.07 634.281C863.32 633.531 864.867 633.156 866.711 633.156C869.383 633.156 871.453 633.969 872.922 635.594C874.406 637.203 875.148 639.398 875.148 642.18V658H871.07V642.906C871.07 640.922 870.602 639.406 869.664 638.359C868.742 637.297 867.344 636.766 865.469 636.766C864.188 636.766 863.07 637.055 862.117 637.633C861.164 638.195 860.422 638.992 859.891 640.023C859.375 641.055 859.117 642.266 859.117 643.656V658H855.039ZM890.664 666.672C888.664 666.672 886.914 666.383 885.414 665.805C883.93 665.242 882.727 664.469 881.805 663.484C880.898 662.516 880.312 661.43 880.047 660.227L880 660.016H884.102L884.195 660.227C884.586 661.102 885.336 661.789 886.445 662.289C887.57 662.805 888.961 663.062 890.617 663.062C892.758 663.062 894.414 662.508 895.586 661.398C896.758 660.305 897.344 658.812 897.344 656.922V653.805H897.25C896.766 654.711 896.141 655.492 895.375 656.148C894.609 656.805 893.727 657.32 892.727 657.695C891.742 658.055 890.664 658.234 889.492 658.234C887.445 658.234 885.641 657.719 884.078 656.688C882.531 655.641 881.32 654.18 880.445 652.305C879.586 650.414 879.156 648.203 879.156 645.672V645.648C879.156 643.117 879.594 640.922 880.469 639.062C881.359 637.188 882.586 635.734 884.148 634.703C885.711 633.672 887.523 633.156 889.586 633.156C890.742 633.156 891.805 633.352 892.773 633.742C893.742 634.133 894.602 634.672 895.352 635.359C896.117 636.047 896.75 636.844 897.25 637.75H897.344V633.625H901.422V657.32C901.422 659.211 900.984 660.852 900.109 662.242C899.234 663.648 897.992 664.734 896.383 665.5C894.773 666.281 892.867 666.672 890.664 666.672ZM890.383 654.625C891.773 654.625 892.984 654.258 894.016 653.523C895.062 652.773 895.875 651.727 896.453 650.383C897.047 649.039 897.344 647.469 897.344 645.672V645.648C897.344 643.852 897.047 642.289 896.453 640.961C895.875 639.633 895.062 638.602 894.016 637.867C892.969 637.133 891.758 636.766 890.383 636.766C888.945 636.766 887.695 637.133 886.633 637.867C885.57 638.586 884.75 639.609 884.172 640.938C883.609 642.266 883.328 643.836 883.328 645.648V645.672C883.328 647.516 883.609 649.109 884.172 650.453C884.75 651.781 885.57 652.812 886.633 653.547C887.695 654.266 888.945 654.625 890.383 654.625ZM915.016 658.469C913.234 658.469 911.711 658.102 910.445 657.367C909.195 656.633 908.234 655.594 907.562 654.25C906.906 652.891 906.578 651.289 906.578 649.445V633.625H910.656V648.719C910.656 650.703 911.117 652.227 912.039 653.289C912.977 654.336 914.383 654.859 916.258 654.859C917.227 654.859 918.094 654.695 918.859 654.367C919.641 654.039 920.312 653.578 920.875 652.984C921.438 652.375 921.867 651.648 922.164 650.805C922.461 649.945 922.609 649 922.609 647.969V633.625H926.688V658H922.609V654.531H922.516C922.078 655.281 921.508 655.953 920.805 656.547C920.117 657.141 919.289 657.609 918.32 657.953C917.352 658.297 916.25 658.469 915.016 658.469ZM939.133 658.469C937.523 658.469 936.109 658.164 934.891 657.555C933.672 656.945 932.719 656.086 932.031 654.977C931.359 653.867 931.023 652.578 931.023 651.109V651.062C931.023 649.672 931.367 648.469 932.055 647.453C932.758 646.438 933.766 645.633 935.078 645.039C936.406 644.445 938 644.094 939.859 643.984L948.883 643.469V646.633L940.328 647.148C938.703 647.242 937.438 647.633 936.531 648.32C935.641 649.008 935.195 649.922 935.195 651.062V651.109C935.195 652.281 935.633 653.211 936.508 653.898C937.398 654.586 938.578 654.93 940.047 654.93C941.328 654.93 942.477 654.664 943.492 654.133C944.523 653.586 945.336 652.844 945.93 651.906C946.539 650.969 946.844 649.914 946.844 648.742V641.547C946.844 640.062 946.375 638.898 945.438 638.055C944.516 637.195 943.203 636.766 941.5 636.766C939.938 636.766 938.672 637.109 937.703 637.797C936.75 638.469 936.156 639.352 935.922 640.445L935.875 640.656H931.938L931.961 640.398C932.086 639.055 932.539 637.836 933.32 636.742C934.117 635.648 935.211 634.781 936.602 634.141C937.992 633.484 939.641 633.156 941.547 633.156C943.469 633.156 945.125 633.484 946.516 634.141C947.922 634.797 949.008 635.727 949.773 636.93C950.539 638.117 950.922 639.523 950.922 641.148V658H946.844V654.039H946.75C946.281 654.93 945.656 655.711 944.875 656.383C944.094 657.039 943.211 657.555 942.227 657.93C941.258 658.289 940.227 658.469 939.133 658.469ZM966.414 666.672C964.414 666.672 962.664 666.383 961.164 665.805C959.68 665.242 958.477 664.469 957.555 663.484C956.648 662.516 956.062 661.43 955.797 660.227L955.75 660.016H959.852L959.945 660.227C960.336 661.102 961.086 661.789 962.195 662.289C963.32 662.805 964.711 663.062 966.367 663.062C968.508 663.062 970.164 662.508 971.336 661.398C972.508 660.305 973.094 658.812 973.094 656.922V653.805H973C972.516 654.711 971.891 655.492 971.125 656.148C970.359 656.805 969.477 657.32 968.477 657.695C967.492 658.055 966.414 658.234 965.242 658.234C963.195 658.234 961.391 657.719 959.828 656.688C958.281 655.641 957.07 654.18 956.195 652.305C955.336 650.414 954.906 648.203 954.906 645.672V645.648C954.906 643.117 955.344 640.922 956.219 639.062C957.109 637.188 958.336 635.734 959.898 634.703C961.461 633.672 963.273 633.156 965.336 633.156C966.492 633.156 967.555 633.352 968.523 633.742C969.492 634.133 970.352 634.672 971.102 635.359C971.867 636.047 972.5 636.844 973 637.75H973.094V633.625H977.172V657.32C977.172 659.211 976.734 660.852 975.859 662.242C974.984 663.648 973.742 664.734 972.133 665.5C970.523 666.281 968.617 666.672 966.414 666.672ZM966.133 654.625C967.523 654.625 968.734 654.258 969.766 653.523C970.812 652.773 971.625 651.727 972.203 650.383C972.797 649.039 973.094 647.469 973.094 645.672V645.648C973.094 643.852 972.797 642.289 972.203 640.961C971.625 639.633 970.812 638.602 969.766 637.867C968.719 637.133 967.508 636.766 966.133 636.766C964.695 636.766 963.445 637.133 962.383 637.867C961.32 638.586 960.5 639.609 959.922 640.938C959.359 642.266 959.078 643.836 959.078 645.648V645.672C959.078 647.516 959.359 649.109 959.922 650.453C960.5 651.781 961.32 652.812 962.383 653.547C963.445 654.266 964.695 654.625 966.133 654.625ZM992.477 658.469C990.148 658.469 988.141 657.953 986.453 656.922C984.781 655.891 983.492 654.438 982.586 652.562C981.695 650.672 981.25 648.453 981.25 645.906V645.883C981.25 643.367 981.703 641.156 982.609 639.25C983.516 637.328 984.789 635.836 986.43 634.773C988.07 633.695 990 633.156 992.219 633.156C994.438 633.156 996.344 633.672 997.938 634.703C999.547 635.719 1000.78 637.148 1001.64 638.992C1002.5 640.836 1002.93 642.977 1002.93 645.414V646.914H983.289V643.727H1000.91L998.852 646.68V645.109C998.852 643.219 998.562 641.656 997.984 640.422C997.422 639.188 996.641 638.273 995.641 637.68C994.641 637.07 993.492 636.766 992.195 636.766C990.898 636.766 989.734 637.086 988.703 637.727C987.672 638.352 986.859 639.289 986.266 640.539C985.672 641.773 985.375 643.297 985.375 645.109V646.68C985.375 648.398 985.664 649.867 986.242 651.086C986.836 652.305 987.672 653.242 988.75 653.898C989.828 654.539 991.102 654.859 992.57 654.859C993.602 654.859 994.523 654.703 995.336 654.391C996.148 654.078 996.828 653.648 997.375 653.102C997.922 652.555 998.312 651.93 998.547 651.227L998.617 651.016H1002.62L1002.58 651.25C1002.38 652.25 1001.98 653.188 1001.41 654.062C1000.84 654.938 1000.12 655.711 999.227 656.383C998.336 657.039 997.32 657.555 996.18 657.93C995.039 658.289 993.805 658.469 992.477 658.469ZM1015.7 658.469C1013.8 658.469 1012.15 658.164 1010.76 657.555C1009.37 656.945 1008.27 656.094 1007.45 655C1006.66 653.906 1006.17 652.633 1006 651.18L1005.98 650.969H1010.05L1010.1 651.203C1010.35 652.422 1010.94 653.375 1011.86 654.062C1012.78 654.734 1014.07 655.07 1015.73 655.07C1016.84 655.07 1017.78 654.93 1018.56 654.648C1019.34 654.352 1019.95 653.938 1020.37 653.406C1020.79 652.859 1021 652.219 1021 651.484V651.461C1021 650.586 1020.73 649.883 1020.2 649.352C1019.67 648.82 1018.71 648.383 1017.32 648.039L1013.45 647.102C1011.92 646.727 1010.65 646.242 1009.63 645.648C1008.63 645.039 1007.88 644.297 1007.38 643.422C1006.88 642.547 1006.63 641.523 1006.63 640.352V640.328C1006.63 638.922 1007.01 637.68 1007.76 636.602C1008.52 635.523 1009.58 634.68 1010.92 634.07C1012.28 633.461 1013.84 633.156 1015.59 633.156C1017.37 633.156 1018.91 633.477 1020.23 634.117C1021.55 634.742 1022.59 635.602 1023.34 636.695C1024.11 637.773 1024.54 638.992 1024.63 640.352L1024.66 640.656H1020.77L1020.74 640.492C1020.59 639.305 1020.06 638.352 1019.17 637.633C1018.3 636.914 1017.1 636.555 1015.59 636.555C1014.6 636.555 1013.75 636.703 1013.03 637C1012.31 637.297 1011.76 637.719 1011.37 638.266C1010.99 638.797 1010.8 639.422 1010.8 640.141V640.164C1010.8 640.711 1010.93 641.211 1011.18 641.664C1011.45 642.102 1011.86 642.484 1012.42 642.812C1012.98 643.141 1013.71 643.414 1014.6 643.633L1018.47 644.57C1020.94 645.164 1022.67 645.984 1023.67 647.031C1024.67 648.062 1025.17 649.445 1025.17 651.18V651.203C1025.17 652.625 1024.76 653.883 1023.93 654.977C1023.12 656.07 1021.99 656.93 1020.55 657.555C1019.13 658.164 1017.52 658.469 1015.7 658.469Z" fill="white"/>
</svg>
