<svg width="1280" height="720" viewBox="0 0 1280 720" fill="none" xmlns="http://www.w3.org/2000/svg">
<rect width="1280" height="720" fill="#FF8D28"/>
<path d="M218.312 279V188.812H255.562C262.312 188.812 268.083 189.958 272.875 192.25C277.708 194.542 281.396 197.854 283.938 202.188C286.521 206.479 287.812 211.646 287.812 217.688V217.812C287.812 223.729 286.333 229 283.375 233.625C280.458 238.25 276.5 241.542 271.5 243.5L290.5 279H269.125L252.312 246.312C252.188 246.312 252.042 246.312 251.875 246.312C251.708 246.312 251.542 246.312 251.375 246.312H237.188V279H218.312ZM237.188 232H253.5C258.208 232 261.875 230.75 264.5 228.25C267.167 225.708 268.5 222.229 268.5 217.812V217.688C268.5 213.354 267.125 209.917 264.375 207.375C261.625 204.833 257.917 203.562 253.25 203.562H237.188V232ZM328.625 280.375C321.792 280.375 315.917 278.979 311 276.188C306.083 273.354 302.292 269.333 299.625 264.125C297 258.917 295.688 252.75 295.688 245.625V245.562C295.688 238.438 297 232.271 299.625 227.062C302.292 221.812 306.021 217.771 310.812 214.938C315.646 212.062 321.333 210.625 327.875 210.625C334.417 210.625 340.062 212.021 344.812 214.812C349.604 217.562 353.292 221.458 355.875 226.5C358.5 231.542 359.812 237.438 359.812 244.188V249.812H304.625V238.312H351.188L342.5 249.062V242.062C342.5 238.146 341.896 234.875 340.688 232.25C339.479 229.583 337.792 227.583 335.625 226.25C333.5 224.917 331.021 224.25 328.188 224.25C325.354 224.25 322.833 224.938 320.625 226.312C318.458 227.688 316.75 229.708 315.5 232.375C314.292 235 313.688 238.229 313.688 242.062V249.125C313.688 252.833 314.292 256 315.5 258.625C316.75 261.25 318.521 263.271 320.812 264.688C323.104 266.062 325.833 266.75 329 266.75C331.5 266.75 333.667 266.354 335.5 265.562C337.333 264.771 338.833 263.771 340 262.562C341.167 261.354 341.958 260.125 342.375 258.875L342.5 258.5H359.25L359.062 259.188C358.562 261.646 357.583 264.125 356.125 266.625C354.667 269.125 352.688 271.417 350.188 273.5C347.729 275.583 344.708 277.25 341.125 278.5C337.583 279.75 333.417 280.375 328.625 280.375ZM400.562 302.25C394.438 302.25 389.083 301.396 384.5 299.688C379.958 298.021 376.333 295.75 373.625 292.875C370.958 290 369.333 286.771 368.75 283.188L368.688 282.625H386.438L386.625 283.062C387.375 284.688 388.938 286.125 391.312 287.375C393.688 288.625 396.771 289.25 400.562 289.25C405.271 289.25 408.854 288.125 411.312 285.875C413.771 283.625 415 280.625 415 276.875V266.625H414.625C413.458 268.958 411.875 270.979 409.875 272.688C407.875 274.396 405.521 275.729 402.812 276.688C400.146 277.604 397.188 278.062 393.938 278.062C388.354 278.062 383.521 276.729 379.438 274.062C375.396 271.396 372.271 267.583 370.062 262.625C367.896 257.625 366.812 251.667 366.812 244.75V244.688C366.812 237.562 367.917 231.458 370.125 226.375C372.375 221.292 375.542 217.396 379.625 214.688C383.708 211.979 388.583 210.625 394.25 210.625C397.417 210.625 400.312 211.146 402.938 212.188C405.562 213.229 407.854 214.708 409.812 216.625C411.812 218.542 413.417 220.812 414.625 223.438H415V212H433.25V277.125C433.25 282.083 431.917 286.438 429.25 290.188C426.625 293.979 422.854 296.938 417.938 299.062C413.062 301.188 407.271 302.25 400.562 302.25ZM400.25 264.688C403.25 264.688 405.854 263.896 408.062 262.312C410.271 260.729 411.979 258.479 413.188 255.562C414.438 252.646 415.062 249.188 415.062 245.188V245.125C415.062 241.125 414.438 237.688 413.188 234.812C411.979 231.896 410.25 229.667 408 228.125C405.792 226.542 403.208 225.75 400.25 225.75C397.25 225.75 394.625 226.542 392.375 228.125C390.125 229.667 388.396 231.875 387.188 234.75C385.979 237.625 385.375 241.083 385.375 245.125V245.188C385.375 249.188 385.979 252.646 387.188 255.562C388.396 258.479 390.125 260.729 392.375 262.312C394.625 263.896 397.25 264.688 400.25 264.688ZM446.812 279V188.812H506.562V204.375H465.688V226H504.25V240.75H465.688V263.438H506.562V279H446.812ZM514.062 279L535.062 245.625L514.188 212H534.75L546.812 234.625H547.188L559.062 212H578.938L558 245.125L578.75 279H558.938L546.188 255.75H545.812L533.25 279H514.062ZM586.25 300.875V212H604.5V223.688H604.938C606.146 220.979 607.729 218.646 609.688 216.688C611.688 214.729 614 213.229 616.625 212.188C619.292 211.146 622.208 210.625 625.375 210.625C631.042 210.625 635.917 212.021 640 214.812C644.083 217.562 647.229 221.542 649.438 226.75C651.646 231.958 652.75 238.188 652.75 245.438V245.5C652.75 252.75 651.646 258.979 649.438 264.188C647.271 269.396 644.167 273.396 640.125 276.188C636.083 278.979 631.25 280.375 625.625 280.375C622.458 280.375 619.521 279.854 616.812 278.812C614.104 277.771 611.75 276.312 609.75 274.438C607.75 272.521 606.125 270.229 604.875 267.562H604.5V300.875H586.25ZM619.375 265.25C622.417 265.25 625.042 264.458 627.25 262.875C629.458 261.25 631.167 258.958 632.375 256C633.583 253.042 634.188 249.542 634.188 245.5V245.438C634.188 241.354 633.583 237.833 632.375 234.875C631.167 231.917 629.438 229.667 627.188 228.125C624.979 226.542 622.375 225.75 619.375 225.75C616.417 225.75 613.812 226.562 611.562 228.188C609.312 229.771 607.562 232.042 606.312 235C605.062 237.917 604.438 241.417 604.438 245.5V245.562C604.438 249.562 605.062 253.042 606.312 256C607.604 258.958 609.354 261.25 611.562 262.875C613.812 264.458 616.417 265.25 619.375 265.25ZM714.25 280.375C706.833 280.375 701.333 278.812 697.75 275.688C694.167 272.562 692.375 267.417 692.375 260.25V225.75H683.062V212H692.375V195.625H710.812V212H723.062V225.75H710.812V258.25C710.812 261.375 711.5 263.562 712.875 264.812C714.292 266.021 716.375 266.625 719.125 266.625C719.958 266.625 720.688 266.604 721.312 266.562C721.938 266.479 722.521 266.396 723.062 266.312V279.688C722.062 279.854 720.812 280 719.312 280.125C717.854 280.292 716.167 280.375 714.25 280.375ZM763 280.375C756.208 280.375 750.333 278.979 745.375 276.188C740.417 273.396 736.583 269.396 733.875 264.188C731.167 258.979 729.812 252.75 729.812 245.5V245.375C729.812 238.167 731.188 231.979 733.938 226.812C736.688 221.604 740.542 217.604 745.5 214.812C750.458 212.021 756.271 210.625 762.938 210.625C769.646 210.625 775.479 212.021 780.438 214.812C785.438 217.562 789.312 221.542 792.062 226.75C794.812 231.917 796.188 238.125 796.188 245.375V245.5C796.188 252.792 794.812 259.042 792.062 264.25C789.354 269.458 785.521 273.458 780.562 276.25C775.604 279 769.75 280.375 763 280.375ZM763.062 266.062C766.021 266.062 768.583 265.271 770.75 263.688C772.958 262.062 774.646 259.729 775.812 256.688C777.021 253.604 777.625 249.875 777.625 245.5V245.375C777.625 241.042 777.021 237.354 775.812 234.312C774.604 231.271 772.896 228.958 770.688 227.375C768.479 225.75 765.896 224.938 762.938 224.938C760.021 224.938 757.458 225.75 755.25 227.375C753.083 228.958 751.396 231.271 750.188 234.312C748.979 237.354 748.375 241.042 748.375 245.375V245.5C748.375 249.875 748.958 253.604 750.125 256.688C751.333 259.729 753.042 262.062 755.25 263.688C757.458 265.271 760.062 266.062 763.062 266.062ZM832.562 279V188.812H849.062L898.125 259.375L882.312 247.438H890.188V188.812H909V279H892.625L843.5 208L859.312 219.938H851.375V279H832.562ZM924.062 279V188.812H983.125V204.375H942.938V228.562H979.625V243.5H942.938V279H924.062ZM982.312 279L1013.81 188.812H1030.44V206.312H1024.69L1002.12 279H982.312ZM999.25 257.125L1003.88 243H1045.94L1050.56 257.125H999.25ZM1047.62 279L1025.06 206.312V188.812H1036L1067.44 279H1047.62ZM354.875 433.375C348.083 433.375 342.208 431.958 337.25 429.125C332.292 426.292 328.479 422.271 325.812 417.062C323.146 411.812 321.812 405.604 321.812 398.438V398.375C321.812 391.208 323.146 385.042 325.812 379.875C328.521 374.667 332.333 370.667 337.25 367.875C342.208 365.042 348.021 363.625 354.688 363.625C360.771 363.625 366.042 364.771 370.5 367.062C374.958 369.312 378.438 372.375 380.938 376.25C383.479 380.125 384.875 384.479 385.125 389.312V389.75H368.188L368.062 389.188C367.521 385.979 366.146 383.312 363.938 381.188C361.729 379.021 358.729 377.938 354.938 377.938C351.979 377.938 349.396 378.771 347.188 380.438C345.021 382.062 343.333 384.417 342.125 387.5C340.958 390.542 340.375 394.188 340.375 398.438V398.5C340.375 402.875 340.958 406.604 342.125 409.688C343.333 412.729 345.021 415.062 347.188 416.688C349.396 418.271 352 419.062 355 419.062C358.667 419.062 361.604 418.042 363.812 416C366.062 413.917 367.5 411.188 368.125 407.812L368.188 407.25H385.188V407.625C384.896 412.5 383.479 416.875 380.938 420.75C378.396 424.625 374.896 427.708 370.438 430C366.021 432.25 360.833 433.375 354.875 433.375ZM424.75 433.375C417.958 433.375 412.083 431.979 407.125 429.188C402.167 426.396 398.333 422.396 395.625 417.188C392.917 411.979 391.562 405.75 391.562 398.5V398.375C391.562 391.167 392.938 384.979 395.688 379.812C398.438 374.604 402.292 370.604 407.25 367.812C412.208 365.021 418.021 363.625 424.688 363.625C431.396 363.625 437.229 365.021 442.188 367.812C447.188 370.562 451.062 374.542 453.812 379.75C456.562 384.917 457.938 391.125 457.938 398.375V398.5C457.938 405.792 456.562 412.042 453.812 417.25C451.104 422.458 447.271 426.458 442.312 429.25C437.354 432 431.5 433.375 424.75 433.375ZM424.812 419.062C427.771 419.062 430.333 418.271 432.5 416.688C434.708 415.062 436.396 412.729 437.562 409.688C438.771 406.604 439.375 402.875 439.375 398.5V398.375C439.375 394.042 438.771 390.354 437.562 387.312C436.354 384.271 434.646 381.958 432.438 380.375C430.229 378.75 427.646 377.938 424.688 377.938C421.771 377.938 419.208 378.75 417 380.375C414.833 381.958 413.146 384.271 411.938 387.312C410.729 390.354 410.125 394.042 410.125 398.375V398.5C410.125 402.875 410.708 406.604 411.875 409.688C413.083 412.729 414.792 415.062 417 416.688C419.208 418.271 421.812 419.062 424.812 419.062ZM467.375 432V365H485.625V376H486C487.75 372.167 490.333 369.146 493.75 366.938C497.167 364.729 501.396 363.625 506.438 363.625C513.812 363.625 519.5 365.854 523.5 370.312C527.542 374.729 529.562 380.875 529.562 388.75V432H511.312V392.5C511.312 388.125 510.271 384.75 508.188 382.375C506.146 379.958 503.083 378.75 499 378.75C496.292 378.75 493.938 379.375 491.938 380.625C489.938 381.833 488.375 383.542 487.25 385.75C486.167 387.958 485.625 390.542 485.625 393.5V432H467.375ZM558.438 432L535.25 365H554.75L568.75 415.875H569.125L582.938 365H602L579 432H558.438ZM636.5 433.375C629.667 433.375 623.792 431.979 618.875 429.188C613.958 426.354 610.167 422.333 607.5 417.125C604.875 411.917 603.562 405.75 603.562 398.625V398.562C603.562 391.438 604.875 385.271 607.5 380.062C610.167 374.812 613.896 370.771 618.688 367.938C623.521 365.062 629.208 363.625 635.75 363.625C642.292 363.625 647.938 365.021 652.688 367.812C657.479 370.562 661.167 374.458 663.75 379.5C666.375 384.542 667.688 390.438 667.688 397.188V402.812H612.5V391.312H659.062L650.375 402.062V395.062C650.375 391.146 649.771 387.875 648.562 385.25C647.354 382.583 645.667 380.583 643.5 379.25C641.375 377.917 638.896 377.25 636.062 377.25C633.229 377.25 630.708 377.938 628.5 379.312C626.333 380.688 624.625 382.708 623.375 385.375C622.167 388 621.562 391.229 621.562 395.062V402.125C621.562 405.833 622.167 409 623.375 411.625C624.625 414.25 626.396 416.271 628.688 417.688C630.979 419.062 633.708 419.75 636.875 419.75C639.375 419.75 641.542 419.354 643.375 418.562C645.208 417.771 646.708 416.771 647.875 415.562C649.042 414.354 649.833 413.125 650.25 411.875L650.375 411.5H667.125L666.938 412.188C666.438 414.646 665.458 417.125 664 419.625C662.542 422.125 660.562 424.417 658.062 426.5C655.604 428.583 652.583 430.25 649 431.5C645.458 432.75 641.292 433.375 636.5 433.375ZM677.125 432V365H695.375V376.688H695.75C696.75 372.562 698.562 369.354 701.188 367.062C703.812 364.771 707.083 363.625 711 363.625C712 363.625 712.958 363.688 713.875 363.812C714.792 363.938 715.583 364.104 716.25 364.312V380.375C715.5 380.083 714.542 379.854 713.375 379.688C712.208 379.479 710.958 379.375 709.625 379.375C706.625 379.375 704.062 379.958 701.938 381.125C699.812 382.292 698.188 384 697.062 386.25C695.938 388.5 695.375 391.25 695.375 394.5V432H677.125ZM751.312 433.375C745.146 433.375 739.896 432.479 735.562 430.688C731.229 428.896 727.833 426.417 725.375 423.25C722.958 420.042 721.5 416.333 721 412.125L720.938 411.562H738.75L738.875 412.125C739.458 414.75 740.771 416.792 742.812 418.25C744.854 419.708 747.688 420.438 751.312 420.438C753.646 420.438 755.625 420.167 757.25 419.625C758.875 419.042 760.125 418.229 761 417.188C761.917 416.146 762.375 414.896 762.375 413.438V413.375C762.375 411.583 761.729 410.146 760.438 409.062C759.146 407.979 756.854 407.062 753.562 406.312L742.188 403.938C737.854 403.021 734.229 401.708 731.312 400C728.438 398.25 726.271 396.104 724.812 393.562C723.354 390.979 722.625 388.021 722.625 384.688V384.625C722.625 380.333 723.771 376.625 726.062 373.5C728.354 370.375 731.604 367.958 735.812 366.25C740.062 364.5 745.021 363.625 750.688 363.625C756.604 363.625 761.625 364.583 765.75 366.5C769.917 368.375 773.104 370.917 775.312 374.125C777.562 377.333 778.75 380.896 778.875 384.812V385.438H762.062L762 384.938C761.708 382.521 760.583 380.521 758.625 378.938C756.708 377.312 754.062 376.5 750.688 376.5C748.604 376.5 746.792 376.792 745.25 377.375C743.708 377.958 742.521 378.792 741.688 379.875C740.854 380.917 740.438 382.167 740.438 383.625V383.688C740.438 384.812 740.708 385.833 741.25 386.75C741.833 387.625 742.792 388.396 744.125 389.062C745.458 389.729 747.25 390.312 749.5 390.812L760.875 393.25C767.917 394.708 772.958 396.896 776 399.812C779.083 402.729 780.625 406.646 780.625 411.562V411.625C780.625 416 779.375 419.812 776.875 423.062C774.375 426.312 770.917 428.854 766.5 430.688C762.125 432.479 757.062 433.375 751.312 433.375ZM790 432V365H808.25V432H790ZM799.125 356.375C796.375 356.375 794.062 355.438 792.188 353.562C790.312 351.688 789.375 349.458 789.375 346.875C789.375 344.25 790.312 342.021 792.188 340.188C794.062 338.312 796.375 337.375 799.125 337.375C801.875 337.375 804.188 338.312 806.062 340.188C807.938 342.021 808.875 344.25 808.875 346.875C808.875 349.458 807.938 351.688 806.062 353.562C804.188 355.438 801.875 356.375 799.125 356.375ZM851.25 433.375C844.458 433.375 838.583 431.979 833.625 429.188C828.667 426.396 824.833 422.396 822.125 417.188C819.417 411.979 818.062 405.75 818.062 398.5V398.375C818.062 391.167 819.438 384.979 822.188 379.812C824.938 374.604 828.792 370.604 833.75 367.812C838.708 365.021 844.521 363.625 851.188 363.625C857.896 363.625 863.729 365.021 868.688 367.812C873.688 370.562 877.562 374.542 880.312 379.75C883.062 384.917 884.438 391.125 884.438 398.375V398.5C884.438 405.792 883.062 412.042 880.312 417.25C877.604 422.458 873.771 426.458 868.812 429.25C863.854 432 858 433.375 851.25 433.375ZM851.312 419.062C854.271 419.062 856.833 418.271 859 416.688C861.208 415.062 862.896 412.729 864.062 409.688C865.271 406.604 865.875 402.875 865.875 398.5V398.375C865.875 394.042 865.271 390.354 864.062 387.312C862.854 384.271 861.146 381.958 858.938 380.375C856.729 378.75 854.146 377.938 851.188 377.938C848.271 377.938 845.708 378.75 843.5 380.375C841.333 381.958 839.646 384.271 838.438 387.312C837.229 390.354 836.625 394.042 836.625 398.375V398.5C836.625 402.875 837.208 406.604 838.375 409.688C839.583 412.729 841.292 415.062 843.5 416.688C845.708 418.271 848.312 419.062 851.312 419.062ZM893.875 432V365H912.125V376H912.5C914.25 372.167 916.833 369.146 920.25 366.938C923.667 364.729 927.896 363.625 932.938 363.625C940.312 363.625 946 365.854 950 370.312C954.042 374.729 956.062 380.875 956.062 388.75V432H937.812V392.5C937.812 388.125 936.771 384.75 934.688 382.375C932.646 379.958 929.583 378.75 925.5 378.75C922.792 378.75 920.438 379.375 918.438 380.625C916.438 381.833 914.875 383.542 913.75 385.75C912.667 387.958 912.125 390.542 912.125 393.5V432H893.875Z" fill="white"/>
<path d="M270.648 659.562C267.523 659.562 264.797 658.844 262.469 657.406C260.156 655.969 258.367 653.945 257.102 651.336C255.836 648.711 255.203 645.625 255.203 642.078V642.055C255.203 638.508 255.836 635.43 257.102 632.82C258.367 630.211 260.156 628.195 262.469 626.773C264.781 625.336 267.508 624.617 270.648 624.617C272.992 624.617 275.125 625.062 277.047 625.953C278.969 626.844 280.57 628.086 281.852 629.68C283.148 631.273 284.008 633.141 284.43 635.281L284.477 635.516H280.211L280.047 635C279.609 633.625 278.953 632.461 278.078 631.508C277.219 630.539 276.164 629.797 274.914 629.281C273.664 628.766 272.242 628.508 270.648 628.508C268.398 628.508 266.438 629.07 264.766 630.195C263.109 631.305 261.82 632.875 260.898 634.906C259.992 636.922 259.539 639.305 259.539 642.055V642.078C259.539 644.812 259.992 647.203 260.898 649.25C261.82 651.281 263.117 652.859 264.789 653.984C266.461 655.109 268.414 655.672 270.648 655.672C272.227 655.672 273.633 655.414 274.867 654.898C276.117 654.383 277.188 653.625 278.078 652.625C278.969 651.609 279.656 650.359 280.141 648.875L280.211 648.664H284.477L284.43 648.898C284.008 651.055 283.156 652.938 281.875 654.547C280.594 656.141 278.992 657.375 277.07 658.25C275.148 659.125 273.008 659.562 270.648 659.562ZM298.938 659.469C296.688 659.469 294.711 658.953 293.008 657.922C291.32 656.891 290 655.43 289.047 653.539C288.109 651.633 287.641 649.391 287.641 646.812V646.766C287.641 644.172 288.109 641.938 289.047 640.062C290 638.172 291.32 636.719 293.008 635.703C294.711 634.672 296.68 634.156 298.914 634.156C301.164 634.156 303.133 634.672 304.82 635.703C306.523 636.719 307.844 638.172 308.781 640.062C309.734 641.938 310.211 644.172 310.211 646.766V646.812C310.211 649.406 309.734 651.648 308.781 653.539C307.844 655.43 306.531 656.891 304.844 657.922C303.156 658.953 301.188 659.469 298.938 659.469ZM298.961 655.859C300.398 655.859 301.641 655.508 302.688 654.805C303.75 654.086 304.57 653.055 305.148 651.711C305.742 650.352 306.039 648.719 306.039 646.812V646.766C306.039 644.859 305.742 643.234 305.148 641.891C304.57 640.547 303.742 639.523 302.664 638.82C301.602 638.117 300.352 637.766 298.914 637.766C297.508 637.766 296.266 638.125 295.188 638.844C294.125 639.547 293.297 640.57 292.703 641.914C292.109 643.242 291.812 644.859 291.812 646.766V646.812C291.812 648.719 292.109 650.352 292.703 651.711C293.297 653.055 294.125 654.086 295.188 654.805C296.266 655.508 297.523 655.859 298.961 655.859ZM314.336 659V634.625H318.414V638.188H318.508C319.055 636.984 319.914 636.016 321.086 635.281C322.258 634.531 323.625 634.156 325.188 634.156C326.297 634.156 327.297 634.344 328.188 634.719C329.094 635.078 329.875 635.609 330.531 636.312C331.188 637 331.688 637.844 332.031 638.844H332.125C332.578 637.859 333.18 637.023 333.93 636.336C334.695 635.633 335.57 635.094 336.555 634.719C337.555 634.344 338.625 634.156 339.766 634.156C341.375 634.156 342.773 634.492 343.961 635.164C345.148 635.82 346.07 636.75 346.727 637.953C347.383 639.141 347.711 640.547 347.711 642.172V659H343.633V643.109C343.633 641.984 343.43 641.023 343.023 640.227C342.633 639.43 342.062 638.82 341.312 638.398C340.562 637.977 339.648 637.766 338.57 637.766C337.492 637.766 336.539 638.016 335.711 638.516C334.883 639 334.234 639.68 333.766 640.555C333.297 641.414 333.062 642.398 333.062 643.508V659H328.984V642.664C328.984 641.68 328.773 640.82 328.352 640.086C327.945 639.352 327.367 638.781 326.617 638.375C325.883 637.969 325.008 637.766 323.992 637.766C322.914 637.766 321.953 638.031 321.109 638.562C320.281 639.078 319.625 639.781 319.141 640.672C318.656 641.562 318.414 642.578 318.414 643.719V659H314.336ZM352.914 667.203V634.625H356.992V638.75H357.086C357.602 637.797 358.234 636.984 358.984 636.312C359.75 635.625 360.625 635.094 361.609 634.719C362.594 634.344 363.664 634.156 364.82 634.156C366.898 634.156 368.711 634.68 370.258 635.727C371.82 636.758 373.031 638.227 373.891 640.133C374.75 642.023 375.18 644.25 375.18 646.812V646.836C375.18 649.398 374.742 651.625 373.867 653.516C373.008 655.406 371.805 656.875 370.258 657.922C368.727 658.953 366.938 659.469 364.891 659.469C363.75 659.469 362.68 659.289 361.68 658.93C360.68 658.555 359.789 658.031 359.008 657.359C358.242 656.672 357.602 655.859 357.086 654.922H356.992V667.203H352.914ZM364.023 655.859C365.461 655.859 366.703 655.492 367.75 654.758C368.797 654.023 369.602 652.984 370.164 651.641C370.727 650.281 371.008 648.68 371.008 646.836V646.812C371.008 644.938 370.727 643.328 370.164 641.984C369.602 640.625 368.797 639.586 367.75 638.867C366.703 638.133 365.461 637.766 364.023 637.766C362.648 637.766 361.43 638.141 360.367 638.891C359.305 639.641 358.469 640.695 357.859 642.055C357.266 643.398 356.969 644.984 356.969 646.812V646.836C356.969 648.648 357.273 650.234 357.883 651.594C358.492 652.938 359.32 653.984 360.367 654.734C361.43 655.484 362.648 655.859 364.023 655.859ZM387.625 659.469C385.844 659.469 384.32 659.102 383.055 658.367C381.805 657.633 380.844 656.594 380.172 655.25C379.516 653.891 379.188 652.289 379.188 650.445V634.625H383.266V649.719C383.266 651.703 383.727 653.227 384.648 654.289C385.586 655.336 386.992 655.859 388.867 655.859C389.836 655.859 390.703 655.695 391.469 655.367C392.25 655.039 392.922 654.578 393.484 653.984C394.047 653.375 394.477 652.648 394.773 651.805C395.07 650.945 395.219 650 395.219 648.969V634.625H399.297V659H395.219V655.531H395.125C394.688 656.281 394.117 656.953 393.414 657.547C392.727 658.141 391.898 658.609 390.93 658.953C389.961 659.297 388.859 659.469 387.625 659.469ZM412.539 659.469C410.305 659.469 408.633 658.938 407.523 657.875C406.414 656.812 405.859 655.117 405.859 652.789V638H402.297V634.625H405.859V628.039H410.078V634.625H414.719V638H410.078V652.766C410.078 654.062 410.359 654.945 410.922 655.414C411.484 655.867 412.312 656.094 413.406 656.094C413.656 656.094 413.891 656.086 414.109 656.07C414.344 656.039 414.547 656.016 414.719 656V659.305C414.469 659.336 414.141 659.367 413.734 659.398C413.344 659.445 412.945 659.469 412.539 659.469ZM428.43 659.469C426.102 659.469 424.094 658.953 422.406 657.922C420.734 656.891 419.445 655.438 418.539 653.562C417.648 651.672 417.203 649.453 417.203 646.906V646.883C417.203 644.367 417.656 642.156 418.562 640.25C419.469 638.328 420.742 636.836 422.383 635.773C424.023 634.695 425.953 634.156 428.172 634.156C430.391 634.156 432.297 634.672 433.891 635.703C435.5 636.719 436.734 638.148 437.594 639.992C438.453 641.836 438.883 643.977 438.883 646.414V647.914H419.242V644.727H436.867L434.805 647.68V646.109C434.805 644.219 434.516 642.656 433.938 641.422C433.375 640.188 432.594 639.273 431.594 638.68C430.594 638.07 429.445 637.766 428.148 637.766C426.852 637.766 425.688 638.086 424.656 638.727C423.625 639.352 422.812 640.289 422.219 641.539C421.625 642.773 421.328 644.297 421.328 646.109V647.68C421.328 649.398 421.617 650.867 422.195 652.086C422.789 653.305 423.625 654.242 424.703 654.898C425.781 655.539 427.055 655.859 428.523 655.859C429.555 655.859 430.477 655.703 431.289 655.391C432.102 655.078 432.781 654.648 433.328 654.102C433.875 653.555 434.266 652.93 434.5 652.227L434.57 652.016H438.578L438.531 652.25C438.328 653.25 437.938 654.188 437.359 655.062C436.797 655.938 436.07 656.711 435.18 657.383C434.289 658.039 433.273 658.555 432.133 658.93C430.992 659.289 429.758 659.469 428.43 659.469ZM443.008 659V634.625H447.086V638.75H447.18C447.586 637.344 448.289 636.227 449.289 635.398C450.289 634.57 451.477 634.156 452.852 634.156C453.211 634.156 453.531 634.18 453.812 634.227C454.109 634.258 454.336 634.289 454.492 634.32V638.281C454.336 638.219 454.055 638.164 453.648 638.117C453.258 638.07 452.812 638.047 452.312 638.047C451.266 638.047 450.344 638.281 449.547 638.75C448.766 639.219 448.156 639.898 447.719 640.789C447.297 641.664 447.086 642.719 447.086 643.953V659H443.008ZM479.359 659.562C476.922 659.562 474.773 659.188 472.914 658.438C471.07 657.672 469.602 656.586 468.508 655.18C467.43 653.773 466.82 652.109 466.68 650.188L466.656 649.859H470.875L470.922 650.188C471.094 651.312 471.555 652.289 472.305 653.117C473.055 653.93 474.047 654.562 475.281 655.016C476.531 655.453 477.969 655.672 479.594 655.672C481.219 655.672 482.625 655.445 483.812 654.992C485 654.523 485.914 653.859 486.555 653C487.211 652.141 487.539 651.133 487.539 649.977V649.953C487.539 648.469 487.023 647.281 485.992 646.391C484.961 645.5 483.281 644.797 480.953 644.281L477.203 643.461C473.906 642.727 471.461 641.602 469.867 640.086C468.289 638.555 467.5 636.555 467.5 634.086V634.062C467.516 632.203 468.031 630.57 469.047 629.164C470.062 627.742 471.461 626.633 473.242 625.836C475.039 625.023 477.094 624.617 479.406 624.617C481.609 624.617 483.578 625.016 485.312 625.812C487.047 626.594 488.43 627.688 489.461 629.094C490.508 630.5 491.094 632.125 491.219 633.969L491.242 634.32H487.023L486.977 633.992C486.805 632.836 486.383 631.852 485.711 631.039C485.039 630.227 484.156 629.602 483.062 629.164C481.984 628.727 480.727 628.508 479.289 628.508C477.789 628.508 476.477 628.734 475.352 629.188C474.227 629.641 473.352 630.273 472.727 631.086C472.117 631.898 471.812 632.852 471.812 633.945V633.969C471.812 635.344 472.336 636.477 473.383 637.367C474.43 638.258 476.055 638.945 478.258 639.43L482.008 640.25C484.32 640.75 486.195 641.414 487.633 642.242C489.086 643.07 490.148 644.102 490.82 645.336C491.508 646.555 491.852 648.023 491.852 649.742V649.766C491.852 651.766 491.344 653.5 490.328 654.969C489.328 656.438 487.891 657.57 486.016 658.367C484.156 659.164 481.938 659.562 479.359 659.562ZM506.266 659.469C503.969 659.469 501.969 658.953 500.266 657.922C498.578 656.875 497.273 655.406 496.352 653.516C495.43 651.609 494.969 649.367 494.969 646.789V646.766C494.969 644.203 495.438 641.977 496.375 640.086C497.312 638.195 498.625 636.734 500.312 635.703C502 634.672 503.969 634.156 506.219 634.156C508.25 634.156 509.992 634.555 511.445 635.352C512.898 636.133 514.039 637.148 514.867 638.398C515.711 639.648 516.219 640.969 516.391 642.359L516.414 642.547H512.43L512.383 642.359C512.086 641.141 511.43 640.07 510.414 639.148C509.414 638.227 508.016 637.766 506.219 637.766C504.812 637.766 503.578 638.141 502.516 638.891C501.453 639.625 500.625 640.672 500.031 642.031C499.438 643.375 499.141 644.969 499.141 646.812V646.836C499.141 648.727 499.438 650.344 500.031 651.688C500.641 653.031 501.477 654.062 502.539 654.781C503.617 655.5 504.859 655.859 506.266 655.859C507.938 655.859 509.289 655.438 510.32 654.594C511.367 653.734 512.062 652.625 512.406 651.266L512.453 651.078H516.461L516.438 651.242C516.219 652.789 515.648 654.188 514.727 655.438C513.82 656.672 512.641 657.656 511.188 658.391C509.75 659.109 508.109 659.469 506.266 659.469ZM520.469 659V634.625H524.547V659H520.469ZM522.508 630.5C521.805 630.5 521.203 630.25 520.703 629.75C520.203 629.25 519.953 628.648 519.953 627.945C519.953 627.227 520.203 626.625 520.703 626.141C521.203 625.641 521.805 625.391 522.508 625.391C523.227 625.391 523.828 625.641 524.312 626.141C524.812 626.625 525.062 627.227 525.062 627.945C525.062 628.648 524.812 629.25 524.312 629.75C523.828 630.25 523.227 630.5 522.508 630.5ZM540.133 659.469C537.805 659.469 535.797 658.953 534.109 657.922C532.438 656.891 531.148 655.438 530.242 653.562C529.352 651.672 528.906 649.453 528.906 646.906V646.883C528.906 644.367 529.359 642.156 530.266 640.25C531.172 638.328 532.445 636.836 534.086 635.773C535.727 634.695 537.656 634.156 539.875 634.156C542.094 634.156 544 634.672 545.594 635.703C547.203 636.719 548.438 638.148 549.297 639.992C550.156 641.836 550.586 643.977 550.586 646.414V647.914H530.945V644.727H548.57L546.508 647.68V646.109C546.508 644.219 546.219 642.656 545.641 641.422C545.078 640.188 544.297 639.273 543.297 638.68C542.297 638.07 541.148 637.766 539.852 637.766C538.555 637.766 537.391 638.086 536.359 638.727C535.328 639.352 534.516 640.289 533.922 641.539C533.328 642.773 533.031 644.297 533.031 646.109V647.68C533.031 649.398 533.32 650.867 533.898 652.086C534.492 653.305 535.328 654.242 536.406 654.898C537.484 655.539 538.758 655.859 540.227 655.859C541.258 655.859 542.18 655.703 542.992 655.391C543.805 655.078 544.484 654.648 545.031 654.102C545.578 653.555 545.969 652.93 546.203 652.227L546.273 652.016H550.281L550.234 652.25C550.031 653.25 549.641 654.188 549.062 655.062C548.5 655.938 547.773 656.711 546.883 657.383C545.992 658.039 544.977 658.555 543.836 658.93C542.695 659.289 541.461 659.469 540.133 659.469ZM554.711 659V634.625H558.789V638.094H558.883C559.539 636.953 560.492 636.016 561.742 635.281C562.992 634.531 564.539 634.156 566.383 634.156C569.055 634.156 571.125 634.969 572.594 636.594C574.078 638.203 574.82 640.398 574.82 643.18V659H570.742V643.906C570.742 641.922 570.273 640.406 569.336 639.359C568.414 638.297 567.016 637.766 565.141 637.766C563.859 637.766 562.742 638.055 561.789 638.633C560.836 639.195 560.094 639.992 559.562 641.023C559.047 642.055 558.789 643.266 558.789 644.656V659H554.711ZM590.125 659.469C587.828 659.469 585.828 658.953 584.125 657.922C582.438 656.875 581.133 655.406 580.211 653.516C579.289 651.609 578.828 649.367 578.828 646.789V646.766C578.828 644.203 579.297 641.977 580.234 640.086C581.172 638.195 582.484 636.734 584.172 635.703C585.859 634.672 587.828 634.156 590.078 634.156C592.109 634.156 593.852 634.555 595.305 635.352C596.758 636.133 597.898 637.148 598.727 638.398C599.57 639.648 600.078 640.969 600.25 642.359L600.273 642.547H596.289L596.242 642.359C595.945 641.141 595.289 640.07 594.273 639.148C593.273 638.227 591.875 637.766 590.078 637.766C588.672 637.766 587.438 638.141 586.375 638.891C585.312 639.625 584.484 640.672 583.891 642.031C583.297 643.375 583 644.969 583 646.812V646.836C583 648.727 583.297 650.344 583.891 651.688C584.5 653.031 585.336 654.062 586.398 654.781C587.477 655.5 588.719 655.859 590.125 655.859C591.797 655.859 593.148 655.438 594.18 654.594C595.227 653.734 595.922 652.625 596.266 651.266L596.312 651.078H600.32L600.297 651.242C600.078 652.789 599.508 654.188 598.586 655.438C597.68 656.672 596.5 657.656 595.047 658.391C593.609 659.109 591.969 659.469 590.125 659.469ZM614.102 659.469C611.773 659.469 609.766 658.953 608.078 657.922C606.406 656.891 605.117 655.438 604.211 653.562C603.32 651.672 602.875 649.453 602.875 646.906V646.883C602.875 644.367 603.328 642.156 604.234 640.25C605.141 638.328 606.414 636.836 608.055 635.773C609.695 634.695 611.625 634.156 613.844 634.156C616.062 634.156 617.969 634.672 619.562 635.703C621.172 636.719 622.406 638.148 623.266 639.992C624.125 641.836 624.555 643.977 624.555 646.414V647.914H604.914V644.727H622.539L620.477 647.68V646.109C620.477 644.219 620.188 642.656 619.609 641.422C619.047 640.188 618.266 639.273 617.266 638.68C616.266 638.07 615.117 637.766 613.82 637.766C612.523 637.766 611.359 638.086 610.328 638.727C609.297 639.352 608.484 640.289 607.891 641.539C607.297 642.773 607 644.297 607 646.109V647.68C607 649.398 607.289 650.867 607.867 652.086C608.461 653.305 609.297 654.242 610.375 654.898C611.453 655.539 612.727 655.859 614.195 655.859C615.227 655.859 616.148 655.703 616.961 655.391C617.773 655.078 618.453 654.648 619 654.102C619.547 653.555 619.938 652.93 620.172 652.227L620.242 652.016H624.25L624.203 652.25C624 653.25 623.609 654.188 623.031 655.062C622.469 655.938 621.742 656.711 620.852 657.383C619.961 658.039 618.945 658.555 617.805 658.93C616.664 659.289 615.43 659.469 614.102 659.469ZM639.156 667.203V625.18H642.953V667.203H639.156ZM659.359 659V625.18H679.891V628.977H663.578V640.602H678.555V644.352H663.578V659H659.359ZM693.25 659.469C691 659.469 689.023 658.953 687.32 657.922C685.633 656.891 684.312 655.43 683.359 653.539C682.422 651.633 681.953 649.391 681.953 646.812V646.766C681.953 644.172 682.422 641.938 683.359 640.062C684.312 638.172 685.633 636.719 687.32 635.703C689.023 634.672 690.992 634.156 693.227 634.156C695.477 634.156 697.445 634.672 699.133 635.703C700.836 636.719 702.156 638.172 703.094 640.062C704.047 641.938 704.523 644.172 704.523 646.766V646.812C704.523 649.406 704.047 651.648 703.094 653.539C702.156 655.43 700.844 656.891 699.156 657.922C697.469 658.953 695.5 659.469 693.25 659.469ZM693.273 655.859C694.711 655.859 695.953 655.508 697 654.805C698.062 654.086 698.883 653.055 699.461 651.711C700.055 650.352 700.352 648.719 700.352 646.812V646.766C700.352 644.859 700.055 643.234 699.461 641.891C698.883 640.547 698.055 639.523 696.977 638.82C695.914 638.117 694.664 637.766 693.227 637.766C691.82 637.766 690.578 638.125 689.5 638.844C688.438 639.547 687.609 640.57 687.016 641.914C686.422 643.242 686.125 644.859 686.125 646.766V646.812C686.125 648.719 686.422 650.352 687.016 651.711C687.609 653.055 688.438 654.086 689.5 654.805C690.578 655.508 691.836 655.859 693.273 655.859ZM708.648 659V634.625H712.727V638.75H712.82C713.227 637.344 713.93 636.227 714.93 635.398C715.93 634.57 717.117 634.156 718.492 634.156C718.852 634.156 719.172 634.18 719.453 634.227C719.75 634.258 719.977 634.289 720.133 634.32V638.281C719.977 638.219 719.695 638.164 719.289 638.117C718.898 638.07 718.453 638.047 717.953 638.047C716.906 638.047 715.984 638.281 715.188 638.75C714.406 639.219 713.797 639.898 713.359 640.789C712.938 641.664 712.727 642.719 712.727 643.953V659H708.648ZM723.461 659V634.625H727.539V638.188H727.633C728.18 636.984 729.039 636.016 730.211 635.281C731.383 634.531 732.75 634.156 734.312 634.156C735.422 634.156 736.422 634.344 737.312 634.719C738.219 635.078 739 635.609 739.656 636.312C740.312 637 740.812 637.844 741.156 638.844H741.25C741.703 637.859 742.305 637.023 743.055 636.336C743.82 635.633 744.695 635.094 745.68 634.719C746.68 634.344 747.75 634.156 748.891 634.156C750.5 634.156 751.898 634.492 753.086 635.164C754.273 635.82 755.195 636.75 755.852 637.953C756.508 639.141 756.836 640.547 756.836 642.172V659H752.758V643.109C752.758 641.984 752.555 641.023 752.148 640.227C751.758 639.43 751.188 638.82 750.438 638.398C749.688 637.977 748.773 637.766 747.695 637.766C746.617 637.766 745.664 638.016 744.836 638.516C744.008 639 743.359 639.68 742.891 640.555C742.422 641.414 742.188 642.398 742.188 643.508V659H738.109V642.664C738.109 641.68 737.898 640.82 737.477 640.086C737.07 639.352 736.492 638.781 735.742 638.375C735.008 637.969 734.133 637.766 733.117 637.766C732.039 637.766 731.078 638.031 730.234 638.562C729.406 639.078 728.75 639.781 728.266 640.672C727.781 641.562 727.539 642.578 727.539 643.719V659H723.461ZM769.164 659.469C767.555 659.469 766.141 659.164 764.922 658.555C763.703 657.945 762.75 657.086 762.062 655.977C761.391 654.867 761.055 653.578 761.055 652.109V652.062C761.055 650.672 761.398 649.469 762.086 648.453C762.789 647.438 763.797 646.633 765.109 646.039C766.438 645.445 768.031 645.094 769.891 644.984L778.914 644.469V647.633L770.359 648.148C768.734 648.242 767.469 648.633 766.562 649.32C765.672 650.008 765.227 650.922 765.227 652.062V652.109C765.227 653.281 765.664 654.211 766.539 654.898C767.43 655.586 768.609 655.93 770.078 655.93C771.359 655.93 772.508 655.664 773.523 655.133C774.555 654.586 775.367 653.844 775.961 652.906C776.57 651.969 776.875 650.914 776.875 649.742V642.547C776.875 641.062 776.406 639.898 775.469 639.055C774.547 638.195 773.234 637.766 771.531 637.766C769.969 637.766 768.703 638.109 767.734 638.797C766.781 639.469 766.188 640.352 765.953 641.445L765.906 641.656H761.969L761.992 641.398C762.117 640.055 762.57 638.836 763.352 637.742C764.148 636.648 765.242 635.781 766.633 635.141C768.023 634.484 769.672 634.156 771.578 634.156C773.5 634.156 775.156 634.484 776.547 635.141C777.953 635.797 779.039 636.727 779.805 637.93C780.57 639.117 780.953 640.523 780.953 642.148V659H776.875V655.039H776.781C776.312 655.93 775.688 656.711 774.906 657.383C774.125 658.039 773.242 658.555 772.258 658.93C771.289 659.289 770.258 659.469 769.164 659.469ZM786.344 659V625.18H790.422V659H786.344ZM806.406 659V625.18H810.625V655.203H826.938V659H806.406ZM838.07 659.469C836.461 659.469 835.047 659.164 833.828 658.555C832.609 657.945 831.656 657.086 830.969 655.977C830.297 654.867 829.961 653.578 829.961 652.109V652.062C829.961 650.672 830.305 649.469 830.992 648.453C831.695 647.438 832.703 646.633 834.016 646.039C835.344 645.445 836.938 645.094 838.797 644.984L847.82 644.469V647.633L839.266 648.148C837.641 648.242 836.375 648.633 835.469 649.32C834.578 650.008 834.133 650.922 834.133 652.062V652.109C834.133 653.281 834.57 654.211 835.445 654.898C836.336 655.586 837.516 655.93 838.984 655.93C840.266 655.93 841.414 655.664 842.43 655.133C843.461 654.586 844.273 653.844 844.867 652.906C845.477 651.969 845.781 650.914 845.781 649.742V642.547C845.781 641.062 845.312 639.898 844.375 639.055C843.453 638.195 842.141 637.766 840.438 637.766C838.875 637.766 837.609 638.109 836.641 638.797C835.688 639.469 835.094 640.352 834.859 641.445L834.812 641.656H830.875L830.898 641.398C831.023 640.055 831.477 638.836 832.258 637.742C833.055 636.648 834.148 635.781 835.539 635.141C836.93 634.484 838.578 634.156 840.484 634.156C842.406 634.156 844.062 634.484 845.453 635.141C846.859 635.797 847.945 636.727 848.711 637.93C849.477 639.117 849.859 640.523 849.859 642.148V659H845.781V655.039H845.688C845.219 655.93 844.594 656.711 843.812 657.383C843.031 658.039 842.148 658.555 841.164 658.93C840.195 659.289 839.164 659.469 838.07 659.469ZM855.039 659V634.625H859.117V638.094H859.211C859.867 636.953 860.82 636.016 862.07 635.281C863.32 634.531 864.867 634.156 866.711 634.156C869.383 634.156 871.453 634.969 872.922 636.594C874.406 638.203 875.148 640.398 875.148 643.18V659H871.07V643.906C871.07 641.922 870.602 640.406 869.664 639.359C868.742 638.297 867.344 637.766 865.469 637.766C864.188 637.766 863.07 638.055 862.117 638.633C861.164 639.195 860.422 639.992 859.891 641.023C859.375 642.055 859.117 643.266 859.117 644.656V659H855.039ZM890.664 667.672C888.664 667.672 886.914 667.383 885.414 666.805C883.93 666.242 882.727 665.469 881.805 664.484C880.898 663.516 880.312 662.43 880.047 661.227L880 661.016H884.102L884.195 661.227C884.586 662.102 885.336 662.789 886.445 663.289C887.57 663.805 888.961 664.062 890.617 664.062C892.758 664.062 894.414 663.508 895.586 662.398C896.758 661.305 897.344 659.812 897.344 657.922V654.805H897.25C896.766 655.711 896.141 656.492 895.375 657.148C894.609 657.805 893.727 658.32 892.727 658.695C891.742 659.055 890.664 659.234 889.492 659.234C887.445 659.234 885.641 658.719 884.078 657.688C882.531 656.641 881.32 655.18 880.445 653.305C879.586 651.414 879.156 649.203 879.156 646.672V646.648C879.156 644.117 879.594 641.922 880.469 640.062C881.359 638.188 882.586 636.734 884.148 635.703C885.711 634.672 887.523 634.156 889.586 634.156C890.742 634.156 891.805 634.352 892.773 634.742C893.742 635.133 894.602 635.672 895.352 636.359C896.117 637.047 896.75 637.844 897.25 638.75H897.344V634.625H901.422V658.32C901.422 660.211 900.984 661.852 900.109 663.242C899.234 664.648 897.992 665.734 896.383 666.5C894.773 667.281 892.867 667.672 890.664 667.672ZM890.383 655.625C891.773 655.625 892.984 655.258 894.016 654.523C895.062 653.773 895.875 652.727 896.453 651.383C897.047 650.039 897.344 648.469 897.344 646.672V646.648C897.344 644.852 897.047 643.289 896.453 641.961C895.875 640.633 895.062 639.602 894.016 638.867C892.969 638.133 891.758 637.766 890.383 637.766C888.945 637.766 887.695 638.133 886.633 638.867C885.57 639.586 884.75 640.609 884.172 641.938C883.609 643.266 883.328 644.836 883.328 646.648V646.672C883.328 648.516 883.609 650.109 884.172 651.453C884.75 652.781 885.57 653.812 886.633 654.547C887.695 655.266 888.945 655.625 890.383 655.625ZM915.016 659.469C913.234 659.469 911.711 659.102 910.445 658.367C909.195 657.633 908.234 656.594 907.562 655.25C906.906 653.891 906.578 652.289 906.578 650.445V634.625H910.656V649.719C910.656 651.703 911.117 653.227 912.039 654.289C912.977 655.336 914.383 655.859 916.258 655.859C917.227 655.859 918.094 655.695 918.859 655.367C919.641 655.039 920.312 654.578 920.875 653.984C921.438 653.375 921.867 652.648 922.164 651.805C922.461 650.945 922.609 650 922.609 648.969V634.625H926.688V659H922.609V655.531H922.516C922.078 656.281 921.508 656.953 920.805 657.547C920.117 658.141 919.289 658.609 918.32 658.953C917.352 659.297 916.25 659.469 915.016 659.469ZM939.133 659.469C937.523 659.469 936.109 659.164 934.891 658.555C933.672 657.945 932.719 657.086 932.031 655.977C931.359 654.867 931.023 653.578 931.023 652.109V652.062C931.023 650.672 931.367 649.469 932.055 648.453C932.758 647.438 933.766 646.633 935.078 646.039C936.406 645.445 938 645.094 939.859 644.984L948.883 644.469V647.633L940.328 648.148C938.703 648.242 937.438 648.633 936.531 649.32C935.641 650.008 935.195 650.922 935.195 652.062V652.109C935.195 653.281 935.633 654.211 936.508 654.898C937.398 655.586 938.578 655.93 940.047 655.93C941.328 655.93 942.477 655.664 943.492 655.133C944.523 654.586 945.336 653.844 945.93 652.906C946.539 651.969 946.844 650.914 946.844 649.742V642.547C946.844 641.062 946.375 639.898 945.438 639.055C944.516 638.195 943.203 637.766 941.5 637.766C939.938 637.766 938.672 638.109 937.703 638.797C936.75 639.469 936.156 640.352 935.922 641.445L935.875 641.656H931.938L931.961 641.398C932.086 640.055 932.539 638.836 933.32 637.742C934.117 636.648 935.211 635.781 936.602 635.141C937.992 634.484 939.641 634.156 941.547 634.156C943.469 634.156 945.125 634.484 946.516 635.141C947.922 635.797 949.008 636.727 949.773 637.93C950.539 639.117 950.922 640.523 950.922 642.148V659H946.844V655.039H946.75C946.281 655.93 945.656 656.711 944.875 657.383C944.094 658.039 943.211 658.555 942.227 658.93C941.258 659.289 940.227 659.469 939.133 659.469ZM966.414 667.672C964.414 667.672 962.664 667.383 961.164 666.805C959.68 666.242 958.477 665.469 957.555 664.484C956.648 663.516 956.062 662.43 955.797 661.227L955.75 661.016H959.852L959.945 661.227C960.336 662.102 961.086 662.789 962.195 663.289C963.32 663.805 964.711 664.062 966.367 664.062C968.508 664.062 970.164 663.508 971.336 662.398C972.508 661.305 973.094 659.812 973.094 657.922V654.805H973C972.516 655.711 971.891 656.492 971.125 657.148C970.359 657.805 969.477 658.32 968.477 658.695C967.492 659.055 966.414 659.234 965.242 659.234C963.195 659.234 961.391 658.719 959.828 657.688C958.281 656.641 957.07 655.18 956.195 653.305C955.336 651.414 954.906 649.203 954.906 646.672V646.648C954.906 644.117 955.344 641.922 956.219 640.062C957.109 638.188 958.336 636.734 959.898 635.703C961.461 634.672 963.273 634.156 965.336 634.156C966.492 634.156 967.555 634.352 968.523 634.742C969.492 635.133 970.352 635.672 971.102 636.359C971.867 637.047 972.5 637.844 973 638.75H973.094V634.625H977.172V658.32C977.172 660.211 976.734 661.852 975.859 663.242C974.984 664.648 973.742 665.734 972.133 666.5C970.523 667.281 968.617 667.672 966.414 667.672ZM966.133 655.625C967.523 655.625 968.734 655.258 969.766 654.523C970.812 653.773 971.625 652.727 972.203 651.383C972.797 650.039 973.094 648.469 973.094 646.672V646.648C973.094 644.852 972.797 643.289 972.203 641.961C971.625 640.633 970.812 639.602 969.766 638.867C968.719 638.133 967.508 637.766 966.133 637.766C964.695 637.766 963.445 638.133 962.383 638.867C961.32 639.586 960.5 640.609 959.922 641.938C959.359 643.266 959.078 644.836 959.078 646.648V646.672C959.078 648.516 959.359 650.109 959.922 651.453C960.5 652.781 961.32 653.812 962.383 654.547C963.445 655.266 964.695 655.625 966.133 655.625ZM992.477 659.469C990.148 659.469 988.141 658.953 986.453 657.922C984.781 656.891 983.492 655.438 982.586 653.562C981.695 651.672 981.25 649.453 981.25 646.906V646.883C981.25 644.367 981.703 642.156 982.609 640.25C983.516 638.328 984.789 636.836 986.43 635.773C988.07 634.695 990 634.156 992.219 634.156C994.438 634.156 996.344 634.672 997.938 635.703C999.547 636.719 1000.78 638.148 1001.64 639.992C1002.5 641.836 1002.93 643.977 1002.93 646.414V647.914H983.289V644.727H1000.91L998.852 647.68V646.109C998.852 644.219 998.562 642.656 997.984 641.422C997.422 640.188 996.641 639.273 995.641 638.68C994.641 638.07 993.492 637.766 992.195 637.766C990.898 637.766 989.734 638.086 988.703 638.727C987.672 639.352 986.859 640.289 986.266 641.539C985.672 642.773 985.375 644.297 985.375 646.109V647.68C985.375 649.398 985.664 650.867 986.242 652.086C986.836 653.305 987.672 654.242 988.75 654.898C989.828 655.539 991.102 655.859 992.57 655.859C993.602 655.859 994.523 655.703 995.336 655.391C996.148 655.078 996.828 654.648 997.375 654.102C997.922 653.555 998.312 652.93 998.547 652.227L998.617 652.016H1002.62L1002.58 652.25C1002.38 653.25 1001.98 654.188 1001.41 655.062C1000.84 655.938 1000.12 656.711 999.227 657.383C998.336 658.039 997.32 658.555 996.18 658.93C995.039 659.289 993.805 659.469 992.477 659.469ZM1015.7 659.469C1013.8 659.469 1012.15 659.164 1010.76 658.555C1009.37 657.945 1008.27 657.094 1007.45 656C1006.66 654.906 1006.17 653.633 1006 652.18L1005.98 651.969H1010.05L1010.1 652.203C1010.35 653.422 1010.94 654.375 1011.86 655.062C1012.78 655.734 1014.07 656.07 1015.73 656.07C1016.84 656.07 1017.78 655.93 1018.56 655.648C1019.34 655.352 1019.95 654.938 1020.37 654.406C1020.79 653.859 1021 653.219 1021 652.484V652.461C1021 651.586 1020.73 650.883 1020.2 650.352C1019.67 649.82 1018.71 649.383 1017.32 649.039L1013.45 648.102C1011.92 647.727 1010.65 647.242 1009.63 646.648C1008.63 646.039 1007.88 645.297 1007.38 644.422C1006.88 643.547 1006.63 642.523 1006.63 641.352V641.328C1006.63 639.922 1007.01 638.68 1007.76 637.602C1008.52 636.523 1009.58 635.68 1010.92 635.07C1012.28 634.461 1013.84 634.156 1015.59 634.156C1017.37 634.156 1018.91 634.477 1020.23 635.117C1021.55 635.742 1022.59 636.602 1023.34 637.695C1024.11 638.773 1024.54 639.992 1024.63 641.352L1024.66 641.656H1020.77L1020.74 641.492C1020.59 640.305 1020.06 639.352 1019.17 638.633C1018.3 637.914 1017.1 637.555 1015.59 637.555C1014.6 637.555 1013.75 637.703 1013.03 638C1012.31 638.297 1011.76 638.719 1011.37 639.266C1010.99 639.797 1010.8 640.422 1010.8 641.141V641.164C1010.8 641.711 1010.93 642.211 1011.18 642.664C1011.45 643.102 1011.86 643.484 1012.42 643.812C1012.98 644.141 1013.71 644.414 1014.6 644.633L1018.47 645.57C1020.94 646.164 1022.67 646.984 1023.67 648.031C1024.67 649.062 1025.17 650.445 1025.17 652.18V652.203C1025.17 653.625 1024.76 654.883 1023.93 655.977C1023.12 657.07 1021.99 657.93 1020.55 658.555C1019.13 659.164 1017.52 659.469 1015.7 659.469Z" fill="white"/>
<rect x="1110" y="47" width="120" height="80" rx="40" fill="#FF383C"/>
<path d="M1144.38 90.8906V87.2031H1149.91C1151.26 87.2031 1152.31 86.8594 1153.06 86.1719C1153.82 85.474 1154.2 84.4844 1154.2 83.2031V83.1719C1154.2 81.8906 1153.82 80.9062 1153.06 80.2188C1152.31 79.5312 1151.26 79.1875 1149.91 79.1875H1144.38V75.4531H1151.06C1152.65 75.4531 1154.03 75.776 1155.22 76.4219C1156.41 77.0573 1157.33 77.9531 1157.98 79.1094C1158.65 80.2656 1158.98 81.6146 1158.98 83.1562V83.1875C1158.98 84.7396 1158.65 86.0938 1157.98 87.25C1157.33 88.4062 1156.41 89.3021 1155.22 89.9375C1154.03 90.5729 1152.65 90.8906 1151.06 90.8906H1144.38ZM1142 98V75.4531H1146.72V98H1142ZM1161.78 98V75.4531H1170.39C1172.65 75.4531 1174.58 75.8854 1176.17 76.75C1177.78 77.6146 1179.01 78.8802 1179.86 80.5469C1180.71 82.2031 1181.14 84.224 1181.14 86.6094V86.6406C1181.14 89.026 1180.71 91.0677 1179.86 92.7656C1179.02 94.4635 1177.79 95.7604 1176.19 96.6562C1174.58 97.5521 1172.65 98 1170.39 98H1161.78ZM1166.5 94.0938H1169.83C1171.23 94.0938 1172.42 93.8125 1173.39 93.25C1174.36 92.6875 1175.09 91.8542 1175.58 90.75C1176.08 89.6458 1176.33 88.2812 1176.33 86.6562V86.625C1176.33 85.0521 1176.07 83.724 1175.56 82.6406C1175.06 81.5573 1174.33 80.7396 1173.36 80.1875C1172.39 79.625 1171.21 79.3438 1169.83 79.3438H1166.5V94.0938ZM1184.19 98V75.4531H1198.95V79.3438H1188.91V85.3906H1198.08V89.125H1188.91V98H1184.19Z" fill="white"/>
</svg>
